<?xml version="1.0" encoding="UTF-8"?>
<svg version="1.1" xmlns="http://www.w3.org/2000/svg" width="474" height="268">
<path d="M0 0 C156.42 0 312.84 0 474 0 C474 88.44 474 176.88 474 268 C317.58 268 161.16 268 0 268 C0 179.56 0 91.12 0 0 Z " fill="#FDFDFD" transform="translate(0,0)"/>
<path d="M0 0 C62.37 0 124.74 0 189 0 C189 6.88505848 188.92670084 13.50570202 188.3359375 20.32421875 C188.22750519 21.63500648 188.22750519 21.63500648 188.11688232 22.97227478 C187.87464052 25.87779969 187.62510117 28.78264175 187.375 31.6875 C187.1964083 33.79931273 187.01786145 35.91112925 186.83935547 38.02294922 C185.25923845 56.56045712 183.50727663 75.08152621 181.74694824 93.60263062 C179.58176574 116.39136446 177.56673936 139.19117569 175.625 162 C175.55812233 162.78546455 175.49124466 163.57092911 175.42234039 164.38019562 C174.61046346 173.91975734 173.80291508 183.45967963 173 193 C168.04027395 194.67517686 163.08341031 196.3163286 158.05078125 197.76171875 C156.42885864 198.22759399 156.42885864 198.22759399 154.77416992 198.70288086 C153.63181885 199.02780518 152.48946777 199.35272949 151.3125 199.6875 C150.11020752 200.02982666 148.90791504 200.37215332 147.66918945 200.72485352 C139.01449852 203.17522091 130.34564705 205.57151299 121.65927124 207.90713501 C119.72643913 208.42702619 117.79448398 208.95017422 115.86254883 209.47338867 C114.6742749 209.79025635 113.48600098 210.10712402 112.26171875 210.43359375 C111.21975342 210.71259521 110.17778809 210.99159668 109.10424805 211.27905273 C105.75106735 212.05781346 102.41260095 212.5585837 99 213 C99 213.66 99 214.32 99 215 C96.03 215 93.06 215 90 215 C90 214.34 90 213.68 90 213 C88.8951123 212.89204102 87.79022461 212.78408203 86.65185547 212.67285156 C81.48076617 212.02223069 76.57633538 210.65234262 71.5703125 209.234375 C70.58110809 208.95909973 69.59190369 208.68382446 68.57272339 208.40020752 C65.42196951 207.52211892 62.27347162 206.63623288 59.125 205.75 C57.04962545 205.17004919 54.9741057 204.59061771 52.8984375 204.01171875 C48.85237058 202.88246092 44.80714941 201.7502547 40.76269531 200.61523438 C32.84618833 198.39434992 24.92329187 196.19653136 17 194 C15.19497289 181.68285025 14.06405836 169.33731287 13 156.9375 C12.83365633 155.02406043 12.66699091 153.11064881 12.5 151.19726562 C12.24991114 148.33138004 12.0000549 145.46547678 11.75151062 142.59945679 C11.08902341 134.96998638 10.39923855 127.34317645 9.7023468 119.71678162 C8.94926532 111.46864658 8.22782731 103.21796355 7.51080322 94.96661377 C6.62995038 84.85601791 5.69593992 74.75130793 4.73046875 64.6484375 C4.39121448 61.07359375 4.05235219 57.49871299 3.71353149 53.92382812 C3.49170419 51.5984109 3.26764449 49.2732053 3.04110718 46.94824219 C2.71690858 43.61967033 2.40084859 40.29039931 2.0859375 36.9609375 C1.9912468 36.01149261 1.89655609 35.06204773 1.79899597 34.08383179 C0.73995551 22.71755603 0.47733681 11.45608332 0 0 Z " fill="#264DE5" transform="translate(144,53)"/>
<path d="M0 0 C39.27 0 78.54 0 119 0 C117.84913697 23.01726054 117.84913697 23.01726054 117.0625 31.55078125 C116.97750244 32.50470261 116.89250488 33.45862396 116.80493164 34.44145203 C116.628638 36.41124818 116.45051663 38.38088167 116.27050781 40.3503418 C115.99612652 43.35491606 115.72811161 46.36001142 115.4609375 49.36523438 C115.2868223 51.30211609 115.11235646 53.23896632 114.9375 55.17578125 C114.81870483 56.50395622 114.81870483 56.50395622 114.69750977 57.85896301 C114.26213311 62.59862378 113.68876714 67.28907579 113 72 C112.82680125 73.7678382 112.6710363 75.53749626 112.53515625 77.30859375 C112.4582959 78.292229 112.38143555 79.27586426 112.30224609 80.28930664 C112.18357178 81.84766235 112.18357178 81.84766235 112.0625 83.4375 C111.88969946 85.65367523 111.7165114 87.86982026 111.54296875 90.0859375 C111.45450684 91.21999023 111.36604492 92.35404297 111.27490234 93.52246094 C110.82577717 99.20393428 110.35102209 104.88322656 109.875 110.5625 C109.78742432 111.60913818 109.69984863 112.65577637 109.60961914 113.73413086 C109.40678253 116.1561185 109.20360001 118.57807643 109 121 C103.54813754 123.11479441 98.11175047 124.92566716 92.4765625 126.48046875 C91.29723648 126.80704216 91.29723648 126.80704216 90.09408569 127.14021301 C88.44255604 127.59525345 86.79041536 128.04808157 85.13769531 128.4987793 C82.63524536 129.18469178 80.13811939 129.88808706 77.640625 130.59179688 C63.40464726 134.53515845 54.1077839 134.47199693 39.75 130.25 C38.52925781 129.90195313 37.30851562 129.55390625 36.05078125 129.1953125 C33.60161497 128.49555071 31.15431286 127.78922914 28.70898438 127.07617188 C26.14007658 126.33079631 23.57027403 125.59624483 20.99414062 124.87695312 C20.34785706 124.69565857 19.70157349 124.51436401 19.03570557 124.32757568 C17.23820982 123.82420277 15.43992738 123.32364153 13.64160156 122.82324219 C11 122 11 122 10 121 C9.47508374 117.08145917 9.24101375 113.12868222 8.9375 109.1875 C8.84662109 108.10017578 8.75574219 107.01285156 8.66210938 105.89257812 C8.08360393 98.57209197 7.91687252 91.3429275 8 84 C15.59 84 23.18 84 31 84 C33.14285714 97.125 33.14285714 97.125 33 103 C34.61068359 103.39832031 34.61068359 103.39832031 36.25390625 103.8046875 C37.6901201 104.16139421 39.12631712 104.51816866 40.5625 104.875 C41.61920898 105.13603516 41.61920898 105.13603516 42.69726562 105.40234375 C43.39658203 105.57636719 44.09589844 105.75039062 44.81640625 105.9296875 C45.87239014 106.19217285 45.87239014 106.19217285 46.94970703 106.45996094 C48.84602587 106.95944382 50.71974826 107.54268443 52.58984375 108.1328125 C60.16523001 110.05919938 66.03924657 108.34033225 73.25 106 C75.02488847 105.43387178 76.80088812 104.87121219 78.578125 104.3125 C79.35575195 104.06113281 80.13337891 103.80976563 80.93457031 103.55078125 C83 103 83 103 86 103 C86.06058594 101.98421875 86.12117188 100.9684375 86.18359375 99.921875 C86.58142113 93.34087978 86.99186163 86.76103609 87.5 80.1875 C87.5721875 79.25292969 87.644375 78.31835938 87.71875 77.35546875 C88 75 88 75 89 72 C61.61 72 34.22 72 6 72 C4 55 4 55 4 48 C32.71 48 61.42 48 91 48 C91.33 41.4 91.66 34.8 92 28 C92.33 26.68 92.66 25.36 93 24 C62.97 24 32.94 24 2 24 C0 7 0 7 0 0 Z " fill="#FBFDFC" transform="translate(179,92)"/>
<path d="M0 0 C25.41 0 50.82 0 77 0 C76 25 76 25 75 27 C74.83134615 28.41215919 74.7150654 29.83078159 74.62695312 31.25024414 C74.57019409 32.12777847 74.51343506 33.00531281 74.45495605 33.90943909 C74.39763306 34.85842575 74.34031006 35.80741241 74.28125 36.78515625 C74.21844849 37.75658066 74.15564697 38.72800507 74.09094238 39.72886658 C73.82150559 43.89737116 73.56207386 48.06648275 73.30224609 52.2355957 C73.11149345 55.27320142 72.91529748 58.31042089 72.71875 61.34765625 C72.661427 62.29866714 72.604104 63.24967804 72.54504395 64.22950745 C72.48828491 65.10388962 72.43152588 65.97827179 72.37304688 66.87915039 C72.32498901 67.65255264 72.27693115 68.4259549 72.22741699 69.22279358 C72 71 72 71 71 72 C70.16360565 77.4850499 69.83183297 82.89990793 69.625 88.4375 C69.22896064 97.38978978 68.21508788 106.22256311 67.09082031 115.109375 C66.26151844 121.68645554 65.58516043 128.21966188 65.2109375 134.83984375 C65 137 65 137 64 139 C63.93925857 140.60955715 63.93975549 142.22166443 63.97265625 143.83203125 C63.99102539 145.27739258 63.99102539 145.27739258 64.00976562 146.75195312 C64.04472125 148.78067388 64.08373651 150.80932904 64.12695312 152.83789062 C64.13791016 153.80533203 64.14886719 154.77277344 64.16015625 155.76953125 C64.17699463 156.65229736 64.19383301 157.53506348 64.21118164 158.44458008 C63.97324812 161.3237132 63.29040867 163.42144009 62 166 C59.9765625 166.92578125 59.9765625 166.92578125 57.625 167.3125 C56.85414063 167.45300781 56.08328125 167.59351563 55.2890625 167.73828125 C53 168 53 168 49 168 C49 168.66 49 169.32 49 170 C48.23816406 170.10957031 47.47632813 170.21914062 46.69140625 170.33203125 C45.65886719 170.49058594 44.62632812 170.64914063 43.5625 170.8125 C42.55316406 170.96332031 41.54382813 171.11414063 40.50390625 171.26953125 C37.84157124 171.82455538 35.5139866 172.46167221 32.96484375 173.34375 C26.74268882 175.49092877 20.37340761 177.05843797 14 178.6875 C12.76121094 179.00783203 11.52242187 179.32816406 10.24609375 179.65820312 C1.14853745 182 1.14853745 182 0 182 C-0.02683987 179.02077407 -0.04676037 176.04178705 -0.0625 173.0625 C-0.07506836 171.78729492 -0.07506836 171.78729492 -0.08789062 170.48632812 C-0.09111328 169.67744141 -0.09433594 168.86855469 -0.09765625 168.03515625 C-0.10289307 167.2862915 -0.10812988 166.53742676 -0.11352539 165.76586914 C0 164 0 164 1 163 C0.67 162.01 0.34 161.02 0 160 C0.8353125 159.72736328 0.8353125 159.72736328 1.6875 159.44921875 C2.8321875 159.07216797 2.8321875 159.07216797 4 158.6875 C5.24716797 158.27757812 5.24716797 158.27757812 6.51953125 157.859375 C8.62494159 157.1299415 10.63906082 156.30841991 12.6875 155.4375 C17.64352138 153.50344288 22.86655858 153.11241925 28.12109375 152.52734375 C29.07113281 152.35332031 30.02117187 152.17929688 31 152 C31.33 151.34 31.66 150.68 32 150 C34.48168161 149.22355888 36.91556651 148.54993629 39.4375 147.9375 C44.33981858 146.81643072 44.33981858 146.81643072 49 145 C49.46651207 142.87423218 49.46651207 142.87423218 49.625 140.4375 C49.69976562 139.61121094 49.77453125 138.78492188 49.8515625 137.93359375 C49.90054688 137.29550781 49.94953125 136.65742188 50 136 C50.66 136 51.32 136 52 136 C52.03758423 134.74509766 52.03758423 134.74509766 52.07592773 133.46484375 C52.17172836 130.32623274 52.27091655 127.18775119 52.37231445 124.04931641 C52.43632741 122.03686399 52.4965197 120.0242912 52.55664062 118.01171875 C52.7656066 111.61414496 53.03900084 105.33128859 54 99 C54.66 99 55.32 99 56 99 C55.83757812 98.443125 55.67515625 97.88625 55.5078125 97.3125 C54.95777553 94.80771628 54.86718744 92.562519 54.875 90 C54.87113281 88.7315625 54.87113281 88.7315625 54.8671875 87.4375 C55 85 55 85 55.515625 83.15234375 C56.0842003 80.62585189 56.01023258 78.24971906 55.93530273 75.671875 C55.69330087 67.20670855 56.53746522 59.19151921 57.85839844 50.83837891 C58.86871269 44.33373099 59.44768174 37.90405917 59.70874023 31.328125 C59.84472565 28.01487536 60.18812961 25.24748156 61 22 C40.87 22 20.74 22 0 22 C0 14.74 0 7.48 0 0 Z " fill="#2A63F1" transform="translate(239,69)"/>
<path d="M0 0 C62.37 0 124.74 0 189 0 C189 7.39779003 188.80802862 14.3879442 188 21.6875 C187.90460938 22.59177734 187.80921875 23.49605469 187.7109375 24.42773438 C187.47904822 26.61908807 187.24203811 28.80974823 187 31 C186.67 31 186.34 31 186 31 C185.89668969 23.57313685 186.00137301 16.36487404 187 9 C186.01 9 185.02 9 184 9 C183.67 8.34 183.34 7.68 183 7 C182.67 7.66 182.34 8.32 182 9 C181.32207807 8.83826325 180.64415613 8.67652651 179.94569111 8.50988865 C176.54011339 7.92039527 173.32638786 7.85943451 169.86894226 7.84178162 C169.16229913 7.83684364 168.455656 7.83190566 167.72759944 7.82681805 C165.3661721 7.81149303 163.00477185 7.80309603 160.64331055 7.79467773 C158.9480109 7.78509528 157.25271362 7.77508498 155.55741882 7.76467896 C150.9587032 7.73766365 146.35997735 7.71663582 141.76122642 7.69667697 C136.95390192 7.6747966 132.14660884 7.64741794 127.33930969 7.62062073 C118.2375898 7.57072158 109.13585245 7.52577244 100.03409845 7.48259836 C89.67140197 7.43320225 79.30873701 7.37829292 68.94607103 7.32291877 C47.63074338 7.20914137 26.31538565 7.10229309 5 7 C5 8.32 5 9.64 5 11 C4.34 11 3.68 11 3 11 C3.1546875 11.68320313 3.309375 12.36640625 3.46875 13.0703125 C4.06341269 16.34970234 4.2996624 19.5479648 4.5 22.875 C4.5825 24.18984375 4.665 25.5046875 4.75 26.859375 C4.87578705 28.93289595 5.00038978 31.00648616 5.125 33.08007812 C5.24724564 35.09522106 5.37357584 37.1101149 5.5 39.125 C5.5721875 40.32382813 5.644375 41.52265625 5.71875 42.7578125 C5.92925218 45.90429665 5.92925218 45.90429665 6.52514648 48.57104492 C7.06756905 51.34562698 7.11276943 53.91211741 7.09765625 56.73828125 C7.09443359 57.80498047 7.09121094 58.87167969 7.08789062 59.97070312 C7.07951172 61.07349609 7.07113281 62.17628906 7.0625 63.3125 C7.05798828 64.43462891 7.05347656 65.55675781 7.04882812 66.71289062 C7.03707313 69.4753151 7.02064077 72.23762998 7 75 C7.66 75 8.32 75 9 75 C9.59168628 79.58556868 10.02565588 84.00052765 10 88.625 C9.97132444 94.13787626 10.21395931 99.62064944 10.5 105.125 C10.54769531 106.08148438 10.59539062 107.03796875 10.64453125 108.0234375 C10.76081333 110.34907911 10.87933246 112.67458253 11 115 C11.99 115 12.98 115 14 115 C14.1458651 119.5307408 14.28806531 124.0615794 14.42724609 128.5925293 C14.47480532 130.12543646 14.52326976 131.65831588 14.57275391 133.19116211 C14.92508426 144.13137907 15.06239381 155.05422011 15 166 C14.67 166 14.34 166 14 166 C13.45920942 160.99591601 12.92685653 155.99101425 12.40087891 150.98535156 C12.22261287 149.2986078 12.04240978 147.61206713 11.85986328 145.92578125 C10.67360705 134.95125429 9.77499913 123.98613914 9.08984375 112.96875 C8.37508482 101.60274846 7.42479406 90.27846753 6.30859375 78.9453125 C6.2331282 78.17705517 6.15766266 77.40879784 6.07991028 76.61725998 C5.38198047 69.52769601 4.6708688 62.43946608 3.95629883 55.3515625 C3.55915942 51.40766423 3.16892988 47.46312373 2.78227425 43.51818466 C2.56983688 41.37142835 2.34977689 39.22555847 2.1292572 37.07962036 C0.91400149 24.68396629 0.52150295 12.51607072 0 0 Z " fill="#284ACB" transform="translate(144,53)"/>
<path d="M0 0 C7.59 0 15.18 0 23 0 C25.14285714 13.125 25.14285714 13.125 25 19 C26.69401042 19.4235026 28.38802083 19.84700521 30.08203125 20.27050781 C34.96614583 21.49153646 39.85026042 22.7125651 44.734375 23.93359375 C45.81203125 24.20300781 46.8896875 24.47242188 48 24.75 C49.66666667 25.16666667 51.33333333 25.58333333 53 26 C52.505 27.485 52.505 27.485 52 29 C51.8535286 30.55266653 51.75305926 32.10995662 51.68359375 33.66796875 C51.62075195 35.00698242 51.62075195 35.00698242 51.55664062 36.37304688 C51.51732422 37.30181641 51.47800781 38.23058594 51.4375 39.1875 C51.37272461 40.59805664 51.37272461 40.59805664 51.30664062 42.03710938 C51.20061335 44.35792854 51.09854971 46.67885325 51 49 C52.65 49 54.3 49 56 49 C56 49.33 56 49.66 56 50 C47.38652399 50.67331746 39.96771825 48.6664719 31.75 46.25 C29.91888672 45.72792969 29.91888672 45.72792969 28.05078125 45.1953125 C25.60161497 44.49555071 23.15431286 43.78922914 20.70898438 43.07617188 C18.14007658 42.33079631 15.57027403 41.59624483 12.99414062 40.87695312 C12.34785706 40.69565857 11.70157349 40.51436401 11.03570557 40.32757568 C9.23820982 39.82420277 7.43992738 39.32364153 5.64160156 38.82324219 C3 38 3 38 2 37 C1.47508374 33.08145917 1.24101375 29.12868222 0.9375 25.1875 C0.84662109 24.10017578 0.75574219 23.01285156 0.66210938 21.89257812 C0.08360393 14.57209197 -0.08312748 7.3429275 0 0 Z " fill="#EAEBEC" transform="translate(187,176)"/>
<path d="M0 0 C39.27 0 78.54 0 119 0 C119 0.33 119 0.66 119 1 C99.2 1 79.4 1 59 1 C59.495 1.99 59.495 1.99 60 3 C60.08372659 4.52148326 60.10730027 6.04655778 60.09765625 7.5703125 C60.09515869 8.37742676 60.09266113 9.18454102 60.09008789 10.01611328 C60.08098389 11.0420459 60.07187988 12.06797852 60.0625 13.125 C60.041875 16.38375 60.02125 19.6425 60 23 C71.22 22.67 82.44 22.34 94 22 C94 33 94 33 92 36 C91.92670204 31.60212211 91.92603934 28.29584263 93 24 C62.97 24 32.94 24 2 24 C0 7 0 7 0 0 Z " fill="#EBEBEB" transform="translate(179,92)"/>
<path d="M0 0 C28.71 0 57.42 0 87 0 C87 0.33 87 0.66 87 1 C76.44 1 65.88 1 55 1 C55.495 1.99 55.495 1.99 56 3 C56.08372659 4.52148326 56.10730027 6.04655778 56.09765625 7.5703125 C56.09515869 8.37742676 56.09266113 9.18454102 56.09008789 10.01611328 C56.08098389 11.0420459 56.07187988 12.06797852 56.0625 13.125 C56.041875 16.38375 56.02125 19.6425 56 23 C65.24 23 74.48 23 84 23 C84 23.33 84 23.66 84 24 C56.94 24 29.88 24 2 24 C0 7 0 7 0 0 Z " fill="#EBEBEC" transform="translate(183,140)"/>
<path d="M0 0 C9.57 0 19.14 0 29 0 C29 12.21 29 24.42 29 37 C19.43 37 9.86 37 0 37 C0 33.37 0 29.74 0 26 C5.61 26 11.22 26 17 26 C17 25.34 17 24.68 17 24 C11.39 24 5.78 24 0 24 C0 16.08 0 8.16 0 0 Z " fill="#0D0D0D" transform="translate(223,0)"/>
<path d="M0 0 C27.39 0 54.78 0 83 0 C81 24 81 24 80 31 C76.31753784 32.18299041 72.62832972 33.34340605 68.9375 34.5 C67.89916016 34.83386719 66.86082031 35.16773438 65.79101562 35.51171875 C60.34275073 37.20673449 55.71284523 38.45378629 50 38 C51.98 37.505 51.98 37.505 54 37 C54 25.12 54 13.24 54 1 C36.18 1 18.36 1 0 1 C0 0.67 0 0.34 0 0 Z " fill="#2A64EF" transform="translate(185,164)"/>
<path d="M0 0 C9.57 0 19.14 0 29 0 C29 3.3 29 6.6 29 10 C27.85660156 10.04898437 26.71320313 10.09796875 25.53515625 10.1484375 C24.04424527 10.22345189 22.55336108 10.29900028 21.0625 10.375 C19.93038086 10.42140625 19.93038086 10.42140625 18.77539062 10.46875 C16.84492605 10.5726315 14.92057919 10.77895614 13 11 C12.67 11.66 12.34 12.32 12 13 C17.61 13 23.22 13 29 13 C29 20.59 29 28.18 29 36 C19.76 36 10.52 36 1 36 C1 32.7 1 29.4 1 26 C6.28 26 11.56 26 17 26 C17 25.34 17 24.68 17 24 C11.39 24 5.78 24 0 24 C0 16.08 0 8.16 0 0 Z " fill="#070707" transform="translate(257,0)"/>
<path d="M0 0 C5.51190985 0.68339365 10.9073327 0.75828959 16.45617676 0.72875977 C17.50781006 0.7272995 18.55944336 0.72583923 19.64294434 0.72433472 C21.90727719 0.7205527 24.17160716 0.71446188 26.43592834 0.70626831 C30.01621087 0.69343736 33.59645612 0.68697282 37.17675781 0.68212891 C44.76405496 0.67074399 52.35132099 0.65147108 59.93859863 0.63110352 C68.75992098 0.60751858 77.58122626 0.58714956 86.40257263 0.57516479 C89.9358044 0.56866613 93.46898315 0.55616403 97.00219727 0.54345703 C99.15352329 0.53982692 101.3048498 0.53647489 103.45617676 0.53344727 C104.44315552 0.52828094 105.43013428 0.52311462 106.44702148 0.51779175 C107.34404785 0.51772125 108.24107422 0.51765076 109.1652832 0.51757812 C109.94688057 0.51535751 110.72847794 0.5131369 111.53376007 0.510849 C113.43859863 0.63110352 113.43859863 0.63110352 115.43859863 1.63110352 C115.12451075 12.32092205 114.56423208 22.81132101 112.87609863 33.38110352 C111.59367679 41.42422495 111.19425366 49.12654132 111.43078613 57.26000977 C111.43738836 60.10887084 111.13049822 61.94273029 110.43859863 64.63110352 C110.37027876 67.04689411 110.35372222 69.46445064 110.37609863 71.88110352 C110.38512207 73.14438477 110.39414551 74.40766602 110.40344238 75.70922852 C110.41504395 76.67344727 110.42664551 77.63766602 110.43859863 78.63110352 C109.77859863 78.63110352 109.11859863 78.63110352 108.43859863 78.63110352 C108.4010144 80.04588989 108.4010144 80.04588989 108.3626709 81.48925781 C108.26730055 85.00239014 108.16808139 88.51537059 108.06628418 92.02832031 C108.02308315 93.54618106 107.98139815 95.06408578 107.94128418 96.58203125 C107.88322051 98.7690961 107.81963207 100.9559427 107.75500488 103.14282227 C107.71834717 104.45726318 107.68168945 105.7717041 107.6439209 107.12597656 C107.47099228 110.0781005 107.11699149 112.76060848 106.43859863 115.63110352 C105.77859863 115.63110352 105.11859863 115.63110352 104.43859863 115.63110352 C104.49660645 116.24598633 104.55461426 116.86086914 104.61437988 117.49438477 C104.75115332 119.94458315 104.76762755 122.19802125 104.43859863 124.63110352 C100.89457205 128.1751301 95.29426025 128.89276499 90.43859863 129.63110352 C89.11859863 129.63110352 87.79859863 129.63110352 86.43859863 129.63110352 C86.10859863 130.62110352 85.77859863 131.61110352 85.43859863 132.63110352 C84.52078613 132.74067383 83.60297363 132.85024414 82.65734863 132.96313477 C75.77979287 133.85172653 69.83712479 135.00313741 63.43859863 137.63110352 C59.08972359 138.67483353 55.80857191 138.56752636 51.43859863 137.63110352 C51.43859863 137.30110352 51.43859863 136.97110352 51.43859863 136.63110352 C52.68588745 136.37695679 52.68588745 136.37695679 53.95837402 136.11767578 C63.01691373 134.22971984 71.94680536 131.9886087 80.87609863 129.56860352 C82.19828089 129.21347528 83.52054635 128.85865667 84.84289551 128.50415039 C90.72141599 126.92319598 96.58834554 125.3132775 102.43859863 123.63110352 C103.21253707 115.67548234 103.97528988 107.71880238 104.71594238 99.76000977 C104.81291664 98.73485008 104.81291664 98.73485008 104.91184998 97.6889801 C105.47870456 91.55302131 105.82111398 85.41399166 106.13781738 79.26000977 C107.65206737 53.6814627 110.89290826 28.08800724 113.43859863 2.63110352 C74.16859863 2.63110352 34.89859863 2.63110352 -5.56140137 2.63110352 C-4.90140137 8.24110352 -4.24140137 13.85110352 -3.56140137 19.63110352 C-3.56140137 21.94110352 -3.56140137 24.25110352 -3.56140137 26.63110352 C26.46859863 26.63110352 56.49859863 26.63110352 87.43859863 26.63110352 C86.43859863 43.63110352 86.43859863 43.63110352 85.43859863 50.63110352 C57.05859863 50.63110352 28.67859863 50.63110352 -0.56140137 50.63110352 C-0.56140137 50.30110352 -0.56140137 49.97110352 -0.56140137 49.63110352 C4.70327829 48.89572042 9.76485634 48.50500018 15.09216309 48.50170898 C16.16933342 48.49908051 16.16933342 48.49908051 17.26826477 48.49639893 C19.61282861 48.49204112 21.95731545 48.49489521 24.30187988 48.49829102 C25.94235753 48.4976166 27.58283507 48.49664543 29.22331238 48.49539185 C32.64672811 48.49392343 36.07011761 48.4960432 39.49353027 48.50073242 C43.88287325 48.50645183 48.27215537 48.50313137 52.66149616 48.49715996 C56.04233766 48.49355043 59.42316465 48.49469435 62.80400658 48.49728775 C64.42314855 48.49795476 66.04229183 48.49713646 67.66143227 48.4948082 C69.91832614 48.49227282 72.1751204 48.49613377 74.43200684 48.50170898 C76.3577227 48.50290237 76.3577227 48.50290237 78.32234192 48.50411987 C81.43859863 48.63110352 81.43859863 48.63110352 84.43859863 49.63110352 C83.77859863 43.36110352 83.11859863 37.09110352 82.43859863 30.63110352 C83.09859863 30.63110352 83.75859863 30.63110352 84.43859863 30.63110352 C84.43859863 29.64110352 84.43859863 28.65110352 84.43859863 27.63110352 C83.83878174 27.66139648 83.23896484 27.69168945 82.62097168 27.72290039 C63.49676695 28.63199505 44.36825274 28.77113322 25.22586441 28.81277466 C23.1836639 28.81861763 21.14151471 28.82833504 19.09933472 28.83911133 C15.22803269 28.85887369 11.35682868 28.8612705 7.48547363 28.86157227 C6.30026627 28.8687175 5.1150589 28.87586273 3.89393616 28.88322449 C2.26620522 28.87866997 2.26620522 28.87866997 0.60559082 28.87402344 C-0.82421112 28.87616096 -0.82421112 28.87616096 -2.28289795 28.87834167 C-4.56140137 28.63110352 -4.56140137 28.63110352 -6.56140137 26.63110352 C-6.84506955 24.02252599 -7.02779904 21.496962 -7.12390137 18.88110352 C-7.33186909 14.0491726 -7.65462076 9.39732225 -8.56140137 4.63110352 C-7.90140137 4.63110352 -7.24140137 4.63110352 -6.56140137 4.63110352 C-6.56140137 3.97110352 -6.56140137 3.31110352 -6.56140137 2.63110352 C-7.22140137 2.30110352 -7.88140137 1.97110352 -8.56140137 1.63110352 C-5.42788339 -0.23824237 -3.58841996 -0.52812151 0 0 Z " fill="#2E50C0" transform="translate(184.5614013671875,89.368896484375)"/>
<path d="M0 0 C9.57 0 19.14 0 29 0 C29 3.96 29 7.92 29 12 C23.39 12 17.78 12 12 12 C12 15.96 12 19.92 12 24 C17.61 24 23.22 24 29 24 C29 27.96 29 31.92 29 36 C19.43 36 9.86 36 0 36 C0 24.12 0 12.24 0 0 Z " fill="#040404" transform="translate(188,0)"/>
<path d="M0 0 C9.9 0 19.8 0 30 0 C30 0.99 30 1.98 30 3 C29.34 3 28.68 3 28 3 C28.33 4.093125 28.66 5.18625 29 6.3125 C29.90918538 9.87493308 30.10659123 13.11961853 30.0625 16.79296875 C30.05347656 17.77160889 30.04445313 18.75024902 30.03515625 19.75854492 C30.02355469 20.4982251 30.01195312 21.23790527 30 22 C25.88806264 21.88201748 21.77636712 21.75778941 17.66479492 21.62768555 C16.26510801 21.58428566 14.86536641 21.54261436 13.46557617 21.50268555 C11.45738505 21.44510555 9.44938851 21.38086 7.44140625 21.31640625 C6.23170166 21.27974854 5.02199707 21.24309082 3.77563477 21.20532227 C1 21 1 21 0 20 C-0.08669432 18.5112814 -0.10703494 17.018555 -0.09765625 15.52734375 C-0.09515869 14.71773193 -0.09266113 13.90812012 -0.09008789 13.07397461 C-0.08098389 12.03893799 -0.07187988 11.00390137 -0.0625 9.9375 C-0.0315625 5.0184375 -0.0315625 5.0184375 0 0 Z " fill="#2A64F1" transform="translate(239,117)"/>
<path d="M0 0 C0.72264813 0.00223072 1.44529626 0.00446144 2.18984282 0.00675976 C2.95220484 0.00519977 3.71456686 0.00363978 4.50003076 0.00203252 C7.0741951 -0.0019805 9.64830125 0.00121335 12.22246611 0.00434887 C14.06008752 0.00299494 15.89770865 0.00121506 17.73532927 -0.00096118 C22.7415169 -0.00553715 27.74768403 -0.00374512 32.75387204 -0.0005821 C37.98287541 0.00194143 43.21187698 -0.00039609 48.44088042 -0.00196826 C57.22598903 -0.0037903 66.01108924 -0.00138309 74.79619658 0.00337231 C84.96232694 0.00881162 95.12843724 0.00705482 105.29456711 0.00154591 C114.00963807 -0.00298828 122.72470299 -0.00363417 131.43977475 -0.00101542 C136.65060986 0.0005461 141.86143553 0.00074458 147.07227004 -0.00255191 C151.97233391 -0.00543493 156.87237186 -0.00344695 161.77243292 0.00234234 C163.57401228 0.00366776 165.3755938 0.0032795 167.1771723 0.00107968 C169.6305629 -0.00164041 172.08386971 0.00175996 174.53725493 0.00675976 C175.61453496 0.00341368 175.61453496 0.00341368 176.71357822 0 C179.75529639 0.01207768 182.07941837 0.16337202 184.99053252 1.13374341 C184.99053252 4.10374341 184.99053252 7.07374341 184.99053252 10.13374341 C184.66053252 10.13374341 184.33053252 10.13374341 183.99053252 10.13374341 C183.99053252 7.82374341 183.99053252 5.51374341 183.99053252 3.13374341 C121.62053252 3.13374341 59.25053252 3.13374341 -5.00946748 3.13374341 C-4.67946748 8.08374341 -4.34946748 13.03374341 -4.00946748 18.13374341 C-4.33946748 18.13374341 -4.66946748 18.13374341 -5.00946748 18.13374341 C-5.89755846 14.32763924 -6.14408578 10.78877273 -6.13446748 6.88374341 C-6.13704561 5.82671216 -6.13962373 4.76968091 -6.14227998 3.68061841 C-5.90872662 -0.79811083 -3.99816853 0.01600251 0 0 Z " fill="#D8E8FB" transform="translate(149.00946748256683,49.8662565946579)"/>
<path d="M0 0 C61.38 0 122.76 0 186 0 C186 1.32 186 2.64 186 4 C162.48688662 4.02335039 138.97377498 4.04098972 115.46065235 4.05181217 C104.54334437 4.05697057 93.62604359 4.06400461 82.70874023 4.07543945 C73.19429589 4.08540019 63.67985677 4.09185675 54.16540736 4.09408849 C49.12663578 4.09539323 44.08787912 4.09846417 39.04911232 4.10573006 C34.30746921 4.11251216 29.56584718 4.11461247 24.82419968 4.11310768 C23.08312427 4.11338302 21.34204816 4.11537516 19.60097694 4.11920547 C17.22486952 4.12417689 14.8488418 4.12298551 12.47273254 4.12025452 C11.78303511 4.12316736 11.09333768 4.1260802 10.38274032 4.12908131 C6.79551839 4.11792925 3.48930494 3.84528573 0 3 C0 2.01 0 1.02 0 0 Z " fill="#2B4BE6" transform="translate(145,54)"/>
<path d="M0 0 C39.27 0 78.54 0 119 0 C119 0.33 119 0.66 119 1 C61.58 1.99 61.58 1.99 3 3 C3.66 9.27 4.32 15.54 5 22 C34.37 22 63.74 22 94 22 C94 33 94 33 92 36 C91.92670204 31.60212211 91.92603934 28.29584263 93 24 C62.97 24 32.94 24 2 24 C0 7 0 7 0 0 Z " fill="#CEE1FD" transform="translate(179,92)"/>
<path d="M0 0 C2.59940317 3.89910475 1.98639276 6.7414255 1.56640625 11.19921875 C1.49375046 12.06606293 1.42109467 12.9329071 1.34623718 13.82601929 C1.0956999 16.78087078 0.82901016 19.73404936 0.5625 22.6875 C0.38088847 24.79020159 0.20025499 26.89298783 0.02050781 28.99584961 C-0.45192835 34.48879802 -0.93581636 39.98067126 -1.42306709 45.47232342 C-2.15629755 53.74687463 -2.87357236 62.02281155 -3.5925312 70.29861259 C-5.37990914 90.86707416 -7.18576949 111.43389128 -9 132 C-16.17998254 134.42508164 -23.39797751 136.61381416 -30.6875 138.6875 C-31.88834229 139.02982666 -33.08918457 139.37215332 -34.32641602 139.72485352 C-43.6758561 142.37431408 -53.04869587 144.93134817 -62.4375 147.4375 C-63.08488129 147.61066742 -63.73226257 147.78383484 -64.39926147 147.96224976 C-75.89318987 151.03178125 -75.89318987 151.03178125 -81 152 C-81 151.34 -81 150.68 -81 150 C-79.22882813 149.49339844 -79.22882813 149.49339844 -77.421875 148.9765625 C-75.86452471 148.52624434 -74.30723627 148.07571229 -72.75 147.625 C-71.97269531 147.40328125 -71.19539062 147.1815625 -70.39453125 146.953125 C-69.64042969 146.73398437 -68.88632812 146.51484375 -68.109375 146.2890625 C-67.07248535 145.99056396 -67.07248535 145.99056396 -66.01464844 145.68603516 C-63.94884542 145.0397467 -63.94884542 145.0397467 -61.94628906 143.92724609 C-59.26184242 142.64832884 -56.93020426 142.8668089 -54 143 C-54 142.34 -54 141.68 -54 141 C-53.32453125 140.95101562 -52.6490625 140.90203125 -51.953125 140.8515625 C-50.61507813 140.73941406 -50.61507813 140.73941406 -49.25 140.625 C-47.92742187 140.52058594 -47.92742187 140.52058594 -46.578125 140.4140625 C-44.02128677 140.13552764 -44.02128677 140.13552764 -42 139 C-39.54208296 137.77104148 -37.48006649 137.59053156 -34.75 137.375 C-33.85796875 137.30023438 -32.9659375 137.22546875 -32.046875 137.1484375 C-31.37140625 137.09945312 -30.6959375 137.05046875 -30 137 C-30 136.34 -30 135.68 -30 135 C-28.14703165 134.51622009 -26.29255559 134.03821364 -24.4375 133.5625 C-23.40496094 133.29566406 -22.37242187 133.02882812 -21.30859375 132.75390625 C-17.88469757 131.97372684 -14.48106475 131.45214334 -11 131 C-10.96241577 130.08504761 -10.96241577 130.08504761 -10.92407227 129.15161133 C-10.8075942 126.37172102 -10.68510368 123.5921266 -10.5625 120.8125 C-10.52318359 119.85279297 -10.48386719 118.89308594 -10.44335938 117.90429688 C-10.40146484 116.97294922 -10.35957031 116.04160156 -10.31640625 115.08203125 C-10.27974854 114.22843018 -10.24309082 113.3748291 -10.20532227 112.49536133 C-9.99463356 109.9347796 -9.50757207 107.51610361 -9 105 C-8.95698411 102.60455286 -8.95961234 100.20799289 -9 97.8125 C-9.11043566 91.22087133 -9.11043566 91.22087133 -8 89 C-7.79243503 86.16327881 -7.62592736 83.34036163 -7.5 80.5 C-7.13513514 72.27027027 -7.13513514 72.27027027 -6 70 C-5.79021983 68.47144556 -5.63175558 66.93568402 -5.5 65.3984375 C-5.4179834 64.44388672 -5.3359668 63.48933594 -5.25146484 62.50585938 C-5.16848145 61.47267578 -5.08549805 60.43949219 -5 59.375 C-4.86972412 57.79041992 -4.86972412 57.79041992 -4.73681641 56.17382812 C-3.84132302 44.79618986 -3.37589165 33.40510263 -3 22 C-2.67 22 -2.34 22 -2 22 C-1.34 14.74 -0.68 7.48 0 0 Z " fill="#3653BB" transform="translate(326,114)"/>
<path d="M0 0 C2.97 0.495 2.97 0.495 6 1 C6 3.62113708 5.68707555 5.50935112 5 8 C4.34 8 3.68 8 3 8 C3.1546875 8.68320313 3.309375 9.36640625 3.46875 10.0703125 C4.06341269 13.34970234 4.2996624 16.5479648 4.5 19.875 C4.5825 21.18984375 4.665 22.5046875 4.75 23.859375 C4.87578705 25.93289595 5.00038978 28.00648616 5.125 30.08007812 C5.24724564 32.09522106 5.37357584 34.1101149 5.5 36.125 C5.5721875 37.32382813 5.644375 38.52265625 5.71875 39.7578125 C5.92925218 42.90429665 5.92925218 42.90429665 6.52514648 45.57104492 C7.06756905 48.34562698 7.11276943 50.91211741 7.09765625 53.73828125 C7.09443359 54.80498047 7.09121094 55.87167969 7.08789062 56.97070312 C7.07951172 58.07349609 7.07113281 59.17628906 7.0625 60.3125 C7.05798828 61.43462891 7.05347656 62.55675781 7.04882812 63.71289062 C7.03707313 66.4753151 7.02064077 69.23762998 7 72 C7.66 72 8.32 72 9 72 C9.59168628 76.58556868 10.02565588 81.00052765 10 85.625 C9.97132444 91.13787626 10.21395931 96.62064944 10.5 102.125 C10.54769531 103.08148438 10.59539062 104.03796875 10.64453125 105.0234375 C10.76081333 107.34907911 10.87933246 109.67458253 11 112 C11.99 112 12.98 112 14 112 C14.1458651 116.5307408 14.28806531 121.0615794 14.42724609 125.5925293 C14.47480532 127.12543646 14.52326976 128.65831588 14.57275391 130.19116211 C14.92508426 141.13137907 15.06239381 152.05422011 15 163 C14.67 163 14.34 163 14 163 C13.45920942 157.99591601 12.92685653 152.99101425 12.40087891 147.98535156 C12.22261287 146.2986078 12.04240978 144.61206713 11.85986328 142.92578125 C10.67403206 131.95518625 9.77516619 120.99388351 9.08984375 109.98046875 C8.37231332 98.57601922 7.42212667 87.21202615 6.30859375 75.83984375 C6.2331282 75.06785896 6.15766266 74.29587418 6.07991028 73.50049591 C5.46013917 67.17732113 4.82937468 60.85525216 4.19702148 54.5333252 C3.64499185 49.01106932 3.09761345 43.48838565 2.55859375 37.96484375 C2.48526196 37.21403912 2.41193016 36.46323448 2.33637619 35.68967819 C1.18442517 23.80580069 0.35089416 11.93652666 0 0 Z " fill="#3A56BF" transform="translate(144,56)"/>
<path d="M0 0 C0.33 0 0.66 0 1 0 C1.21768478 8.98554414 0.9262222 17.63256999 -0.28637695 26.54150391 C-1.05529479 32.53699422 -1.15042727 38.43007151 -1.01367188 44.46850586 C-0.94465619 47.86711752 -1.15768956 50.72794789 -2 54 C-2.06831987 56.4157906 -2.08487642 58.83334713 -2.0625 61.25 C-2.05347656 62.51328125 -2.04445313 63.7765625 -2.03515625 65.078125 C-2.02355469 66.04234375 -2.01195312 67.0065625 -2 68 C-2.66 68 -3.32 68 -4 68 C-4.03758423 69.41478638 -4.03758423 69.41478638 -4.07592773 70.8581543 C-4.17129809 74.37128663 -4.27051725 77.88426708 -4.37231445 81.3972168 C-4.41551548 82.91507755 -4.45720048 84.43298226 -4.49731445 85.95092773 C-4.55537812 88.13799259 -4.61896656 90.32483918 -4.68359375 92.51171875 C-4.72025146 93.82615967 -4.75690918 95.14060059 -4.79467773 96.49487305 C-4.96760636 99.44699698 -5.32160714 102.12950496 -6 105 C-6.66 105 -7.32 105 -8 105 C-7.94199219 105.61488281 -7.88398438 106.22976562 -7.82421875 106.86328125 C-7.68744532 109.31347963 -7.67097108 111.56691774 -8 114 C-11.54402658 117.54402658 -17.14433838 118.26166147 -22 119 C-23.32 119 -24.64 119 -26 119 C-26.495 120.485 -26.495 120.485 -27 122 C-28.37671875 122.16435547 -28.37671875 122.16435547 -29.78125 122.33203125 C-36.65880576 123.22062301 -42.60147384 124.3720339 -49 127 C-53.34887505 128.04373001 -56.63002672 127.93642285 -61 127 C-61 126.67 -61 126.34 -61 126 C-59.75271118 125.74585327 -59.75271118 125.74585327 -58.48022461 125.48657227 C-49.42168491 123.59861632 -40.49179327 121.35750518 -31.5625 118.9375 C-30.24031774 118.58237176 -28.91805228 118.22755315 -27.59570312 117.87304688 C-21.71718264 116.29209246 -15.85025309 114.68217399 -10 113 C-9.22606156 105.04437882 -8.46330875 97.08769886 -7.72265625 89.12890625 C-7.62568199 88.10374657 -7.62568199 88.10374657 -7.52674866 87.05787659 C-6.96085517 80.93232132 -6.61718835 74.8039229 -6.3046875 68.66015625 C-5.71024418 58.59839657 -4.59457179 48.56208825 -3.62742615 38.52999878 C-2.90869717 31.07358957 -2.21092001 23.61525213 -1.51409912 16.1567688 C-1.19373751 12.72944267 -0.87221178 9.30222604 -0.55078125 5.875 C-0.44419189 4.73804687 -0.33760254 3.60109375 -0.2277832 2.4296875 C-0.15261475 1.62789063 -0.07744629 0.82609375 0 0 Z " fill="#436BCC" transform="translate(297,100)"/>
<path d="M0 0 C28.71 0 57.42 0 87 0 C87 0.33 87 0.66 87 1 C79.37486062 1.2646137 71.7496039 1.52560294 64.12419415 1.78230286 C60.58118932 1.90168049 57.0382311 2.02218204 53.49536133 2.14550781 C26.40178149 3.08700422 26.40178149 3.08700422 14.76953125 3.125 C14.0185466 3.12959229 13.26756195 3.13418457 12.49382019 3.13891602 C9.07873017 3.12880225 6.34754409 2.83688602 3 2 C3.33 8.93 3.66 15.86 4 23 C30.4 23 56.8 23 84 23 C84 23.33 84 23.66 84 24 C56.94 24 29.88 24 2 24 C0 7 0 7 0 0 Z " fill="#CBDDFA" transform="translate(183,140)"/>
<path d="M0 0 C0.66 0.33 1.32 0.66 2 1 C2 1.66 2 2.32 2 3 C2.99 3 3.98 3 5 3 C5.53432315 42.20698846 5.53432315 42.20698846 2 58 C0 55 0 55 0 53 C-0.66 53 -1.32 53 -2 53 C-2.33 50.69 -2.66 48.38 -3 46 C-2.34 46 -1.68 46 -1 46 C-0.97315688 43.18743719 -0.95323812 40.37512759 -0.9375 37.5625 C-0.92912109 36.76005859 -0.92074219 35.95761719 -0.91210938 35.13085938 C-0.9034857 33.08704779 -0.9477185 31.04316098 -1 29 C-1.33 28.67 -1.66 28.34 -2 28 C-2.15786308 26.14825294 -2.25107356 24.2909089 -2.31640625 22.43359375 C-2.35830078 21.30888672 -2.40019531 20.18417969 -2.44335938 19.02539062 C-2.48267578 17.84138672 -2.52199219 16.65738281 -2.5625 15.4375 C-2.60568359 14.24962891 -2.64886719 13.06175781 -2.69335938 11.83789062 C-2.79983546 8.89205216 -2.90184841 5.9461257 -3 3 C-2.01 3 -1.02 3 0 3 C0 2.01 0 1.02 0 0 Z " fill="#2B50DB" transform="translate(326,59)"/>
<path d="M0 0 C27.39 0 54.78 0 83 0 C81 24 81 24 80 31 C77.03 31.66 74.06 32.32 71 33 C71 32.34 71 31.68 71 31 C73.31 30.01 75.62 29.02 78 28 C78.33 22.72 78.66 17.44 79 12 C78.34 12 77.68 12 77 12 C77 13.98 77 15.96 77 18 C76.34 18.33 75.68 18.66 75 19 C74.86390533 10.83431953 74.86390533 10.83431953 76 7 C76 6.01 76 5.02 76 4 C76.66 3.67 77.32 3.34 78 3 C60.69090262 2.13177147 43.39005821 1.71732676 26.0625 1.4375 C23.5175734 1.39415654 20.97265147 1.3505382 18.42773438 1.30664062 C12.2852062 1.20127157 6.14263003 1.09924437 0 1 C0 0.67 0 0.34 0 0 Z " fill="#3F69D5" transform="translate(185,164)"/>
<path d="M0 0 C8.67402772 1.34466369 16.96418019 3.58010915 25.375 6.0625 C27.84063346 6.78430461 30.30676054 7.50442577 32.7734375 8.22265625 C33.85028809 8.53984619 34.92713867 8.85703613 36.03662109 9.18383789 C38.68147279 9.9122725 41.30332527 10.50314564 44 11 C44 11.66 44 12.32 44 13 C35.42 13 26.84 13 18 13 C19 11 19 11 22 9 C17.02275917 7.00910367 12.23541297 5.48997713 6.98046875 4.4296875 C5 4 5 4 2 3 C2 2.34 2 1.68 2 1 C1.34 0.67 0.68 0.34 0 0 Z " fill="#F7FBFD" transform="translate(190,255)"/>
<path d="M0 0 C0.99 0 1.98 0 3 0 C3.34203078 2.29038472 3.67313452 4.58240187 4 6.875 C4.185625 8.15117187 4.37125 9.42734375 4.5625 10.7421875 C5.0485119 15.47212473 5 20.24515892 5 25 C12.59 25 20.18 25 28 25 C28 25.33 28 25.66 28 26 C27.10692139 26.03758423 27.10692139 26.03758423 26.19580078 26.07592773 C23.50530864 26.19177494 20.8151766 26.31455196 18.125 26.4375 C16.71927734 26.49647461 16.71927734 26.49647461 15.28515625 26.55664062 C14.38925781 26.59853516 13.49335938 26.64042969 12.5703125 26.68359375 C11.32918701 26.73858032 11.32918701 26.73858032 10.06298828 26.79467773 C7.93820571 26.88238327 7.93820571 26.88238327 6 28 C4.12620395 28.07033769 2.24998898 28.0843022 0.375 28.0625 C-0.62789062 28.05347656 -1.63078125 28.04445312 -2.6640625 28.03515625 C-3.43492187 28.02355469 -4.20578125 28.01195312 -5 28 C-5 26.68 -5 25.36 -5 24 C-2.69 24 -0.38 24 2 24 C1.85786703 22.10388566 1.71113093 20.20811606 1.5625 18.3125 C1.48128906 17.25675781 1.40007812 16.20101562 1.31640625 15.11328125 C1.03548319 12.34913703 0.59843148 9.71054259 0 7 C-0.99 7.495 -0.99 7.495 -2 8 C-2 6.02 -2 4.04 -2 2 C-1.34 2 -0.68 2 0 2 C0 1.34 0 0.68 0 0 Z " fill="#2D50CB" transform="translate(180,140)"/>
<path d="M0 0 C1.9354248 -0.38095093 1.9354248 -0.38095093 4.32617188 -0.38818359 C5.66766296 -0.40236832 5.66766296 -0.40236832 7.03625488 -0.4168396 C8.00397827 -0.41076691 8.97170166 -0.40469421 9.96875 -0.3984375 C10.95999878 -0.40130768 11.95124756 -0.40417786 12.97253418 -0.40713501 C15.0707252 -0.40917878 17.16893514 -0.40362713 19.26708984 -0.39111328 C22.48708516 -0.37506437 25.70582518 -0.39095174 28.92578125 -0.41015625 C30.96094028 -0.40817387 32.99609853 -0.40433032 35.03125 -0.3984375 C36.48283508 -0.40754654 36.48283508 -0.40754654 37.96374512 -0.4168396 C38.85807251 -0.40738312 39.7523999 -0.39792664 40.67382812 -0.38818359 C41.85724792 -0.38460342 41.85724792 -0.38460342 43.0645752 -0.38095093 C43.70326538 -0.25523712 44.34195557 -0.12952332 45 0 C45.66 0.99 46.32 1.98 47 3 C44.58208596 4.20895702 43.15503275 4.08661844 40.45849609 4.02172852 C39.04725967 3.99158409 39.04725967 3.99158409 37.60751343 3.96083069 C36.58976837 3.93379562 35.57202332 3.90676056 34.5234375 3.87890625 C33.48305328 3.85529526 32.44266907 3.83168427 31.37075806 3.80735779 C28.03870356 3.73061424 24.70687525 3.64663584 21.375 3.5625 C19.11980284 3.50929003 16.86459455 3.45654956 14.609375 3.40429688 C9.07277587 3.27498468 3.53634553 3.13972768 -2 3 C-1.34 2.01 -0.68 1.02 0 0 Z " fill="#2867E6" transform="translate(242,84)"/>
<path d="M0 0 C1.93242285 3.34520258 2.5463853 6.44767482 3.125 10.25 C3.29257813 11.32765625 3.46015625 12.4053125 3.6328125 13.515625 C3.75398437 14.33546875 3.87515625 15.1553125 4 16 C4.66 16 5.32 16 6 16 C6.33 17.98 6.66 19.96 7 22 C7.88353149 22.20363159 7.88353149 22.20363159 8.78491211 22.41137695 C11.50349497 23.04062676 14.22048291 23.67652484 16.9375 24.3125 C18.32678711 24.63250977 18.32678711 24.63250977 19.74414062 24.95898438 C24.94440591 26.18150288 29.99194166 27.57143887 35.0234375 29.37109375 C37.99275746 30.31587737 40.90664322 30.67091949 44 31 C44 31.99 44 32.98 44 34 C29.84915285 30.86618103 15.93248515 26.98406929 2 23 C-0.29612756 7.25512528 -0.29612756 7.25512528 0 0 Z " fill="#3854BA" transform="translate(159,224)"/>
<path d="M0 0 C30.03 0 60.06 0 91 0 C90.67 5.61 90.34 11.22 90 17 C87.47519307 14.47519307 87.44261367 12.86176966 86.875 9.375 C86.70742188 8.37210938 86.53984375 7.36921875 86.3671875 6.3359375 C86.24601562 5.56507812 86.12484375 4.79421875 86 4 C86.66 4 87.32 4 88 4 C88 3.01 88 2.02 88 1 C58.96 1 29.92 1 0 1 C0 0.67 0 0.34 0 0 Z " fill="#4164C3" transform="translate(181,116)"/>
<path d="M0 0 C0 0.66 0 1.32 0 2 C-3 4 -3 4 -7 4 C-6.34 5.65 -5.68 7.3 -5 9 C-13.25 9 -21.5 9 -30 9 C-30 8.34 -30 7.68 -30 7 C-25.75222625 5.82512185 -21.50144326 4.661523 -17.25 3.5 C-16.0434375 3.16613281 -14.836875 2.83226562 -13.59375 2.48828125 C-11.85351562 2.01455078 -11.85351562 2.01455078 -10.078125 1.53125 C-9.00981445 1.23798828 -7.94150391 0.94472656 -6.84082031 0.64257812 C-4 0 -4 0 0 0 Z " fill="#E9F2FA" transform="translate(273,259)"/>
<path d="M0 0 C0.99 0.33 1.98 0.66 3 1 C2.83701416 1.71333496 2.67402832 2.42666992 2.50610352 3.16162109 C2.00239754 5.98655391 1.88600007 8.54813453 1.90234375 11.4140625 C1.90556641 12.42210937 1.90878906 13.43015625 1.91210938 14.46875 C1.92048828 15.5103125 1.92886719 16.551875 1.9375 17.625 C1.94201172 18.67429688 1.94652344 19.72359375 1.95117188 20.8046875 C1.95988117 22.74561702 1.97064526 24.68653919 1.98413086 26.62744141 C1.99610898 28.41826202 2 30.20913932 2 32 C1.34 31.67 0.68 31.34 0 31 C-0.226875 31.639375 -0.45375 32.27875 -0.6875 32.9375 C-2 35 -2 35 -4.5 35.875 C-5.325 35.91625 -6.15 35.9575 -7 36 C-7.66 35.34 -8.32 34.68 -9 34 C-6.03 33.505 -6.03 33.505 -3 33 C-2.95101563 32.04222656 -2.90203125 31.08445313 -2.8515625 30.09765625 C-2.29761138 20.00627888 -1.27782425 10.02409703 0 0 Z " fill="#FBF9FC" transform="translate(268,162)"/>
<path d="M0 0 C7.59 0 15.18 0 23 0 C23.81720493 3.26881973 24.11073543 5.46999069 24.0625 8.75 C24.05347656 9.54921875 24.04445312 10.3484375 24.03515625 11.171875 C24.02355469 11.77515625 24.01195312 12.3784375 24 13 C23.34 13 22.68 13 22 13 C21.505 8.05 21.505 8.05 21 3 C16.05 3 11.1 3 6 3 C5.67 4.98 5.34 6.96 5 9 C3 7 3 7 2.875 3.875 C2.91625 2.92625 2.9575 1.9775 3 1 C2.34 1 1.68 1 1 1 C1 4.63 1 8.26 1 12 C0.67 12 0.34 12 0 12 C0 8.04 0 4.08 0 0 Z " fill="#E0E4FA" transform="translate(187,176)"/>
<path d="M0 0 C0.99 0 1.98 0 3 0 C3.1458651 4.5307408 3.28806531 9.0615794 3.42724609 13.5925293 C3.47480532 15.12543646 3.52326976 16.65831588 3.57275391 18.19116211 C3.92508426 29.13137907 4.06239381 40.05422011 4 51 C3.67 51 3.34 51 3 51 C2.42571424 45.5744506 1.85620641 40.14842822 1.29101562 34.72192383 C1.09830085 32.87803795 0.90430788 31.03428518 0.70898438 29.19067383 C0.4275801 26.53240843 0.15085849 23.87368968 -0.125 21.21484375 C-0.21249512 20.39789536 -0.29999023 19.58094696 -0.39013672 18.73924255 C-0.86319058 14.1300906 -1.08665599 9.63338747 -1 5 C-0.01 6.485 -0.01 6.485 1 8 C1.08226668 4.95613276 0.97608217 2.92824652 0 0 Z " fill="#3F5BC8" transform="translate(155,168)"/>
<path d="M0 0 C0.91644287 0.00523682 1.83288574 0.01047363 2.77709961 0.01586914 C3.76645508 0.0190918 4.75581055 0.02231445 5.77514648 0.02563477 C6.81606445 0.03401367 7.85698242 0.04239258 8.92944336 0.05102539 C10.49662109 0.05779297 10.49662109 0.05779297 12.09545898 0.06469727 C14.68600996 0.07652627 17.27644895 0.0930085 19.86694336 0.11352539 C19.86694336 0.44352539 19.86694336 0.77352539 19.86694336 1.11352539 C12.93694336 1.11352539 6.00694336 1.11352539 -1.13305664 1.11352539 C-0.80305664 4.35165039 -0.47305664 7.58977539 -0.13305664 10.92602539 C0.59733812 18.33741758 1.18120394 25.65856611 0.86694336 33.11352539 C-0.12305664 33.11352539 -1.11305664 33.11352539 -2.13305664 33.11352539 C-2.3003165 28.57475278 -2.46091117 24.03581295 -2.61523438 19.49658203 C-2.66872284 17.95126949 -2.72405732 16.40601973 -2.78125 14.86083984 C-2.86297098 12.64442488 -2.93812834 10.42787155 -3.01196289 8.21118164 C-3.03899796 7.51638199 -3.06603302 6.82158234 -3.09388733 6.10572815 C-3.14606772 4.44242763 -3.14490771 2.777602 -3.13305664 1.11352539 C-2.13305664 0.11352539 -2.13305664 0.11352539 0 0 Z " fill="#3F5BBF" transform="translate(188.133056640625,174.886474609375)"/>
<path d="M0 0 C2.97 0.495 2.97 0.495 6 1 C6 3.62113708 5.68707555 5.50935112 5 8 C4.34 8 3.68 8 3 8 C3.16371094 8.62261719 3.32742187 9.24523437 3.49609375 9.88671875 C4.19534902 14.20692382 4.10484393 18.44456045 4.0625 22.8125 C4.05798828 23.69615234 4.05347656 24.57980469 4.04882812 25.49023438 C4.03709866 27.66018559 4.01916495 29.83010172 4 32 C3.34 32 2.68 32 2 32 C1.34 21.44 0.68 10.88 0 0 Z " fill="#3353CD" transform="translate(144,56)"/>
<path d="M0 0 C0.33 0 0.66 0 1 0 C1.05828635 4.20827473 1.093693 8.41644489 1.125 12.625 C1.15013672 14.40970703 1.15013672 14.40970703 1.17578125 16.23046875 C1.18222656 17.38417969 1.18867188 18.53789063 1.1953125 19.7265625 C1.20578613 20.78439941 1.21625977 21.84223633 1.22705078 22.93212891 C0.98113365 26.25491889 0.16754106 28.88961026 -1 32 C-1.37125 33.11375 -1.7425 34.2275 -2.125 35.375 C-2.41375 36.24125 -2.7025 37.1075 -3 38 C-3.33 38 -3.66 38 -4 38 C-3.50749333 28.83678371 -2.84371482 19.70013504 -2 10.5625 C-1.9170166 9.63284424 -1.8340332 8.70318848 -1.74853516 7.74536133 C-1.66651855 6.88193115 -1.58450195 6.01850098 -1.5 5.12890625 C-1.4278125 4.35619385 -1.355625 3.58348145 -1.28125 2.78735352 C-1 1 -1 1 0 0 Z " fill="#F1F7FD" transform="translate(331,90)"/>
<path d="M0 0 C5.2584002 0.67415387 10.02638346 2.24265549 15 4 C15 4.66 15 5.32 15 6 C15.92232422 5.94779297 15.92232422 5.94779297 16.86328125 5.89453125 C17.67152344 5.86746094 18.47976562 5.84039062 19.3125 5.8125 C20.51326172 5.76029297 20.51326172 5.76029297 21.73828125 5.70703125 C24 6 24 6 25.79296875 7.38671875 C27 9 27 9 27 11 C26.34 11 25.68 11 25 11 C25 10.34 25 9.68 25 9 C23.88625 8.88785156 22.7725 8.77570313 21.625 8.66015625 C16.62303449 8.03491056 11.85394077 6.76841924 7 5.4375 C6.12988281 5.20353516 5.25976562 4.96957031 4.36328125 4.72851562 C2.24085272 4.15709256 0.11986406 3.58085043 -2 3 C-1.34 2.67 -0.68 2.34 0 2 C0 1.34 0 0.68 0 0 Z " fill="#415AC0" transform="translate(209,257)"/>
<path d="M0 0 C2.64 0 5.28 0 8 0 C8 0.66 8 1.32 8 2 C3.81963104 3.12303294 -0.36128996 4.24398036 -4.54272461 5.36303711 C-5.96377494 5.74365537 -7.3846755 6.12483327 -8.80541992 6.5065918 C-10.8529569 7.05666565 -12.90103216 7.60469433 -14.94921875 8.15234375 C-16.17987061 8.48226318 -17.41052246 8.81218262 -18.6784668 9.15209961 C-21.44467906 9.85824111 -24.19461867 10.47617361 -27 11 C-27 10.34 -27 9.68 -27 9 C-25.81921875 8.66226562 -24.6384375 8.32453125 -23.421875 7.9765625 C-21.86452471 7.52624434 -20.30723627 7.07571229 -18.75 6.625 C-17.97269531 6.40328125 -17.19539062 6.1815625 -16.39453125 5.953125 C-15.64042969 5.73398437 -14.88632812 5.51484375 -14.109375 5.2890625 C-13.41811523 5.09006348 -12.72685547 4.89106445 -12.01464844 4.68603516 C-9.94884542 4.0397467 -9.94884542 4.0397467 -7.94628906 2.92724609 C-5.26184242 1.64832884 -2.93020426 1.8668089 0 2 C0 1.34 0 0.68 0 0 Z " fill="#3753BE" transform="translate(272,255)"/>
<path d="M0 0 C0.33 0 0.66 0 1 0 C1 1.98 1 3.96 1 6 C3.54101562 6.63525391 3.54101562 6.63525391 6.08203125 7.27050781 C10.96614583 8.49153646 15.85026042 9.7125651 20.734375 10.93359375 C21.81203125 11.20300781 22.8896875 11.47242188 24 11.75 C25.66666667 12.16666667 27.33333333 12.58333333 29 13 C29 13.33 29 13.66 29 14 C22.83738625 14.34737071 17.95782329 13.90526326 12.17578125 11.73828125 C8.77979806 10.5859638 5.57386618 10.25079763 2 10 C1.01 10.495 1.01 10.495 0 11 C0 7.37 0 3.74 0 0 Z " fill="#E0F0FD" transform="translate(211,189)"/>
<path d="M0 0 C0.33 0 0.66 0 1 0 C2.05408996 7.93416364 1.97938767 15.31586584 1.125 23.25 C1.03428223 24.09602783 0.94356445 24.94205566 0.85009766 25.8137207 C0.14239436 31.85760564 0.14239436 31.85760564 -1 33 C-1.07205511 34.68608966 -1.08386068 36.37500659 -1.0625 38.0625 C-1.05347656 38.98160156 -1.04445313 39.90070313 -1.03515625 40.84765625 C-1.02355469 41.55792969 -1.01195312 42.26820313 -1 43 C-1.99 43.495 -1.99 43.495 -3 44 C-3.25073752 34.31874567 -2.46586204 24.86540505 -1.5 15.25 C-1.35494178 13.76307215 -1.21040724 12.27609311 -1.06640625 10.7890625 C-0.71695601 7.19209974 -0.36048241 3.59587593 0 0 Z " fill="#D1E4FA" transform="translate(324,155)"/>
<path d="M0 0 C0.33 0 0.66 0 1 0 C1.1567564 7.71589817 0.67453101 15.31516461 0 23 C-5.08940744 25.05362055 -9.54520815 26.43179252 -15 27 C-15 26.34 -15 25.68 -15 25 C-9.555 23.515 -9.555 23.515 -4 22 C-3.67 20.68 -3.34 19.36 -3 18 C-2.67 17.67 -2.34 17.34 -2 17 C-1.78889481 14.51658199 -1.62405205 12.05043287 -1.5 9.5625 C-1.13428793 2.26857585 -1.13428793 2.26857585 0 0 Z " fill="#DDEEFD" transform="translate(288,190)"/>
<path d="M0 0 C9.61556329 1.391453 18.73809271 4.15519377 28 7 C25 9 25 9 21.5625 8.75 C18 8 18 8 16.0625 7.01953125 C13.8475837 5.92465785 11.85483008 5.4242382 9.4375 4.9375 C6.85979971 4.41152743 4.50492348 3.83497449 2 3 C2 2.34 2 1.68 2 1 C1.34 0.67 0.68 0.34 0 0 Z " fill="#E3EDFC" transform="translate(190,255)"/>
<path d="M0 0 C1.32 0 2.64 0 4 0 C4 4.95 4 9.9 4 15 C2.68 15.33 1.36 15.66 0 16 C0 10.72 0 5.44 0 0 Z " fill="#264BEC" transform="translate(218,176)"/>
<path d="M0 0 C0.66 0 1.32 0 2 0 C3.0712828 6.02596573 3.09945415 11.88909517 3 18 C5.31 18 7.62 18 10 18 C10 18.99 10 19.98 10 21 C3.25 20.125 3.25 20.125 1 19 C-0.01631395 14.69185156 -0.10751104 10.53608185 -0.0625 6.125 C-0.05347656 4.97257813 -0.04445312 3.82015625 -0.03515625 2.6328125 C-0.02355469 1.76398438 -0.01195312 0.89515625 0 0 Z " fill="#344DC6" transform="translate(211,176)"/>
<path d="M0 0 C4.95 0 9.9 0 15 0 C15 1.32 15 2.64 15 4 C10.05 4 5.1 4 0 4 C0 2.68 0 1.36 0 0 Z " fill="#2767E6" transform="translate(240,132)"/>
<path d="M0 0 C1.93242285 3.34520258 2.5463853 6.44767482 3.125 10.25 C3.29257813 11.32765625 3.46015625 12.4053125 3.6328125 13.515625 C3.75398437 14.33546875 3.87515625 15.1553125 4 16 C4.66 16 5.32 16 6 16 C6 17.98 6 19.96 6 22 C4.68 22 3.36 22 2 22 C-0.29612756 7.40318907 -0.29612756 7.40318907 0 0 Z " fill="#3555C6" transform="translate(159,224)"/>
<path d="M0 0 C0.33 0 0.66 0 1 0 C1.12224626 9.0598059 0.83930594 17.97746114 0 27 C-0.66 27 -1.32 27 -2 27 C-2.20871753 17.75845174 -2.14982548 9.0599788 0 0 Z " fill="#3853C4" transform="translate(329,85)"/>
<path d="M0 0 C0.33 0 0.66 0 1 0 C1.30221599 8.46204771 0.14920797 16.63745983 -1 25 C-3.97 25.66 -6.94 26.32 -10 27 C-10 26.34 -10 25.68 -10 25 C-7.69 24.01 -5.38 23.02 -3 22 C-2.86722656 20.74703125 -2.73445313 19.4940625 -2.59765625 18.203125 C-2.41941709 16.55206754 -2.2410236 14.90102673 -2.0625 13.25 C-1.93198242 12.0125 -1.93198242 12.0125 -1.79882812 10.75 C-1.66831055 9.55117187 -1.66831055 9.55117187 -1.53515625 8.328125 C-1.456604 7.5949707 -1.37805176 6.86181641 -1.29711914 6.10644531 C-1.0026123 4.01852006 -0.54882504 2.03447232 0 0 Z " fill="#3F67C2" transform="translate(266,170)"/>
<path d="M0 0 C-0.33 0.99 -0.66 1.98 -1 3 C-3.31 3 -5.62 3 -8 3 C-8 8.94 -8 14.88 -8 21 C-7.01 21.33 -6.02 21.66 -5 22 C-6.32 22 -7.64 22 -9 22 C-8.98428955 21.40461426 -8.9685791 20.80922852 -8.95239258 20.19580078 C-8.89014199 17.50562997 -8.85104217 14.81561043 -8.8125 12.125 C-8.78736328 11.18785156 -8.76222656 10.25070313 -8.73632812 9.28515625 C-8.72666016 8.38925781 -8.71699219 7.49335938 -8.70703125 6.5703125 C-8.6913208 5.74289551 -8.67561035 4.91547852 -8.65942383 4.06298828 C-8.77181396 3.38220215 -8.8842041 2.70141602 -9 2 C-9.99 1.34 -10.98 0.68 -12 0 C-7.74433453 -1.16063604 -4.3164922 -0.76173392 0 0 Z " fill="#F5F8F3" transform="translate(247,203)"/>
<path d="M0 0 C1.45903258 0.30921884 2.91720722 0.62248799 4.375 0.9375 C5.18710938 1.11152344 5.99921875 1.28554687 6.8359375 1.46484375 C9 2 9 2 11 3 C11 2.34 11 1.68 11 1 C12.65 1 14.3 1 16 1 C16 2.65 16 4.3 16 6 C4.47835991 4.07289294 4.47835991 4.07289294 -1 2 C-0.67 1.34 -0.34 0.68 0 0 Z " fill="#E0E2FB" transform="translate(213,218)"/>
<path d="M0 0 C0 0.66 0 1.32 0 2 C-9.51372259 6.63243635 -9.51372259 6.63243635 -14.125 5.25 C-15.07375 4.8375 -16.0225 4.425 -17 4 C-14.61228265 1.61228265 -13.77145486 1.68710776 -10.5 1.4375 C-6.70879284 1.1359267 -3.81436046 0 0 0 Z " fill="#FBF9EF" transform="translate(288,258)"/>
<path d="M0 0 C0 0.66 0 1.32 0 2 C-7.84669923 5.3289027 -15.5233607 7.81642271 -24 6 C-24 5.67 -24 5.34 -24 5 C-23.0821875 4.80664062 -22.164375 4.61328125 -21.21875 4.4140625 C-13.20806932 2.72726792 -13.20806932 2.72726792 -5.25 0.8125 C-2 0 -2 0 0 0 Z " fill="#5174D3" transform="translate(260,221)"/>
<path d="M0 0 C0.99 0 1.98 0 3 0 C3 5.28 3 10.56 3 16 C1.35649921 12.71299843 0.58678331 10.52069985 0 7 C-0.99 7.495 -0.99 7.495 -2 8 C-2 6.02 -2 4.04 -2 2 C-1.34 2 -0.68 2 0 2 C0 1.34 0 0.68 0 0 Z " fill="#2D4AD6" transform="translate(180,140)"/>
<path d="M0 0 C0.99 0 1.98 0 3 0 C2.67 5.28 2.34 10.56 2 16 C1.34 16 0.68 16 0 16 C-0.33 17.32 -0.66 18.64 -1 20 C-0.67 13.4 -0.34 6.8 0 0 Z " fill="#DBE8FD" transform="translate(332,64)"/>
<path d="M0 0 C0.33 0 0.66 0 1 0 C2.00700534 3.66242071 2.8187013 7.19805955 3 11 C0.9375 14.25 0.9375 14.25 -2 16 C-5.44616056 15.91985673 -6.5556104 15.4443896 -9 13 C-6.36 12.34 -3.72 11.68 -1 11 C-0.67 7.37 -0.34 3.74 0 0 Z " fill="#DDECFB" transform="translate(317,235)"/>
<path d="M0 0 C0.33 0 0.66 0 1 0 C1.05837668 3.70826651 1.09372277 7.4164137 1.125 11.125 C1.15013672 12.69507812 1.15013672 12.69507812 1.17578125 14.296875 C1.20929909 19.59269336 1.17213685 24.0571059 -1 29 C-1.33 29 -1.66 29 -2 29 C-1.41633235 19.32601916 -0.77749545 9.66079456 0 0 Z " fill="#D1E1FC" transform="translate(329,99)"/>
<path d="M0 0 C0.33 0 0.66 0 1 0 C1.33 5.28 1.66 10.56 2 16 C0.35 16.99 -1.3 17.98 -3 19 C-5.3125 18.1875 -5.3125 18.1875 -7 17 C-5.02 16.67 -3.04 16.34 -1 16 C-0.67 10.72 -0.34 5.44 0 0 Z " fill="#CFE0F8" transform="translate(266,179)"/>
<path d="M0 0 C2.31 0.33 4.62 0.66 7 1 C5.68 1.33 4.36 1.66 3 2 C3.33 3.98 3.66 5.96 4 8 C2.02 8.99 2.02 8.99 0 10 C-1.231394 6.30581799 -0.64432764 3.7943739 0 0 Z " fill="#2563F9" transform="translate(258,166)"/>
<path d="M0 0 C0.33 0 0.66 0 1 0 C1.39389482 10.76645841 0.18260948 21.31427866 -1 32 C-1.33 32 -1.66 32 -2 32 C-2.19412181 30.52168779 -2.38012131 29.04230684 -2.5625 27.5625 C-2.66691406 26.73878906 -2.77132813 25.91507813 -2.87890625 25.06640625 C-2.91886719 24.38449219 -2.95882813 23.70257813 -3 23 C-2.67 22.67 -2.34 22.34 -2 22 C-1.77285996 20.36933234 -1.60544914 18.73023997 -1.46484375 17.08984375 C-1.37783203 16.10048828 -1.29082031 15.11113281 -1.20117188 14.09179688 C-1.0706543 12.53041992 -1.0706543 12.53041992 -0.9375 10.9375 C-0.84662109 9.89271484 -0.75574219 8.84792969 -0.66210938 7.77148438 C-0.43739092 5.1813085 -0.2168769 2.59084233 0 0 Z " fill="#275BE9" transform="translate(305,184)"/>
<path d="M0 0 C0.66 0 1.32 0 2 0 C3.1710655 7.14349955 2.59295252 12.95678017 1 20 C0.67 20 0.34 20 0 20 C0 13.4 0 6.8 0 0 Z " fill="#2052DA" transform="translate(326,80)"/>
<path d="M0 0 C0.33 0 0.66 0 1 0 C1.33 5.61 1.66 11.22 2 17 C1.01 17 0.02 17 -1 17 C-1.02691685 14.54159395 -1.04679802 12.08348118 -1.0625 9.625 C-1.07087891 8.92632812 -1.07925781 8.22765625 -1.08789062 7.5078125 C-1.11328125 2.2265625 -1.11328125 2.2265625 0 0 Z " fill="#425CC4" transform="translate(179,99)"/>
<path d="M0 0 C-6.14937199 4.09958133 -13.6866043 5.48755971 -21 5 C-21 4.67 -21 4.34 -21 4 C-19.35 4 -17.7 4 -16 4 C-16 3.34 -16 2.68 -16 2 C-10.42932723 0.40837921 -5.78898419 -0.20674944 0 0 Z " fill="#5375D3" transform="translate(256,197)"/>
<path d="M0 0 C8.58 0 17.16 0 26 0 C26 2.31 26 4.62 26 7 C25.5359375 6.0409375 25.5359375 6.0409375 25.0625 5.0625 C24.1654837 3.06389179 24.1654837 3.06389179 23 2 C21.29436222 1.84259395 19.58272756 1.74906608 17.87109375 1.68359375 C16.83662109 1.64169922 15.80214844 1.59980469 14.73632812 1.55664062 C13.64771484 1.51732422 12.55910156 1.47800781 11.4375 1.4375 C10.34501953 1.39431641 9.25253906 1.35113281 8.12695312 1.30664062 C5.41810436 1.20017932 2.70916008 1.09816484 0 1 C0 0.67 0 0.34 0 0 Z " fill="#E7F6FE" transform="translate(272,93)"/>
<path d="M0 0 C1.21236328 0.02707031 1.21236328 0.02707031 2.44921875 0.0546875 C3.37154297 0.08949219 3.37154297 0.08949219 4.3125 0.125 C1.8988604 2.5386396 0.21414101 2.88032852 -3.0625 3.75 C-4.01898438 4.01039063 -4.97546875 4.27078125 -5.9609375 4.5390625 C-8.6875 5.125 -8.6875 5.125 -12.6875 5.125 C-12.6875 5.785 -12.6875 6.445 -12.6875 7.125 C-13.6775 6.795 -14.6675 6.465 -15.6875 6.125 C-15.0275 6.125 -14.3675 6.125 -13.6875 6.125 C-13.6875 5.465 -13.6875 4.805 -13.6875 4.125 C-12.2953125 3.691875 -12.2953125 3.691875 -10.875 3.25 C-1.54017857 -0.04464286 -1.54017857 -0.04464286 0 0 Z " fill="#294AD7" transform="translate(257.6875,258.875)"/>
<path d="M0 0 C5.2584002 0.67415387 10.02638346 2.24265549 15 4 C11.22628488 5.3357457 8.14168653 4.72408671 4.25 4.0625 C2.49429688 3.77052734 2.49429688 3.77052734 0.703125 3.47265625 C-0.18890625 3.31667969 -1.0809375 3.16070312 -2 3 C-1.34 2.67 -0.68 2.34 0 2 C0 1.34 0 0.68 0 0 Z " fill="#314FCB" transform="translate(209,257)"/>
<path d="M0 0 C6.0018137 -0.21824777 11.19233704 0.4943096 17 2 C17 2.99 17 3.98 17 5 C8.585 3.02 8.585 3.02 0 1 C0 0.67 0 0.34 0 0 Z " fill="#3450C2" transform="translate(186,253)"/>
<path d="M0 0 C-3.37220401 2.248136 -6.63804748 3.16868014 -10.5 4.1875 C-11.51513672 4.47270508 -11.51513672 4.47270508 -12.55078125 4.76367188 C-15.89960881 5.65867411 -17.64298405 6.11900532 -21 5 C-14.46169067 1.21466302 -7.5045717 -0.17390273 0 0 Z " fill="#3653B0" transform="translate(301,250)"/>
<path d="M0 0 C5.28 1.32 10.56 2.64 16 4 C15.01 4.495 15.01 4.495 14 5 C14 5.66 14 6.32 14 7 C12.02 6.34 10.04 5.68 8 5 C8 4.34 8 3.68 8 3 C5.36 2.67 2.72 2.34 0 2 C0 1.34 0 0.68 0 0 Z " fill="#DDEBFB" transform="translate(166,248)"/>
<path d="M0 0 C-0.33 1.32 -0.66 2.64 -1 4 C-4.3 4.33 -7.6 4.66 -11 5 C-10.67 4.01 -10.34 3.02 -10 2 C-8.22265625 1.26953125 -8.22265625 1.26953125 -6.0625 0.8125 C-4.99708984 0.57466797 -4.99708984 0.57466797 -3.91015625 0.33203125 C-2 0 -2 0 0 0 Z " fill="#3B68D5" transform="translate(271,218)"/>
<path d="M0 0 C0.33 0 0.66 0 1 0 C1 1.98 1 3.96 1 6 C4.3 6.66 7.6 7.32 11 8 C7.14705171 9.92647414 6.02536946 10.10593078 2 10 C1.01 10.495 1.01 10.495 0 11 C0 7.37 0 3.74 0 0 Z " fill="#CCD7F4" transform="translate(211,189)"/>
<path d="M0 0 C0.33 0.99 0.66 1.98 1 3 C-0.45505358 3.52992692 -1.91418127 4.0486789 -3.375 4.5625 C-4.59316406 4.99755859 -4.59316406 4.99755859 -5.8359375 5.44140625 C-8 6 -8 6 -10 5 C-10 4.01 -10 3.02 -10 2 C-9.04287109 1.90912109 -9.04287109 1.90912109 -8.06640625 1.81640625 C-6.82697266 1.69072266 -6.82697266 1.69072266 -5.5625 1.5625 C-4.73878906 1.48128906 -3.91507813 1.40007812 -3.06640625 1.31640625 C-1.01337975 1.21069185 -1.01337975 1.21069185 0 0 Z " fill="#2768F9" transform="translate(250,226)"/>
<path d="M0 0 C0.33 0 0.66 0 1 0 C1.18451025 13.6332574 1.18451025 13.6332574 0 20 C-1.92637348 16.79675827 -2.16375395 14.80879562 -1.6875 11.125 C-1.57921875 10.25359375 -1.4709375 9.3821875 -1.359375 8.484375 C-0.94902234 5.64758925 -0.51930203 2.81906817 0 0 Z " fill="#D9F0FC" transform="translate(292,144)"/>
<path d="M0 0 C1.485 0.99 1.485 0.99 3 2 C3.36328125 4.49609375 3.36328125 4.49609375 3.3125 7.4375 C3.30863281 8.40558594 3.30476562 9.37367187 3.30078125 10.37109375 C3 13 3 13 1 16 C0.67 10.72 0.34 5.44 0 0 Z " fill="#D5E0FD" transform="translate(179,93)"/>
<path d="M0 0 C4.62 0 9.24 0 14 0 C14 0.66 14 1.32 14 2 C7.565 2.495 7.565 2.495 1 3 C0.67 2.01 0.34 1.02 0 0 Z " fill="#2151D8" transform="translate(224,230)"/>
<path d="M0 0 C5.445 1.485 5.445 1.485 11 3 C7.8104857 3.79737858 4.99754847 4.26338369 1.75 4.5625 C0.85796875 4.64628906 -0.0340625 4.73007813 -0.953125 4.81640625 C-1.96632812 4.90728516 -1.96632812 4.90728516 -3 5 C-3 4.34 -3 3.68 -3 3 C-2.01 3 -1.02 3 0 3 C0 2.01 0 1.02 0 0 Z " fill="#2B4DCA" transform="translate(210,219)"/>
<path d="M0 0 C0.66 0 1.32 0 2 0 C2.07347656 1.26457031 2.07347656 1.26457031 2.1484375 2.5546875 C2.22320312 3.65039062 2.29796875 4.74609375 2.375 5.875 C2.44460937 6.96554688 2.51421875 8.05609375 2.5859375 9.1796875 C2.73253491 12.13046474 2.73253491 12.13046474 5 14 C3.35 13.67 1.7 13.34 0 13 C0 8.71 0 4.42 0 0 Z " fill="#CEDDFC" transform="translate(189,200)"/>
<path d="M0 0 C0.33 0 0.66 0 1 0 C1.11381955 6.76594019 0.88021369 13.28837062 0 20 C-0.33 20 -0.66 20 -1 20 C-1.88701576 12.80798031 -2.26613747 6.93171463 0 0 Z " fill="#DAF0FB" transform="translate(295,112)"/>
<path d="M0 0 C-0.66 1.32 -1.32 2.64 -2 4 C-2.99 4 -3.98 4 -5 4 C-5 3.34 -5 2.68 -5 2 C-7.64 2.33 -10.28 2.66 -13 3 C-10.85642985 0.85642985 -9.92072889 0.52040399 -7.0625 -0.1875 C-6.37285156 -0.36667969 -5.68320312 -0.54585937 -4.97265625 -0.73046875 C-3 -1 -3 -1 0 0 Z " fill="#E0ECFA" transform="translate(301,252)"/>
<path d="M0 0 C5.22179824 0.54966297 10.02984035 1.2756589 15 3 C15.33 3.66 15.66 4.32 16 5 C9.99666876 5.6319296 5.36595205 3.37544123 0 1 C0 0.67 0 0.34 0 0 Z " fill="#3A55BE" transform="translate(189,214)"/>
<path d="M0 0 C1.22589844 0.01353516 1.22589844 0.01353516 2.4765625 0.02734375 C3.41628906 0.04474609 3.41628906 0.04474609 4.375 0.0625 C4.045 1.0525 3.715 2.0425 3.375 3.0625 C0.735 3.3925 -1.905 3.7225 -4.625 4.0625 C-5.285 3.0725 -5.945 2.0825 -6.625 1.0625 C-4.21954362 -0.14022819 -2.67503047 -0.03821472 0 0 Z " fill="#2D4CEB" transform="translate(226.625,193.9375)"/>
<path d="M0 0 C1.65 0 3.3 0 5 0 C5 0.66 5 1.32 5 2 C5.99 2 6.98 2 8 2 C8 2.99 8 3.98 8 5 C5.36 4.67 2.72 4.34 0 4 C0 2.68 0 1.36 0 0 Z " fill="#2250D9" transform="translate(288,246)"/>
<path d="M0 0 C2.64 0 5.28 0 8 0 C8 0.66 8 1.32 8 2 C10.97 2.495 10.97 2.495 14 3 C14 3.33 14 3.66 14 4 C12.41632253 3.85795259 10.83306682 3.71119847 9.25 3.5625 C8.36828125 3.48128906 7.4865625 3.40007812 6.578125 3.31640625 C4.30649548 3.03761535 2.20148177 2.61209423 0 2 C0 1.34 0 0.68 0 0 Z " fill="#3A5AC0" transform="translate(224,197)"/>
<path d="M0 0 C0.99 0.33 1.98 0.66 3 1 C2.7834375 1.99 2.7834375 1.99 2.5625 3 C1.87700084 6.65599551 1.43824485 10.30622195 1 14 C0.34 14 -0.32 14 -1 14 C-1.18451025 4.58997722 -1.18451025 4.58997722 0 0 Z " fill="#DDEFF6" transform="translate(268,162)"/>
<path d="M0 0 C0.33 0 0.66 0 1 0 C2.51708428 14.78132118 2.51708428 14.78132118 0 21 C-0.33 21 -0.66 21 -1 21 C-0.67 14.07 -0.34 7.14 0 0 Z " fill="#C8DDF9" transform="translate(326,131)"/>
<path d="M0 0 C0 0.33 0 0.66 0 1 C-1.65 1.33 -3.3 1.66 -5 2 C-5.33 4.97 -5.66 7.94 -6 11 C-6.66 10.67 -7.32 10.34 -8 10 C-8.625 6.9375 -8.625 6.9375 -9 4 C-8.34 4 -7.68 4 -7 4 C-7 3.34 -7 2.68 -7 2 C-7.66 1.67 -8.32 1.34 -9 1 C-5.64919071 -1.10976881 -3.77897651 -1.0497157 0 0 Z " fill="#2F4DC3" transform="translate(185,90)"/>
<path d="M0 0 C-2.85478326 1.90318884 -4.41941308 2.4619099 -7.6875 3.125 C-8.49574219 3.29257813 -9.30398437 3.46015625 -10.13671875 3.6328125 C-10.75160156 3.75398437 -11.36648437 3.87515625 -12 4 C-12.33 3.34 -12.66 2.68 -13 2 C-8.3683343 -1.61848883 -5.49434694 -1.02436977 0 0 Z " fill="#E4F4FE" transform="translate(261,220)"/>
<path d="M0 0 C0.99 0.33 1.98 0.66 3 1 C3.33 3.31 3.66 5.62 4 8 C2.68 8.33 1.36 8.66 0 9 C0 6.03 0 3.06 0 0 Z " fill="#244FD4" transform="translate(182,208)"/>
<path d="M0 0 C0.33 0 0.66 0 1 0 C1.33 6.27 1.66 12.54 2 19 C-1.96216969 13.05674546 -0.99294563 6.73675421 0 0 Z " fill="#D4E0FD" transform="translate(150,131)"/>
<path d="M0 0 C0.66 0 1.32 0 2 0 C2.625 2.375 2.625 2.375 3 5 C2.34 5.66 1.68 6.32 1 7 C0.01 7 -0.98 7 -2 7 C-2.125 4.625 -2.125 4.625 -2 2 C-1.34 1.34 -0.68 0.68 0 0 Z " fill="#FDFCED" transform="translate(267,195)"/>
<path d="M0 0 C0.33 0 0.66 0 1 0 C1.06058594 0.71027344 1.12117187 1.42054688 1.18359375 2.15234375 C1.26738281 3.07144531 1.35117188 3.99054688 1.4375 4.9375 C1.51871094 5.85402344 1.59992188 6.77054688 1.68359375 7.71484375 C1.76044976 9.96159732 1.76044976 9.96159732 3 11 C2.82364548 13.69082872 2.38164079 16.32851446 2 19 C1.67 19 1.34 19 1 19 C0.15976812 14.64667264 -0.10770995 10.55557481 -0.0625 6.125 C-0.05347656 4.97257813 -0.04445312 3.82015625 -0.03515625 2.6328125 C-0.02355469 1.76398438 -0.01195312 0.89515625 0 0 Z " fill="#2B49BE" transform="translate(154,160)"/>
<path d="M0 0 C0.66 0 1.32 0 2 0 C2.96070434 2.88211302 3.10581883 4.69850044 3.0625 7.6875 C3.05347656 8.49574219 3.04445312 9.30398437 3.03515625 10.13671875 C3.02355469 10.75160156 3.01195312 11.36648437 3 12 C2.34 12 1.68 12 1 12 C0.67 8.04 0.34 4.08 0 0 Z " fill="#DDE7FD" transform="translate(208,177)"/>
<path d="M0 0 C1.98 0 3.96 0 6 0 C5.67 1.32 5.34 2.64 5 4 C3.02 4 1.04 4 -1 4 C-0.67 2.68 -0.34 1.36 0 0 Z " fill="#2C46F5" transform="translate(176,168)"/>
<path d="M0 0 C6.6 0.33 13.2 0.66 20 1 C20 1.33 20 1.66 20 2 C17.04213336 2.24798276 14.08538702 2.47411854 11.125 2.6875 C10.28324219 2.76033203 9.44148437 2.83316406 8.57421875 2.90820312 C7.76855469 2.96298828 6.96289062 3.01777344 6.1328125 3.07421875 C5.38918457 3.13182373 4.64555664 3.18942871 3.87939453 3.2487793 C3.25919434 3.16668213 2.63899414 3.08458496 2 3 C1.34 2.01 0.68 1.02 0 0 Z " fill="#2B4BF3" transform="translate(188,166)"/>
<path d="M0 0 C0.66 0.33 1.32 0.66 2 1 C1.67 3.97 1.34 6.94 1 10 C0.34 9.67 -0.32 9.34 -1 9 C-1.59355614 6.35139573 -1.74209269 3.70802678 -2 1 C-1.34 0.67 -0.68 0.34 0 0 Z " fill="#3046EF" transform="translate(181,207)"/>
<path d="M0 0 C1.53202706 0.25195908 3.05257128 0.57596777 4.5625 0.9375 C5.38878906 1.13214844 6.21507812 1.32679688 7.06640625 1.52734375 C8.02353516 1.76130859 8.02353516 1.76130859 9 2 C9 2.66 9 3.32 9 4 C1.25 3.25 1.25 3.25 -1 1 C-0.67 0.67 -0.34 0.34 0 0 Z " fill="#CAD8F8" transform="translate(213,218)"/>
<path d="M0 0 C0.66 0 1.32 0 2 0 C2.33 2.97 2.66 5.94 3 9 C2.01 9.33 1.02 9.66 0 10 C0 6.7 0 3.4 0 0 Z " fill="#2D4BC3" transform="translate(151,128)"/>
<path d="M0 0 C1.98 0.99 1.98 0.99 4 2 C3.67 3.65 3.34 5.3 3 7 C2.01 7 1.02 7 0 7 C0 4.69 0 2.38 0 0 Z " fill="#1F4FDC" transform="translate(176,115)"/>
<path d="M0 0 C4.95 0.99 4.95 0.99 10 2 C10 2.66 10 3.32 10 4 C7.69 4 5.38 4 3 4 C3 3.34 3 2.68 3 2 C2.01 2 1.02 2 0 2 C0 1.34 0 0.68 0 0 Z " fill="#D4E1FE" transform="translate(224,264)"/>
<path d="M0 0 C2.64 0.33 5.28 0.66 8 1 C7.67 1.99 7.34 2.98 7 4 C2.25 3.125 2.25 3.125 0 2 C0 1.34 0 0.68 0 0 Z " fill="#2451D2" transform="translate(173,243)"/>
<path d="M0 0 C3.85645121 -0.22036864 6.49223216 0.39644899 10 2 C10 2.33 10 2.66 10 3 C7.03 3 4.06 3 1 3 C0.67 2.01 0.34 1.02 0 0 Z " fill="#FCF9EC" transform="translate(192,259)"/>
<path d="M0 0 C1.43739513 -0.02712066 2.87493863 -0.04645067 4.3125 -0.0625 C5.51326172 -0.07990234 5.51326172 -0.07990234 6.73828125 -0.09765625 C9 0 9 0 12 1 C12 1.66 12 2.32 12 3 C10.18674449 2.88648483 8.37436643 2.75887039 6.5625 2.625 C5.04849609 2.52058594 5.04849609 2.52058594 3.50390625 2.4140625 C2.67761719 2.27742187 1.85132813 2.14078125 1 2 C0.67 1.34 0.34 0.68 0 0 Z " fill="#2549D8" transform="translate(187,251)"/>
<path d="M0 0 C0.33 0 0.66 0 1 0 C1.3125 3.3125 1.3125 3.3125 1 7 C-1.39740918 8.95578117 -2.87586608 10 -6 10 C-5.67 9.01 -5.34 8.02 -5 7 C-2.9375 6.3125 -2.9375 6.3125 -1 6 C-0.67 4.02 -0.34 2.04 0 0 Z " fill="#3B65CC" transform="translate(288,207)"/>
<path d="M0 0 C0.99 0 1.98 0 3 0 C2.4140625 6.15234375 2.4140625 6.15234375 2 8 C1.01 8.495 1.01 8.495 0 9 C0 6.03 0 3.06 0 0 Z " fill="#CEE3F4" transform="translate(332,64)"/>
<path d="M0 0 C1.32 0 2.64 0 4 0 C3.34 3.3 2.68 6.6 2 10 C1.67 10 1.34 10 1 10 C0.67 6.7 0.34 3.4 0 0 Z " fill="#254CEB" transform="translate(327,62)"/>
<path d="M0 0 C1.98 0 3.96 0 6 0 C6 1.32 6 2.64 6 4 C4.35 3.67 2.7 3.34 1 3 C0.67 2.01 0.34 1.02 0 0 Z " fill="#F7FAEE" transform="translate(168,251)"/>
<path d="M0 0 C1.65 0 3.3 0 5 0 C5.33 1.32 5.66 2.64 6 4 C4.35 4 2.7 4 1 4 C0.67 2.68 0.34 1.36 0 0 Z " fill="#284FF8" transform="translate(164,242)"/>
<path d="M0 0 C1.98 0.66 3.96 1.32 6 2 C5.01 2.99 4.02 3.98 3 5 C2.01 4.67 1.02 4.34 0 4 C0 2.68 0 1.36 0 0 Z " fill="#385BFA" transform="translate(239,233)"/>
<path d="M0 0 C2.64 0 5.28 0 8 0 C8 0.99 8 1.98 8 3 C5.6568787 2.74438677 3.32156597 2.40729228 1 2 C0.67 1.34 0.34 0.68 0 0 Z " fill="#3155B8" transform="translate(213,194)"/>
<path d="M0 0 C1.65 0 3.3 0 5 0 C4.67 1.32 4.34 2.64 4 4 C2.68 4 1.36 4 0 4 C0 2.68 0 1.36 0 0 Z " fill="#2967DD" transform="translate(264,128)"/>
<path d="M0 0 C0.33 0 0.66 0 1 0 C1.33 2.64 1.66 5.28 2 8 C1.34 8 0.68 8 0 8 C-0.33 9.32 -0.66 10.64 -1 12 C-1.14285714 3.42857143 -1.14285714 3.42857143 0 0 Z " fill="#2F5DE4" transform="translate(298,112)"/>
<path d="M0 0 C6.0546875 -0.1953125 6.0546875 -0.1953125 8 0 C8.66 0.66 9.32 1.32 10 2 C6.06329512 3.31223496 3.87511856 2.24296256 0 1 C0 0.67 0 0.34 0 0 Z " fill="#435FCB" transform="translate(186,253)"/>
<path d="M0 0 C0.99 0.33 1.98 0.66 3 1 C3.33 2.65 3.66 4.3 4 6 C2.68 6 1.36 6 0 6 C0 4.02 0 2.04 0 0 Z " fill="#2446CA" transform="translate(161,240)"/>
<path d="M0 0 C0.66 0.33 1.32 0.66 2 1 C2 1.99 2 2.98 2 4 C0.02 4 -1.96 4 -4 4 C-4 3.34 -4 2.68 -4 2 C-2.125 0.9375 -2.125 0.9375 0 0 Z " fill="#EAECDB" transform="translate(217,213)"/>
<path d="M0 0 C4.95 0.99 4.95 0.99 10 2 C10 2.33 10 2.66 10 3 C6.7 3 3.4 3 0 3 C0 2.01 0 1.02 0 0 Z " fill="#D8E6FE" transform="translate(230,200)"/>
<path d="M0 0 C0.66 0 1.32 0 2 0 C2.33 1.32 2.66 2.64 3 4 C1.02 4.99 1.02 4.99 -1 6 C-1.042721 4.33388095 -1.04063832 2.66617115 -1 1 C-0.67 0.67 -0.34 0.34 0 0 Z " fill="#2C66E1" transform="translate(291,80)"/>
<path d="M0 0 C1.32 0.33 2.64 0.66 4 1 C3.67 2.32 3.34 3.64 3 5 C2.01 4.67 1.02 4.34 0 4 C0 2.68 0 1.36 0 0 Z " fill="#2868E1" transform="translate(298,80)"/>
</svg>
