<?xml version="1.0" encoding="UTF-8"?>
<svg version="1.1" xmlns="http://www.w3.org/2000/svg" width="400" height="400">
<path d="M0 0 C132 0 264 0 400 0 C400 132 400 264 400 400 C268 400 136 400 0 400 C0 268 0 136 0 0 Z " fill="#121011" transform="translate(0,0)"/>
<path d="M0 0 C1.25167969 0.4125 2.50335938 0.825 3.79296875 1.25 C28.1348113 9.84567388 48.19266693 28.12994046 60 51 C66.79983427 65.61665255 70.19406895 78.82545454 70.24023438 94.94873047 C70.24984555 96.96755721 70.28089016 98.98532151 70.3125 101.00390625 C70.41154028 126.33345769 60.95483261 149.24734664 44 168 C43.17886719 168.91523438 42.35773438 169.83046875 41.51171875 170.7734375 C32.14647197 180.67978743 21.49547263 187.85267301 8.9375 193.125 C8.23544434 193.42051758 7.53338867 193.71603516 6.81005859 194.02050781 C2.73324563 195.62459612 -0.62655157 196.31385121 -5 196 C-7.63330744 192.09147998 -7.261538 187.91866234 -7.23828125 183.39453125 C-7.25370892 181.67121615 -7.27001313 179.94790872 -7.28710938 178.22460938 C-7.30350638 175.52350877 -7.31252756 172.82297207 -7.30541992 170.12182617 C-6.91972155 156.16630072 -6.91972155 156.16630072 -13 144 C-11.12586749 142.12586749 -7.82772813 142.28343376 -5.3125 141.875 C6.30351018 139.72171338 17.89730316 134.85434695 25 125 C32.47172419 111.68919059 34.53143397 95.81911343 31.56494141 80.796875 C30.16842932 76.03598152 28.11553857 72.21110044 24.765625 68.57421875 C23 66 23 66 23.23828125 63.1171875 C23.48964844 62.08851563 23.74101562 61.05984375 24 60 C24.3804241 52.37382384 24.33664642 45.30202007 22 38 C14.7647482 38.61315693 9.27149236 40.73959137 3 44.1875 C-3.73866573 47.82682419 -8.39510803 48.87065671 -16 47 C-21.40929013 45.87537453 -26.68559543 45.80859274 -32.1875 45.8125 C-33.12279541 45.81185547 -34.05809082 45.81121094 -35.02172852 45.81054688 C-41.55241493 45.86054256 -47.62510317 46.57403623 -54 48 C-59.23831095 48.71898386 -61.59616439 47.1940955 -65.80078125 44.375 C-72.47993846 40.1990438 -79.21346991 38.50235678 -87 38 C-87.90366812 43.42200874 -88.11010445 48.75850828 -88.125 54.25 C-88.12951172 54.94738281 -88.13402344 55.64476562 -88.13867188 56.36328125 C-88.13069557 59.1230835 -88.11706828 61.60751673 -87.32421875 64.265625 C-87 66 -87 66 -88.07421875 67.71875 C-88.60660156 68.3065625 -89.13898438 68.894375 -89.6875 69.5 C-97.16259383 78.97890686 -98.25057078 90.30702634 -97 102 C-95.34782292 113.65747933 -91.60027272 124.8859825 -82.0625 132.4375 C-75.4338104 137.084867 -68.28000617 139.73530785 -60.5 141.75 C-59.67757812 141.97042969 -58.85515625 142.19085938 -58.0078125 142.41796875 C-56.0072493 142.95300309 -54.00390337 143.47761493 -52 144 C-52.26554687 144.59167969 -52.53109375 145.18335938 -52.8046875 145.79296875 C-53.15789062 146.58316406 -53.51109375 147.37335938 -53.875 148.1875 C-54.24625 149.00734375 -54.6175 149.8271875 -55 150.671875 C-56.08105353 153.06464746 -56.08105353 153.06464746 -56.875 155.9375 C-58 158 -58 158 -60.375 159.3125 C-66.89818491 160.54965576 -73.32453285 161.26476629 -79.4375 158.375 C-82.24386352 155.77398015 -84.66402994 153.01669753 -87 150 C-91.66847168 143.98836469 -96.0470604 139.42720268 -103.9375 138.25 C-104.948125 138.1675 -105.95875 138.085 -107 138 C-105.67786944 142.09230888 -104.23270656 143.88853366 -100.8125 146.4375 C-95.55747765 150.84901956 -93.37218059 155.65424893 -90.703125 161.828125 C-87.81494086 167.20703675 -83.61877613 169.68829032 -77.95703125 171.47265625 C-71.39613928 172.64269643 -64.63677007 172.20573225 -58 172 C-57.94212216 175.62493334 -57.9064458 179.24974857 -57.875 182.875 C-57.85824219 183.90753906 -57.84148437 184.94007813 -57.82421875 186.00390625 C-57.81777344 186.99003906 -57.81132812 187.97617187 -57.8046875 188.9921875 C-57.79421387 189.90339355 -57.78374023 190.81459961 -57.77294922 191.75341797 C-58 194 -58 194 -60 196 C-74.34434821 196.4946327 -90.77392629 184.68812039 -101.125 175.75 C-121.84769407 156.37378843 -133.78904594 130.47673098 -135.18359375 102.2890625 C-135.71983754 72.196323 -125.59561058 46.15507457 -104.75 24.3125 C-77.66387327 -1.83444064 -35.95088741 -12.14813513 0 0 Z " fill="#FBFBFB" transform="translate(232,106)"/>
<path d="M0 0 C5.97923615 -0.76330674 9.09031511 0.79367945 13.93359375 4.29296875 C16.71370717 6.58958419 18.82963235 9.12572932 21 12 C22.00882529 13.25971117 23.03007881 14.50955364 24.0625 15.75 C24.52785156 16.32234375 24.99320313 16.8946875 25.47265625 17.484375 C28.07774982 20.06948064 30.13973505 20.92930971 33.8046875 21.23046875 C41.45035334 21.1410557 41.45035334 21.1410557 49 20 C49 20.66 49 21.32 49 22 C48.34 22 47.68 22 47 22 C47 22.66 47 23.32 47 24 C47.99 24 48.98 24 50 24 C48.625 25.5 48.625 25.5 47 27 C46.34 27 45.68 27 45 27 C43.98459888 31.10223585 43.98459888 31.10223585 45 35 C34.81507107 35.42502795 26.44363091 35.40619701 18.42993164 28.50512695 C15.97932529 25.92565143 14.66390285 22.88999148 13.1875 19.6875 C10.24073009 13.67360944 7.17338636 9.64429572 1.6875 5.61328125 C1.130625 5.08089844 0.57375 4.54851562 0 4 C0 2.68 0 1.36 0 0 Z " fill="#151414" transform="translate(125,244)"/>
<path d="M0 0 C0.66 2.31 1.32 4.62 2 7 C0.68 6.01 -0.64 5.02 -2 4 C-2.99 4.99 -3.98 5.98 -5 7 C-5.66 6.34 -6.32 5.68 -7 5 C-9.46049235 5.19985661 -9.46049235 5.19985661 -12.125 5.875 C-13.03507813 6.07867187 -13.94515625 6.28234375 -14.8828125 6.4921875 C-15.58148438 6.65976563 -16.28015625 6.82734375 -17 7 C-17.33 6.01 -17.66 5.02 -18 4 C-11.74827614 1.13035626 -6.90352555 -0.51137226 0 0 Z " fill="#181617" transform="translate(254,144)"/>
<path d="M0 0 C4.92908146 3.87792288 8.5423711 7.76116833 12 13 C10.25 14.125 10.25 14.125 8 15 C5.75 14.125 5.75 14.125 4 13 C4 12.01 4 11.02 4 10 C3.525625 9.5875 3.05125 9.175 2.5625 8.75 C0.21852827 6.12475166 0.32216704 3.41497058 0 0 Z " fill="#E5E4E5" transform="translate(270,129)"/>
<path d="M0 0 C9.41002278 -0.3690205 9.41002278 -0.3690205 14 2 C11 4 11 4 8.8125 3.625 C8.214375 3.41875 7.61625 3.2125 7 3 C6.67 3.66 6.34 4.32 6 5 C6 4.34 6 3.68 6 3 C5.34 3 4.68 3 4 3 C4 3.66 4 4.32 4 5 C3.01 5 2.02 5 1 5 C0.67 5.99 0.34 6.98 0 8 C-0.33 8 -0.66 8 -1 8 C-0.67 5.36 -0.34 2.72 0 0 Z " fill="#191718" transform="translate(145,144)"/>
<path d="M0 0 C0.99 0.33 1.98 0.66 3 1 C2.67 3.31 2.34 5.62 2 8 C1.01 8 0.02 8 -1 8 C-0.34 8.66 0.32 9.32 1 10 C-1.475 11.485 -1.475 11.485 -4 13 C-5 10 -5 10 -4.00390625 7.51953125 C-3.52824219 6.62621094 -3.05257812 5.73289063 -2.5625 4.8125 C-2.08941406 3.91144531 -1.61632812 3.01039063 -1.12890625 2.08203125 C-0.75636719 1.39496094 -0.38382812 0.70789063 0 0 Z " fill="#F2F0F1" transform="translate(109,155)"/>
<path d="M0 0 C0.82757813 0.49113281 0.82757813 0.49113281 1.671875 0.9921875 C4.38780923 2.16787715 6.30551759 2.20248638 9.25 2.125 C10.58804688 2.09792969 10.58804688 2.09792969 11.953125 2.0703125 C12.62859375 2.04710937 13.3040625 2.02390625 14 2 C14.33 2.99 14.66 3.98 15 5 C14.01 6.485 14.01 6.485 13 8 C12.34 8 11.68 8 11 8 C11 7.34 11 6.68 11 6 C10.34 6 9.68 6 9 6 C9 5.34 9 4.68 9 4 C7.02 4.66 5.04 5.32 3 6 C0.8614515 3.8614515 0.57344937 2.86724686 0 0 Z " fill="#1F1F1F" transform="translate(168,151)"/>
<path d="M0 0 C2.6855594 2.6855594 3.06049974 5.37621328 4 9 C3.34 9.66 2.68 10.32 2 11 C1.34 10.67 0.68 10.34 0 10 C0 9.01 0 8.02 0 7 C-0.99 7.99 -1.98 8.98 -3 10 C-2.67 8.68 -2.34 7.36 -2 6 C-2.66 6 -3.32 6 -4 6 C-4.33 4.35 -4.66 2.7 -5 1 C-4.34 1 -3.68 1 -3 1 C-2.67 1.99 -2.34 2.98 -2 4 C-1.01 4.33 -0.02 4.66 1 5 C0.67 3.35 0.34 1.7 0 0 Z " fill="#222122" transform="translate(102,238)"/>
<path d="M0 0 C0.66 0.66 1.32 1.32 2 2 C2.66 1.67 3.32 1.34 4 1 C4.66 1.66 5.32 2.32 6 3 C5.69972883 4.67293936 5.36442233 6.33985384 5 8 C5.33 8.99 5.66 9.98 6 11 C5.01 11.495 5.01 11.495 4 12 C2.02 9.03 0.04 6.06 -2 3 C-1 1 -1 1 0 0 Z " fill="#F1F1F1" transform="translate(257,169)"/>
<path d="M0 0 C3.375 -0.125 3.375 -0.125 7 0 C7.66 0.66 8.32 1.32 9 2 C7.02 2.99 7.02 2.99 5 4 C5 4.99 5 5.98 5 7 C3.0625 6.3125 3.0625 6.3125 1 5 C0.25 2.375 0.25 2.375 0 0 Z " fill="#2F2F2F" transform="translate(125,244)"/>
<path d="M0 0 C0.79921875 0.29648437 1.5984375 0.59296875 2.421875 0.8984375 C3.02515625 1.13820313 3.6284375 1.37796875 4.25 1.625 C3.92 2.285 3.59 2.945 3.25 3.625 C1.93 3.625 0.61 3.625 -0.75 3.625 C-0.75 2.965 -0.75 2.305 -0.75 1.625 C-3.06 2.285 -5.37 2.945 -7.75 3.625 C-8.08 2.635 -8.41 1.645 -8.75 0.625 C-5.33677284 -1.55132374 -3.73452846 -1.42790794 0 0 Z " fill="#1C1B1C" transform="translate(161.75,299.375)"/>
<path d="M0 0 C0.78375 0.04125 1.5675 0.0825 2.375 0.125 C2.705 0.785 3.035 1.445 3.375 2.125 C2.385 2.62 2.385 2.62 1.375 3.125 C1.705 3.785 2.035 4.445 2.375 5.125 C0.725 5.785 -0.925 6.445 -2.625 7.125 C-3.285 5.475 -3.945 3.825 -4.625 2.125 C-2.625 0.125 -2.625 0.125 0 0 Z " fill="#151515" transform="translate(133.625,245.875)"/>
<path d="M0 0 C1.32 0.66 2.64 1.32 4 2 C2.50079488 5.11373372 0.91847864 8.12228205 -1 11 C-1.66 11 -2.32 11 -3 11 C-3.66 9.35 -4.32 7.7 -5 6 C-4.34 5.67 -3.68 5.34 -3 5 C-2.67 5.66 -2.34 6.32 -2 7 C-0.37168238 5.19038423 -0.37168238 5.19038423 1 3 C0.67 2.01 0.34 1.02 0 0 Z " fill="#202020" transform="translate(141,252)"/>
<path d="M0 0 C0.99 0.99 1.98 1.98 3 3 C3.66 2.67 4.32 2.34 5 2 C5.99 4.31 6.98 6.62 8 9 C7.34 9.66 6.68 10.32 6 11 C4.98805294 9.92781799 3.99081943 8.84173622 3 7.75 C2.443125 7.14671875 1.88625 6.5434375 1.3125 5.921875 C0 4 0 4 0 0 Z " fill="#EFEEEF" transform="translate(120,266)"/>
<path d="M0 0 C0.66 0 1.32 0 2 0 C2.38897161 1.62171239 2.76078298 3.24754925 3.125 4.875 C3.33382812 5.77992188 3.54265625 6.68484375 3.7578125 7.6171875 C3.83773437 8.40351563 3.91765625 9.18984375 4 10 C3.34 10.66 2.68 11.32 2 12 C-1.2421875 4.00260417 -1.2421875 4.00260417 0 0 Z " fill="#212121" transform="translate(98,227)"/>
<path d="M0 0 C0.66 0.66 1.32 1.32 2 2 C0.70700306 4.88437779 -0.65941363 6.87219421 -3 9 C-4.32 8.34 -5.64 7.68 -7 7 C-4.69 4.69 -2.38 2.38 0 0 Z " fill="#E9E7E8" transform="translate(127,131)"/>
<path d="M0 0 C0.66 0.33 1.32 0.66 2 1 C2 1.66 2 2.32 2 3 C2.66 3.33 3.32 3.66 4 4 C0.7 4.66 -2.6 5.32 -6 6 C-6.33 5.01 -6.66 4.02 -7 3 C-4.69631264 1.93347808 -2.35981813 0.93578995 0 0 Z " fill="#1F1D1E" transform="translate(243,145)"/>
<path d="M0 0 C2.375 0.3125 2.375 0.3125 5 1 C5.66 1.99 6.32 2.98 7 4 C5.25 5.125 5.25 5.125 3 6 C0.75 5.125 0.75 5.125 -1 4 C-0.67 2.68 -0.34 1.36 0 0 Z " fill="#F0EEEF" transform="translate(275,138)"/>
<path d="M0 0 C1.32 0.66 2.64 1.32 4 2 C-0.455 4.97 -0.455 4.97 -5 8 C-5 6.68 -5 5.36 -5 4 C-2.5 1.75 -2.5 1.75 0 0 Z " fill="#1B191A" transform="translate(136,119)"/>
<path d="M0 0 C2.97 0.495 2.97 0.495 6 1 C5.42655063 3.86724686 5.1385485 4.8614515 3 7 C2.67 6.01 2.34 5.02 2 4 C1.01 3.67 0.02 3.34 -1 3 C-0.67 2.01 -0.34 1.02 0 0 Z " fill="#F3F3F3" transform="translate(275,264)"/>
<path d="M0 0 C0.66 0.66 1.32 1.32 2 2 C0.35 4.97 -1.3 7.94 -3 11 C-3.66 9.68 -4.32 8.36 -5 7 C-4.01 6.67 -3.02 6.34 -2 6 C-2.66 4.68 -3.32 3.36 -4 2 C-2.68 1.34 -1.36 0.68 0 0 Z " fill="#1E1D1D" transform="translate(112,146)"/>
<path d="M0 0 C2.475 0.99 2.475 0.99 5 2 C5 2.66 5 3.32 5 4 C3.0625 4.5625 3.0625 4.5625 1 5 C0.67 4.67 0.34 4.34 0 4 C-0.33 4.66 -0.66 5.32 -1 6 C-2.32 5.34 -3.64 4.68 -5 4 C-3.35 2.68 -1.7 1.36 0 0 Z " fill="#0B090A" transform="translate(258,290)"/>
<path d="M0 0 C0.66 0.33 1.32 0.66 2 1 C0.68 2.32 -0.64 3.64 -2 5 C-2.33 4.67 -2.66 4.34 -3 4 C-3.99 4.99 -4.98 5.98 -6 7 C-6.66 6.67 -7.32 6.34 -8 6 C-8 5.34 -8 4.68 -8 4 C-6.71349294 3.30289269 -5.42059335 2.61757124 -4.125 1.9375 C-3.40570313 1.55464844 -2.68640625 1.17179687 -1.9453125 0.77734375 C-1.30335938 0.52082031 -0.66140625 0.26429687 0 0 Z " fill="#E8E8E8" transform="translate(157,110)"/>
<path d="M0 0 C0.99 0 1.98 0 3 0 C4.6875 2 4.6875 2 6 4 C5.01 4.495 5.01 4.495 4 5 C3.67 5.99 3.34 6.98 3 8 C1.02 4.535 1.02 4.535 -1 1 C-0.67 0.67 -0.34 0.34 0 0 Z " fill="#1D1C1D" transform="translate(283,141)"/>
<path d="M0 0 C1.134375 0.020625 2.26875 0.04125 3.4375 0.0625 C3.4375 1.0525 3.4375 2.0425 3.4375 3.0625 C2.1175 3.0625 0.7975 3.0625 -0.5625 3.0625 C-0.8925 4.0525 -1.2225 5.0425 -1.5625 6.0625 C-2.5525 4.4125 -3.5425 2.7625 -4.5625 1.0625 C-3.5625 0.0625 -3.5625 0.0625 0 0 Z " fill="#E7E6E6" transform="translate(223.5625,248.9375)"/>
<path d="M0 0 C0.66 0 1.32 0 2 0 C2.66 1.98 3.32 3.96 4 6 C3.21625 5.814375 2.4325 5.62875 1.625 5.4375 C-0.97089775 4.74037734 -0.97089775 4.74037734 -3 6 C-2.67 4.68 -2.34 3.36 -2 2 C-1.34 2 -0.68 2 0 2 C0 1.34 0 0.68 0 0 Z " fill="#E8E8E8" transform="translate(292,161)"/>
<path d="M0 0 C3.91402949 1.26941497 5.79072873 2.51167694 8 6 C4.00095031 6 2.19799578 4.27413033 -1 2 C-0.67 1.34 -0.34 0.68 0 0 Z " fill="#252324" transform="translate(255,115)"/>
<path d="M0 0 C1.7074998 1.28062485 3.37373596 2.61767557 5 4 C5 4.66 5 5.32 5 6 C4.01 6.33 3.02 6.66 2 7 C1.34 6.67 0.68 6.34 0 6 C-0.6875 3.5 -0.6875 3.5 -1 1 C-0.67 0.67 -0.34 0.34 0 0 Z " fill="#242223" transform="translate(121,271)"/>
<path d="M0 0 C1.65 0 3.3 0 5 0 C5 0.66 5 1.32 5 2 C6.32 2.33 7.64 2.66 9 3 C8.67 3.66 8.34 4.32 8 5 C2.25 3.375 2.25 3.375 0 0 Z " fill="#202020" transform="translate(144,272)"/>
<path d="M0 0 C0.66 0 1.32 0 2 0 C2.12375 0.804375 2.2475 1.60875 2.375 2.4375 C2.684375 3.7059375 2.684375 3.7059375 3 5 C3.66 5.33 4.32 5.66 5 6 C2 7 2 7 0 7 C-0.99 7.495 -0.99 7.495 -2 8 C-1.34 5.36 -0.68 2.72 0 0 Z " fill="#222222" transform="translate(298,234)"/>
<path d="M0 0 C0 0.66 0 1.32 0 2 C-2.30368736 3.06652192 -4.64018187 4.06421005 -7 5 C-7.66 4.67 -8.32 4.34 -9 4 C-9 3.34 -9 2.68 -9 2 C-5.62902617 0.50178941 -3.79557881 0 0 0 Z " fill="#F2F0F1" transform="translate(236,147)"/>
<path d="M0 0 C2.6875 0.3125 2.6875 0.3125 5 1 C3.04783565 2.95216435 1.46800047 3.84826645 -1 5 C-1.66 4.34 -2.32 3.68 -3 3 C-1.8125 1.4375 -1.8125 1.4375 0 0 Z " fill="#1E1C1D" transform="translate(142,291)"/>
<path d="M0 0 C0.99 0 1.98 0 3 0 C2.40138258 2.35171131 1.73075648 4.6859378 1 7 C0.01 7.495 0.01 7.495 -1 8 C-0.67 5.36 -0.34 2.72 0 0 Z " fill="#272526" transform="translate(145,144)"/>
<path d="M0 0 C0.99 0.33 1.98 0.66 3 1 C1.35 2.65 -0.3 4.3 -2 6 C-2.66 5.34 -3.32 4.68 -4 4 C-2.68 2.68 -1.36 1.36 0 0 Z " fill="#E6E6E6" transform="translate(263,282)"/>
<path d="M0 0 C1.2065625 0.0309375 1.2065625 0.0309375 2.4375 0.0625 C2.1075 1.0525 1.7775 2.0425 1.4375 3.0625 C0.65375 3.206875 -0.13 3.35125 -0.9375 3.5 C-3.52671018 3.94048925 -3.52671018 3.94048925 -5.5625 5.0625 C-3.15007962 0.07683121 -3.15007962 0.07683121 0 0 Z " fill="#212121" transform="translate(284.5625,265.9375)"/>
<path d="M0 0 C2.40072955 2.88087546 4.47291037 5.56404834 6 9 C4.0625 8.25 4.0625 8.25 2 7 C1.375 4.9375 1.375 4.9375 1 3 C0.34 2.67 -0.32 2.34 -1 2 C-0.67 1.34 -0.34 0.68 0 0 Z " fill="#2B2A2B" transform="translate(110,255)"/>
<path d="M0 0 C0.99 0.33 1.98 0.66 3 1 C2.67 2.98 2.34 4.96 2 7 C1.01 7 0.02 7 -1 7 C-0.67 4.69 -0.34 2.38 0 0 Z " fill="#222222" transform="translate(136,185)"/>
</svg>
