<?xml version="1.0" encoding="UTF-8"?>
<svg version="1.1" xmlns="http://www.w3.org/2000/svg" width="474" height="266">
<path d="M0 0 C156.42 0 312.84 0 474 0 C474 87.78 474 175.56 474 266 C317.58 266 161.16 266 0 266 C0 178.22 0 90.44 0 0 Z " fill="#111110" transform="translate(0,0)"/>
<path d="M0 0 C1.23298828 -0.01160156 2.46597656 -0.02320313 3.73632812 -0.03515625 C14.16152859 -0.00211283 24.96155352 1.01029961 33.5625 7.375 C38.29439164 12.17015465 40.24857267 16.17582999 40.34487915 22.91148376 C40.32645966 23.82628006 40.30804016 24.74107635 40.2890625 25.68359375 C40.29055801 27.13282982 40.29055801 27.13282982 40.29208374 28.61134338 C40.28742549 30.64438142 40.2681054 32.67743349 40.23486328 34.71020508 C40.18768007 37.80070558 40.19375454 40.88774612 40.20703125 43.97851562 C40.19587463 45.96356199 40.18165292 47.94859397 40.1640625 49.93359375 C40.16679672 51.30275185 40.16679672 51.30275185 40.16958618 52.6995697 C40.03441282 58.8997281 38.84892036 64.04626814 35.5625 69.375 C28.52249368 75.34370101 21.3575061 75.65709323 12.5390625 75.6484375 C10.36197402 75.66872575 8.18489072 75.68957652 6.0078125 75.7109375 C2.59565846 75.73352154 -0.81629029 75.7500065 -4.22851562 75.75585938 C-7.53552818 75.76541169 -10.84163024 75.79921924 -14.1484375 75.8359375 C-15.16014008 75.83089203 -16.17184265 75.82584656 -17.21420288 75.82064819 C-24.09186321 75.91556566 -29.77916503 76.98135456 -34.95932007 81.78671265 C-39.29468871 86.67508742 -40.66178684 91.13003806 -40.8515625 97.55078125 C-40.89023438 98.70771484 -40.92890625 99.86464844 -40.96875 101.05664062 C-40.9996875 102.25482422 -41.030625 103.45300781 -41.0625 104.6875 C-41.10117188 105.90501953 -41.13984375 107.12253906 -41.1796875 108.37695312 C-41.27378002 111.37615228 -41.35942209 114.37534823 -41.4375 117.375 C-59.97891529 118.41019068 -59.97891529 118.41019068 -67.4375 112.375 C-76.87052734 102.69589369 -77.99571445 88.806855 -77.84204102 76.00415039 C-77.49340062 64.9113226 -75.63927477 54.88178009 -67.76953125 46.625 C-62.56038028 41.84132053 -57.55476708 40.116846 -50.43212891 40.14794922 C-49.27137848 40.14810028 -48.11062805 40.14825134 -46.91470337 40.14840698 C-45.67699188 40.15872955 -44.4392804 40.16905212 -43.1640625 40.1796875 C-41.24574112 40.18393234 -41.24574112 40.18393234 -39.28866577 40.18826294 C-35.90529901 40.1975398 -32.52220674 40.21547817 -29.13891602 40.2376709 C-25.67987426 40.25820959 -22.22080404 40.26728174 -18.76171875 40.27734375 C-11.98690386 40.299368 -5.21221776 40.33281882 1.5625 40.375 C1.5625 38.725 1.5625 37.075 1.5625 35.375 C-10.9775 35.375 -23.5175 35.375 -36.4375 35.375 C-36.52 31.683125 -36.6025 27.99125 -36.6875 24.1875 C-36.72391602 23.0322583 -36.76033203 21.8770166 -36.79785156 20.68676758 C-36.8798042 13.12795896 -36.8798042 13.12795896 -34.61328125 9.26953125 C-24.70867539 0.64523351 -12.62463424 -0.11841762 0 0 Z " fill="#8AE4D3" transform="translate(235.4375,54.625)"/>
<path d="M0 0 C19.54767501 -0.79967761 19.54767501 -0.79967761 25 4 C34.10282977 13.10282977 36.20158122 25.72836907 36.25 38.125 C36.23226538 49.77031471 34.48814623 60.67022151 27 70 C22.08684934 74.51676058 17.75463446 76.12736821 11.15161133 76.11352539 C9.35008354 76.11341209 9.35008354 76.11341209 7.51216125 76.11329651 C5.5667469 76.10555458 5.5667469 76.10555458 3.58203125 76.09765625 C2.24110466 76.09579077 0.90017739 76.09436748 -0.44075012 76.09336853 C-3.96709073 76.08955356 -7.49339004 76.07973199 -11.01971436 76.06866455 C-14.61925701 76.0584285 -18.21880635 76.05386621 -21.81835938 76.04882812 C-28.87892313 76.0381088 -35.93945887 76.02104462 -43 76 C-43 77.98 -43 79.96 -43 82 C-30.46 82 -17.92 82 -5 82 C-4.938125 85.361875 -4.87625 88.72375 -4.8125 92.1875 C-4.77153198 93.76374146 -4.77153198 93.76374146 -4.72973633 95.37182617 C-4.65238002 104.04654624 -4.65238002 104.04654624 -8 108 C-18.11723627 117.90755262 -33.53618938 117.32318849 -46.69262695 117.39160156 C-57.36226856 117.2581802 -69.01418603 115.78449093 -77 108 C-81.171204 102.11455639 -81.58004689 97.57361659 -81.49609375 90.46484375 C-81.49754898 89.46796036 -81.49900421 88.47107697 -81.50050354 87.44398499 C-81.49884994 85.34535791 -81.48734936 83.24671804 -81.46655273 81.14819336 C-81.43755857 77.94397296 -81.44596378 74.74140509 -81.45898438 71.53710938 C-81.45274736 69.4921795 -81.44435671 67.44725482 -81.43359375 65.40234375 C-81.43652939 64.449077 -81.43946503 63.49581024 -81.44248962 62.51365662 C-81.35603221 56.39337106 -80.55897028 51.96435171 -76.421875 47.171875 C-75.87015625 46.70265625 -75.3184375 46.2334375 -74.75 45.75 C-74.20859375 45.27046875 -73.6671875 44.7909375 -73.109375 44.296875 C-66.90256582 40.48083676 -60.21506533 40.73206494 -53.16796875 40.76171875 C-51.04882172 40.74629884 -48.92968097 40.72999519 -46.81054688 40.71289062 C-43.49945108 40.69646386 -40.18881864 40.68749718 -36.87768555 40.69458008 C-33.66142481 40.69721498 -30.4465441 40.66897701 -27.23046875 40.63671875 C-25.76591499 40.65202888 -25.76591499 40.65202888 -24.27177429 40.66764832 C-17.3599463 40.5704356 -11.67714523 39.09669516 -6 35 C-4.1688394 32.4430787 -2.99003994 29.97634648 -2 27 C-1.505 25.515 -1.505 25.515 -1 24 C-0.85110253 22.15533558 -0.7520899 20.30642725 -0.68359375 18.45703125 C-0.64169922 17.38388672 -0.59980469 16.31074219 -0.55664062 15.20507812 C-0.51732422 14.08552734 -0.47800781 12.96597656 -0.4375 11.8125 C-0.37272461 10.11577148 -0.37272461 10.11577148 -0.30664062 8.38476562 C-0.20050901 5.58996646 -0.09845615 2.79507838 0 0 Z " fill="#FBA371" transform="translate(280,94)"/>
<path d="M0 0 C19.54767501 -0.79967761 19.54767501 -0.79967761 25 4 C34.10282977 13.10282977 36.20158122 25.72836907 36.25 38.125 C36.23226538 49.77031471 34.48814623 60.67022151 27 70 C20.3991907 76.06825993 14.51086217 76.18207215 6 76.1875 C4.989375 76.19974609 3.97875 76.21199219 2.9375 76.22460938 C1.4834375 76.22750977 1.4834375 76.22750977 0 76.23046875 C-0.886875 76.23457764 -1.77375 76.23868652 -2.6875 76.24291992 C-5 76 -5 76 -8 74 C2.2 69.4 2.2 69.4 6.8125 70.9375 C7.534375 71.288125 8.25625 71.63875 9 72 C9.66 70.68 10.32 69.36 11 68 C9.515 67.505 9.515 67.505 8 67 C9 66 9 66 12.6875 65.8125 C16.4413853 65.84631879 19.49442596 66.59777039 23 68 C23.33 65.69 23.66 63.38 24 61 C24.66 61 25.32 61 26 61 C25.34 60.01 24.68 59.02 24 58 C23.60612212 55.67612053 23.26513915 53.34206251 23 51 C25.475 50.505 25.475 50.505 28 50 C27.34 44.72 26.68 39.44 26 34 C26.66 33.67 27.32 33.34 28 33 C28.43153817 30.77865558 28.43153817 30.77865558 28.5625 28.1875 C28.79281125 25.00544462 29.13286253 22.0743965 30 19 C27.7763932 17.7018576 27.7763932 17.7018576 24 18 C24.20625 17.071875 24.4125 16.14375 24.625 15.1875 C25.36692966 11.84826598 25.36692966 11.84826598 23 9 C19.91634129 8.7497843 19.91634129 8.7497843 17 9 C16.34 7.02 15.68 5.04 15 3 C12.03 2.505 12.03 2.505 9 2 C8.34 7.94 7.68 13.88 7 20 C6.01 20 5.02 20 4 20 C3.86722656 20.78246094 3.73445313 21.56492187 3.59765625 22.37109375 C3.42105469 23.38300781 3.24445313 24.39492187 3.0625 25.4375 C2.88847656 26.44683594 2.71445312 27.45617187 2.53515625 28.49609375 C2 31 2 31 1 32 C0.76712992 33.68183948 0.58735834 35.3712416 0.4375 37.0625 C0.35371094 37.98160156 0.26992188 38.90070313 0.18359375 39.84765625 C0.12300781 40.55792969 0.06242187 41.26820313 0 42 C-2.31 41.67 -4.62 41.34 -7 41 C-7.75 38.75 -7.75 38.75 -8 36 C-6.69026002 34.6434836 -5.35197858 33.31442362 -4 32 C-0.76438566 25.20441878 -0.46852047 18.95332092 -0.3125 11.5 C-0.27833984 10.39140625 -0.24417969 9.2828125 -0.20898438 8.140625 C-0.12711333 5.42718457 -0.05776596 2.71404253 0 0 Z " fill="#F2CB60" transform="translate(280,94)"/>
<path d="M0 0 C0 0.66 0 1.32 0 2 C0.66 2 1.32 2 2 2 C2 2.66 2 3.32 2 4 C1.01 4.33 0.02 4.66 -1 5 C-1.33 5.99 -1.66 6.98 -2 8 C-2.66 8 -3.32 8 -4 8 C-4 9.98 -4 11.96 -4 14 C-6.49092811 15.24546405 -7.41080733 14.7767578 -10 14 C-10 15.65 -10 17.3 -10 19 C-10.66 19 -11.32 19 -12 19 C-11.34 20.65 -10.68 22.3 -10 24 C-11.98 24.33 -13.96 24.66 -16 25 C-16.81434143 27.85160391 -17.11881242 30.36626131 -17.09765625 33.328125 C-17.09443359 34.12734375 -17.09121094 34.9265625 -17.08789062 35.75 C-17.07951172 36.575 -17.07113281 37.4 -17.0625 38.25 C-17.05798828 39.09046875 -17.05347656 39.9309375 -17.04882812 40.796875 C-17.03707961 42.86461401 -17.01914522 44.93231624 -17 47 C-15.68 47.33 -14.36 47.66 -13 48 C-13 48.99 -13 49.98 -13 51 C-11.515 50.505 -11.515 50.505 -10 50 C-10.66 51.98 -11.32 53.96 -12 56 C-11.34 56 -10.68 56 -10 56 C-10 58.64 -10 61.28 -10 64 C-7.36 64 -4.72 64 -2 64 C-2 64.99 -2 65.98 -2 67 C-2.99 67 -3.98 67 -5 67 C-3.51705372 69.63871944 -3.51705372 69.63871944 -1 72 C1.81239326 72.37398847 3.97592155 72.48293015 6.75 72.3125 C7.44738281 72.28994141 8.14476562 72.26738281 8.86328125 72.24414062 C10.57644935 72.18547048 12.28850623 72.09579256 14 72 C14.33 72.99 14.66 73.98 15 75 C15 68.07 15 61.14 15 54 C15.33 54 15.66 54 16 54 C16 61.26 16 68.52 16 76 C-2.83446023 76.79807035 -2.83446023 76.79807035 -10 71 C-19.43302734 61.32089369 -20.55821445 47.431855 -20.40454102 34.62915039 C-20.0586435 23.62359376 -18.30632045 13.22459707 -10.19140625 5.21484375 C-4.26152482 0 -4.26152482 0 0 0 Z " fill="#90EEB5" transform="translate(178,96)"/>
<path d="M0 0 C19.54767501 -0.79967761 19.54767501 -0.79967761 25 4 C33.57228688 12.57228688 36.07036027 24.45708302 36.18945312 36.20532227 C36.18880859 36.92131592 36.18816406 37.63730957 36.1875 38.375 C36.18814453 39.1187085 36.18878906 39.86241699 36.18945312 40.62866211 C36.13777329 46.00395268 35.50764178 50.81748138 34 56 C33.67 56 33.34 56 33 56 C33.00523682 55.23333008 33.01047363 54.46666016 33.01586914 53.67675781 C33.03666364 50.20118022 33.04966809 46.72561573 33.0625 43.25 C33.07506836 41.44015625 33.07506836 41.44015625 33.08789062 39.59375 C33.09111328 38.43359375 33.09433594 37.2734375 33.09765625 36.078125 C33.10289307 35.00981445 33.10812988 33.94150391 33.11352539 32.84082031 C33.01413214 30.35363782 32.63943037 28.3821055 32 26 C31.96111651 23.66699067 31.9551365 21.33290199 32 19 C29.36 18.67 26.72 18.34 24 18 C24.20625 17.071875 24.4125 16.14375 24.625 15.1875 C25.36692966 11.84826598 25.36692966 11.84826598 23 9 C19.91634129 8.7497843 19.91634129 8.7497843 17 9 C16.34 7.02 15.68 5.04 15 3 C12.03 2.505 12.03 2.505 9 2 C8.34 7.94 7.68 13.88 7 20 C6.01 20 5.02 20 4 20 C3.86722656 20.78246094 3.73445313 21.56492187 3.59765625 22.37109375 C3.42105469 23.38300781 3.24445313 24.39492187 3.0625 25.4375 C2.88847656 26.44683594 2.71445312 27.45617187 2.53515625 28.49609375 C2 31 2 31 1 32 C0.76712992 33.68183948 0.58735834 35.3712416 0.4375 37.0625 C0.35371094 37.98160156 0.26992188 38.90070313 0.18359375 39.84765625 C0.12300781 40.55792969 0.06242187 41.26820313 0 42 C-2.31 41.67 -4.62 41.34 -7 41 C-7.75 38.75 -7.75 38.75 -8 36 C-6.69026002 34.6434836 -5.35197858 33.31442362 -4 32 C-0.76438566 25.20441878 -0.46852047 18.95332092 -0.3125 11.5 C-0.27833984 10.39140625 -0.24417969 9.2828125 -0.20898438 8.140625 C-0.12711333 5.42718457 -0.05776596 2.71404253 0 0 Z " fill="#DDB96B" transform="translate(280,94)"/>
<path d="M0 0 C1.45008202 0.00424484 1.45008202 0.00424484 2.92945862 0.00857544 C5.99607077 0.01970843 9.0623834 0.04480026 12.12890625 0.0703125 C14.21679264 0.08035119 16.30468363 0.08947549 18.39257812 0.09765625 C23.49230169 0.11962523 28.5918033 0.15410743 33.69140625 0.1953125 C33.69140625 0.5253125 33.69140625 0.8553125 33.69140625 1.1953125 C21.81140625 1.1953125 9.93140625 1.1953125 -2.30859375 1.1953125 C-2.30859375 1.8553125 -2.30859375 2.5153125 -2.30859375 3.1953125 C-3.97921875 3.3190625 -3.97921875 3.3190625 -5.68359375 3.4453125 C-7.47796875 3.8165625 -7.47796875 3.8165625 -9.30859375 4.1953125 C-10.53387323 6.14552333 -10.53387323 6.14552333 -11.30859375 8.1953125 C-13.43359375 8.9453125 -13.43359375 8.9453125 -15.30859375 9.1953125 C-15.30859375 8.5353125 -15.30859375 7.8753125 -15.30859375 7.1953125 C-15.96859375 7.1953125 -16.62859375 7.1953125 -17.30859375 7.1953125 C-17.59734375 8.2678125 -17.88609375 9.3403125 -18.18359375 10.4453125 C-19.03679484 13.28931614 -19.87224405 15.63040233 -21.30859375 18.1953125 C-21.96859375 18.1953125 -22.62859375 18.1953125 -23.30859375 18.1953125 C-24.57337595 22.13819224 -24.5330377 26.14309064 -24.625 30.2421875 C-24.6457811 31.01338928 -24.66656219 31.78459106 -24.68797302 32.5791626 C-24.75317947 35.03445822 -24.81221859 37.48985771 -24.87109375 39.9453125 C-24.91430649 41.61329185 -24.95792165 43.28126082 -25.00195312 44.94921875 C-25.10883111 49.03114446 -25.21017941 53.11317432 -25.30859375 57.1953125 C-22.99859375 57.1953125 -20.68859375 57.1953125 -18.30859375 57.1953125 C-17.97859375 59.8353125 -17.64859375 62.4753125 -17.30859375 65.1953125 C-14.99859375 65.1953125 -12.68859375 65.1953125 -10.30859375 65.1953125 C-10.30859375 67.5053125 -10.30859375 69.8153125 -10.30859375 72.1953125 C-6.34859375 72.5253125 -2.38859375 72.8553125 1.69140625 73.1953125 C1.69140625 73.8553125 1.69140625 74.5153125 1.69140625 75.1953125 C8.29140625 75.1953125 14.89140625 75.1953125 21.69140625 75.1953125 C21.69140625 75.5253125 21.69140625 75.8553125 21.69140625 76.1953125 C-8.6868292 77.43190149 -8.6868292 77.43190149 -20.984375 69.4609375 C-25.34515316 65.21009492 -27.49720274 61.31786383 -27.81030273 55.27319336 C-27.82978084 53.40228144 -27.82678224 51.53103909 -27.8046875 49.66015625 C-27.80614273 48.66327286 -27.80759796 47.66638947 -27.80909729 46.63929749 C-27.80744369 44.54067041 -27.79594311 42.44203054 -27.77514648 40.34350586 C-27.74615232 37.13928546 -27.75455753 33.93671759 -27.76757812 30.73242188 C-27.76134111 28.687492 -27.75295046 26.64256732 -27.7421875 24.59765625 C-27.74512314 23.6443895 -27.74805878 22.69112274 -27.75108337 21.70896912 C-27.66462596 15.58868356 -26.86756403 11.15966421 -22.73046875 6.3671875 C-22.17875 5.89796875 -21.62703125 5.42875 -21.05859375 4.9453125 C-20.5171875 4.46578125 -19.97578125 3.98625 -19.41796875 3.4921875 C-13.35432564 -0.23583011 -6.88747744 -0.07675175 0 0 Z " fill="#CD8684" transform="translate(226.30859375,134.8046875)"/>
<path d="M0 0 C-0.41421969 4.83256305 -2.46413986 6.82679218 -6 10 C-4.01984674 10 -2.03863174 9.93863607 -0.0625 9.8125 C3 10 3 10 5.375 11.125 C7 13 7 13 7.5 15.75 C6.87281671 19.8266914 5.94258348 23.07220337 3 26 C-0.25291881 27.44800775 -3.51502254 28.30167436 -7 29 C-6.67 27.68 -6.34 26.36 -6 25 C-7.32 25 -8.64 25 -10 25 C-10.33 26.65 -10.66 28.3 -11 30 C-11.66 30 -12.32 30 -13 30 C-13.13277344 28.89140625 -13.26554688 27.7828125 -13.40234375 26.640625 C-13.58059757 25.1770673 -13.75899028 23.71352651 -13.9375 22.25 C-14.02451172 21.52039063 -14.11152344 20.79078125 -14.20117188 20.0390625 C-14.68234044 15.93070369 -14.68234044 15.93070369 -15.62719727 11.91308594 C-16 10 -16 10 -14.5 7.5 C-10.64086195 3.64086195 -5.58398803 0 0 0 Z " fill="#8BECCC" transform="translate(215,57)"/>
<path d="M0 0 C8.82864126 -0.67623635 16.34329789 0.9022707 23.4375 6.4375 C28.20126126 11.20126126 29.34639091 14.59382285 29.44248962 21.19659424 C29.43955399 22.12687439 29.43661835 23.05715454 29.43359375 24.015625 C29.4388356 24.98602722 29.44407745 25.95642944 29.44947815 26.95623779 C29.45589163 29.00711106 29.45457009 31.05802114 29.44604492 33.10888672 C29.43756634 36.22561337 29.46625546 39.34048696 29.49804688 42.45703125 C29.49965999 44.45572862 29.49907925 46.45442921 29.49609375 48.453125 C29.51294472 49.83639984 29.51294472 49.83639984 29.53013611 51.24761963 C29.46381614 57.49800115 28.32693067 62.63399142 25 68 C18.25893071 73.7152544 11.46984233 74.29134311 3.0078125 74.1953125 C1.58890213 74.19106766 1.58890213 74.19106766 0.1413269 74.18673706 C-2.86424694 74.17558932 -5.86951702 74.15049465 -8.875 74.125 C-10.91926651 74.11496321 -12.96353772 74.10583859 -15.0078125 74.09765625 C-20.00532444 74.07566767 -25.0026108 74.04117509 -30 74 C-30 73.67 -30 73.34 -30 73 C-28.94087402 72.98018066 -27.88174805 72.96036133 -26.79052734 72.93994141 C-22.843029 72.86359306 -18.89588527 72.77492175 -14.94873047 72.68261719 C-13.24372381 72.64444781 -11.53863994 72.60957434 -9.83349609 72.578125 C-7.37569674 72.53221164 -4.91842348 72.47426231 -2.4609375 72.4140625 C-1.70444916 72.40251129 -0.94796082 72.39096008 -0.16854858 72.37905884 C4.26004558 72.25689371 7.85852625 71.53407694 12 70 C14.875 69.875 14.875 69.875 17 70 C17.33 68.02 17.66 66.04 18 64 C19.98 64 21.96 64 24 64 C24.33 61.36 24.66 58.72 25 56 C25.66 56 26.32 56 27 56 C26.96447021 55.32646484 26.92894043 54.65292969 26.89233398 53.95898438 C26.22504793 40.88507938 25.73612306 28.04709888 27 15 C25.35 15.33 23.7 15.66 22 16 C22 15.34 22 14.68 22 14 C21.34 14 20.68 14 20 14 C19.67 14.66 19.34 15.32 19 16 C19 14.68 19 13.36 19 12 C18.24849977 8.72226496 18.24849977 8.72226496 15 7 C14.278125 7.165 13.55625 7.33 12.8125 7.5 C8.79416224 8.21437116 5.90589276 7.12542673 2 6 C2 4.35 2 2.7 2 1 C1.34 0.67 0.68 0.34 0 0 Z " fill="#98D4ED" transform="translate(246,56)"/>
<path d="M0 0 C0.33 0 0.66 0 1 0 C1 5.28 1 10.56 1 16 C0.67 14.68 0.34 13.36 0 12 C-0.66 12 -1.32 12 -2 12 C-1.94779297 13.12148437 -1.94779297 13.12148437 -1.89453125 14.265625 C-1.86746094 15.25046875 -1.84039062 16.2353125 -1.8125 17.25 C-1.76029297 18.71179688 -1.76029297 18.71179688 -1.70703125 20.203125 C-2.03924798 23.37468742 -2.88672279 24.67040307 -5 27 C-6.98 26.67 -8.96 26.34 -11 26 C-10.34 24.68 -9.68 23.36 -9 22 C-8.34 22 -7.68 22 -7 22 C-7 21.34 -7 20.68 -7 20 C-7.70125 20.350625 -8.4025 20.70125 -9.125 21.0625 C-12.56821198 22.18528652 -14.5406733 21.99936105 -18 21 C-20.46943529 17.29584707 -20.46913089 15.37855495 -20 11 C-18.4375 9 -18.4375 9 -16 8 C-12.25 8.3125 -12.25 8.3125 -9 9 C-10.72226496 5.75150023 -10.72226496 5.75150023 -14 5 C-13.67 3.68 -13.34 2.36 -13 1 C-10.8125 0.6875 -10.8125 0.6875 -8 1 C-5.1875 3.5 -5.1875 3.5 -3 6 C-2.34 5.67 -1.68 5.34 -1 5 C-0.34444881 2.47266765 -0.34444881 2.47266765 0 0 Z " fill="#F8AE63" transform="translate(272,177)"/>
<path d="M0 0 C1.6875587 0.04235213 3.37498064 0.09037788 5.06225586 0.14282227 C5.94868271 0.16643326 6.83510956 0.19004425 7.74839783 0.21437073 C10.59145347 0.29120415 13.43425007 0.37514322 16.27709961 0.45922852 C18.19961279 0.51242953 20.12213878 0.56517004 22.04467773 0.61743164 C26.76815039 0.74684577 31.49140249 0.8826347 36.21459961 1.02172852 C36.21459961 1.35172852 36.21459961 1.68172852 36.21459961 2.02172852 C23.67459961 2.02172852 11.13459961 2.02172852 -1.78540039 2.02172852 C-1.78540039 4.00172852 -1.78540039 5.98172852 -1.78540039 8.02172852 C10.75459961 8.02172852 23.29459961 8.02172852 36.21459961 8.02172852 C36.27647461 11.38360352 36.33834961 14.74547852 36.40209961 18.20922852 C36.44306763 19.78546997 36.44306763 19.78546997 36.48486328 21.39355469 C36.56221959 30.06827475 36.56221959 30.06827475 33.21459961 34.02172852 C26.95202571 40.15450814 19.20217289 42.1891107 10.65209961 42.20922852 C8.8391453 42.16169788 7.02628723 42.10449597 5.21459961 42.02172852 C5.21459961 41.69172852 5.21459961 41.36172852 5.21459961 41.02172852 C6.40698242 40.82836914 7.59936523 40.63500977 8.82788086 40.43579102 C10.39435073 40.17314936 11.96075356 39.91010764 13.52709961 39.64672852 C14.3127832 39.52040039 15.0984668 39.39407227 15.90795898 39.26391602 C17.04394531 39.07055664 17.04394531 39.07055664 18.20288086 38.87329102 C18.89937744 38.75808105 19.59587402 38.64287109 20.31347656 38.52416992 C22.5228872 38.04997731 22.5228872 38.04997731 25.21459961 36.02172852 C26.20459961 36.02172852 27.19459961 36.02172852 28.21459961 36.02172852 C29.98514585 32.98055498 30.42347016 30.89791204 30.27709961 27.39672852 C30.11737739 23.21617296 30.11737739 23.21617296 31.21459961 21.02172852 C31.87459961 21.02172852 32.53459961 21.02172852 33.21459961 21.02172852 C33.21459961 18.71172852 33.21459961 16.40172852 33.21459961 14.02172852 C32.22459961 14.68172852 31.23459961 15.34172852 30.21459961 16.02172852 C28.50709981 14.74110367 26.84086365 13.40405295 25.21459961 12.02172852 C25.21459961 11.36172852 25.21459961 10.70172852 25.21459961 10.02172852 C23.56459961 10.02172852 21.91459961 10.02172852 20.21459961 10.02172852 C19.88459961 11.34172852 19.55459961 12.66172852 19.21459961 14.02172852 C20.17366211 14.17641602 20.17366211 14.17641602 21.15209961 14.33422852 C21.83272461 14.56110352 22.51334961 14.78797852 23.21459961 15.02172852 C23.54459961 16.01172852 23.87459961 17.00172852 24.21459961 18.02172852 C21.90459961 17.69172852 19.59459961 17.36172852 17.21459961 17.02172852 C17.21459961 16.36172852 17.21459961 15.70172852 17.21459961 15.02172852 C16.55459961 15.02172852 15.89459961 15.02172852 15.21459961 15.02172852 C15.21459961 13.04172852 15.21459961 11.06172852 15.21459961 9.02172852 C11.58459961 9.02172852 7.95459961 9.02172852 4.21459961 9.02172852 C3.88459961 10.01172852 3.55459961 11.00172852 3.21459961 12.02172852 C2.55459961 12.02172852 1.89459961 12.02172852 1.21459961 12.02172852 C1.21459961 11.03172852 1.21459961 10.04172852 1.21459961 9.02172852 C-0.10540039 9.02172852 -1.42540039 9.02172852 -2.78540039 9.02172852 C-2.78540039 6.71172852 -2.78540039 4.40172852 -2.78540039 2.02172852 C-3.44540039 1.69172852 -4.10540039 1.36172852 -4.78540039 1.02172852 C-3.78540039 0.02172852 -3.78540039 0.02172852 0 0 Z " fill="#F6B473" transform="translate(238.785400390625,167.978271484375)"/>
<path d="M0 0 C0.33 0 0.66 0 1 0 C2.80352204 7.02085365 3.21795934 13.91318066 3.25 21.125 C3.25902344 21.9593457 3.26804687 22.79369141 3.27734375 23.65332031 C3.2515955 29.10122028 3.10801738 34.9038715 1 40 C-2.125 41.5625 -2.125 41.5625 -5 42 C-7.29633824 38.55549263 -7.54016485 36.06187717 -8 32 C-6.35 31.67 -4.7 31.34 -3 31 C-3.66 25.72 -4.32 20.44 -5 15 C-4.34 14.67 -3.68 14.34 -3 14 C-2.60691577 11.77702487 -2.60691577 11.77702487 -2.5 9.1875 C-2.28813073 5.60161264 -1.80651868 3.12498594 0 0 Z " fill="#FBDC42" transform="translate(311,113)"/>
<path d="M0 0 C0 0.66 0 1.32 0 2 C0.66 2 1.32 2 2 2 C2 2.66 2 3.32 2 4 C1.01 4.33 0.02 4.66 -1 5 C-1.33 5.99 -1.66 6.98 -2 8 C-2.66 8 -3.32 8 -4 8 C-4 9.98 -4 11.96 -4 14 C-6.49092811 15.24546405 -7.41080733 14.7767578 -10 14 C-10 15.65 -10 17.3 -10 19 C-10.66 19 -11.32 19 -12 19 C-11.34 20.65 -10.68 22.3 -10 24 C-10.928125 24.144375 -11.85625 24.28875 -12.8125 24.4375 C-16.00725111 24.92100111 -16.00725111 24.92100111 -19 26 C-18.5708253 18.27485542 -16.36998686 11.56366427 -10.9609375 5.84375 C-4.37474385 0 -4.37474385 0 0 0 Z " fill="#8BEDB7" transform="translate(178,96)"/>
<path d="M0 0 C0.33 0 0.66 0 1 0 C1.09938176 6.24385004 1.17171075 12.48723272 1.21972656 18.73168945 C1.23975746 20.85286487 1.26699025 22.97398565 1.30175781 25.0949707 C1.35065214 28.15589941 1.37305452 31.21609376 1.390625 34.27734375 C1.41127014 35.21521225 1.43191528 36.15308075 1.45318604 37.11936951 C1.4553068 43.43871388 0.38230897 48.58068637 -3 54 C-9.74106929 59.7152544 -16.53015767 60.29134311 -24.9921875 60.1953125 C-26.41109787 60.19106766 -26.41109787 60.19106766 -27.8586731 60.18673706 C-30.86424694 60.17558932 -33.86951702 60.15049465 -36.875 60.125 C-38.91926651 60.11496321 -40.96353772 60.10583859 -43.0078125 60.09765625 C-48.00532444 60.07566767 -53.0026108 60.04117509 -58 60 C-58 59.67 -58 59.34 -58 59 C-56.94087402 58.98018066 -55.88174805 58.96036133 -54.79052734 58.93994141 C-50.843029 58.86359306 -46.89588527 58.77492175 -42.94873047 58.68261719 C-41.24372381 58.64444781 -39.53863994 58.60957434 -37.83349609 58.578125 C-35.37569674 58.53221164 -32.91842348 58.47426231 -30.4609375 58.4140625 C-29.32620499 58.39673569 -29.32620499 58.39673569 -28.16854858 58.37905884 C-23.73995442 58.25689371 -20.14147375 57.53407694 -16 56 C-13.125 55.875 -13.125 55.875 -11 56 C-10.67 54.02 -10.34 52.04 -10 50 C-8.02 50 -6.04 50 -4 50 C-3.67 47.36 -3.34 44.72 -3 42 C-2.01 42 -1.02 42 0 42 C0 28.14 0 14.28 0 0 Z " fill="#9CD0DA" transform="translate(274,70)"/>
<path d="M0 0 C2.31332486 3.46998729 2.33957563 4.92509248 2 9 C0 12 0 12 -3.375 12.9375 C-7 13 -7 13 -9.4375 11.5 C-11.5664946 8.09360864 -11.57349318 5.9427656 -11 2 C-7.88980721 -1.98104677 -4.56233816 -1.18282841 0 0 Z " fill="#1B110D" transform="translate(263,186)"/>
<path d="M0 0 C2.375 1.125 2.375 1.125 4 3 C4.49453975 6.32048116 4.30818153 8.31112364 2.9375 11.375 C1 13 1 13 -2.5 13.4375 C-6 13 -6 13 -7.9375 11.9375 C-9.6140629 8.88023824 -9.36528977 6.4093712 -9 3 C-6.83831363 -0.7229043 -4.01644453 -0.49180953 0 0 Z " fill="#121813" transform="translate(218,67)"/>
<path d="M0 0 C9.57 0 19.14 0 29 0 C29 1.65 29 3.3 29 5 C10.19 5 -8.62 5 -28 5 C-27.34 4.34 -26.68 3.68 -26 3 C-25.34 3.33 -24.68 3.66 -24 4 C-24 3.34 -24 2.68 -24 2 C-21.36 2 -18.72 2 -16 2 C-16 2.66 -16 3.32 -16 4 C-15.31591064 3.83250244 -14.63182129 3.66500488 -13.92700195 3.49243164 C-10.5860584 2.93035948 -7.55324991 2.98687555 -4.16796875 3.12109375 C-2.22954102 3.19360352 -2.22954102 3.19360352 -0.25195312 3.26757812 C1.10286994 3.32409051 2.45768759 3.38073276 3.8125 3.4375 C5.18682807 3.49077606 6.56117703 3.54351601 7.93554688 3.59570312 C11.29060765 3.7251967 14.64535727 3.86015716 18 4 C18 3.01 18 2.02 18 1 C12.06 1 6.12 1 0 1 C0 0.67 0 0.34 0 0 Z " fill="#02170F" transform="translate(208,90)"/>
<path d="M0 0 C4.76881876 -0.09900135 9.5370373 -0.17152928 14.30664062 -0.21972656 C15.92849143 -0.23982144 17.55026997 -0.26710254 19.171875 -0.30175781 C21.5053898 -0.3503727 23.83794557 -0.37298889 26.171875 -0.390625 C27.25647003 -0.42159271 27.25647003 -0.42159271 28.36297607 -0.45318604 C31.94689971 -0.45477743 33.66477962 -0.27262136 36.48925781 2.02441406 C36.98780273 2.67635742 37.48634766 3.32830078 38 4 C37.67 4.99 37.34 5.98 37 7 C32.05 7 27.1 7 22 7 C22 5.35 22 3.7 22 2 C21.00033203 2.01740234 21.00033203 2.01740234 19.98046875 2.03515625 C13.25769055 2.10097366 6.682561 1.72383639 0 1 C0 0.67 0 0.34 0 0 Z " fill="#160C07" transform="translate(218,211)"/>
<path d="M0 0 C-0.41421969 4.83256305 -2.46413986 6.82679218 -6 10 C-5.67 10.99 -5.34 11.98 -5 13 C-5.27571139 15.00875442 -5.60235737 17.01178687 -6 19 C-6.33 19 -6.66 19 -7 19 C-7 17.35 -7 15.7 -7 14 C-7.66 14 -8.32 14 -9 14 C-9.33 15.32 -9.66 16.64 -10 18 C-10.33 16.02 -10.66 14.04 -11 12 C-11.66 13.65 -12.32 15.3 -13 17 C-16 13.64 -16 13.64 -16 11.0625 C-13.21167256 5.31157465 -6.49394165 0 0 0 Z " fill="#92DFC5" transform="translate(215,57)"/>
<path d="M0 0 C0.33 0.66 0.66 1.32 1 2 C1.721875 1.979375 2.44375 1.95875 3.1875 1.9375 C5.92547734 1.99834394 8.32812293 2.43749956 11 3 C11.99 3 12.98 3 14 3 C14 5.31 14 7.62 14 10 C17.96 10.33 21.92 10.66 26 11 C26 11.66 26 12.32 26 13 C32.6 13 39.2 13 46 13 C46 13.33 46 13.66 46 14 C12.35705354 15.36948367 12.35705354 15.36948367 1 5 C-0.3125 2.75 -0.3125 2.75 -1 1 C-0.67 0.67 -0.34 0.34 0 0 Z " fill="#D87F87" transform="translate(202,197)"/>
<path d="M0 0 C1.01111343 0.00424484 2.02222687 0.00848969 3.0639801 0.01286316 C6.27340026 0.02957121 9.4821779 0.06720922 12.69140625 0.10546875 C14.87564193 0.12052574 17.05988752 0.13421237 19.24414062 0.14648438 C24.58094605 0.17944884 29.91738023 0.22956932 35.25390625 0.29296875 C35.25390625 0.62296875 35.25390625 0.95296875 35.25390625 1.29296875 C20.73390625 1.62296875 6.21390625 1.95296875 -8.74609375 2.29296875 C-4.78609375 2.29296875 -0.82609375 2.29296875 3.25390625 2.29296875 C3.25390625 2.62296875 3.25390625 2.95296875 3.25390625 3.29296875 C-0.04609375 3.62296875 -3.34609375 3.95296875 -6.74609375 4.29296875 C-6.08609375 4.95296875 -5.42609375 5.61296875 -4.74609375 6.29296875 C-6.54046875 6.91171875 -6.54046875 6.91171875 -8.37109375 7.54296875 C-12.28051618 8.99682869 -15.37712815 10.85046869 -18.74609375 13.29296875 C-19.07609375 12.30296875 -19.40609375 11.31296875 -19.74609375 10.29296875 C-19.08609375 9.65359375 -18.42609375 9.01421875 -17.74609375 8.35546875 C-15.63006944 6.65214556 -15.63006944 6.65214556 -15.74609375 5.29296875 C-16.40609375 4.63296875 -17.06609375 3.97296875 -17.74609375 3.29296875 C-11.71636564 0.13419276 -6.73704961 -0.10753457 0 0 Z " fill="#2E3535" transform="translate(220.74609375,129.70703125)"/>
<path d="M0 0 C0.99 0.495 0.99 0.495 2 1 C2.31241455 3.71446979 2.51336592 6.33909361 2.625 9.0625 C2.66367188 9.82111328 2.70234375 10.57972656 2.7421875 11.36132812 C2.83673562 13.24047195 2.91946756 15.12020336 3 17 C3.66 17 4.32 17 5 17 C5.33 15.35 5.66 13.7 6 12 C7.32 12 8.64 12 10 12 C10 12.99 10 13.98 10 15 C12.97 14.34 15.94 13.68 19 13 C18.67 13.66 18.34 14.32 18 15 C15.69 15.66 13.38 16.32 11 17 C18.59 17.33 26.18 17.66 34 18 C34 18.33 34 18.66 34 19 C22.78 19 11.56 19 0 19 C0 12.73 0 6.46 0 0 Z " fill="#9AE7D0" transform="translate(199,70)"/>
<path d="M0 0 C0.02714735 2.22909871 0.04646254 4.45829367 0.0625 6.6875 C0.07410156 7.92886719 0.08570313 9.17023438 0.09765625 10.44921875 C0.01478673 13.46235454 -0.29160551 16.08275339 -1 19 C-1.99 19 -2.98 19 -4 19 C-4.33 21.64 -4.66 24.28 -5 27 C-5.33 27 -5.66 27 -6 27 C-6 18.42 -6 9.84 -6 1 C-4 0 -4 0 0 0 Z " fill="#FBC15A" transform="translate(288,95)"/>
<path d="M0 0 C0.495 0.99 0.495 0.99 1 2 C-1.48355041 3.24177521 -3.13107622 3.12036681 -5.90869141 3.11352539 C-6.92959869 3.11344986 -7.95050598 3.11337433 -9.00234985 3.11329651 C-10.66021011 3.10555458 -10.66021011 3.10555458 -12.3515625 3.09765625 C-13.4807309 3.0962413 -14.60989929 3.09482635 -15.77328491 3.09336853 C-19.39054988 3.08775744 -23.00775364 3.07520303 -26.625 3.0625 C-29.07291577 3.05748643 -31.52083252 3.05292328 -33.96875 3.04882812 C-39.97918766 3.0377844 -45.98958946 3.02103544 -52 3 C-51.67 2.34 -51.34 1.68 -51 1 C-44.86192131 0.85655307 -38.72381918 0.71416986 -32.58569336 0.57275391 C-30.49942363 0.52454077 -28.41316049 0.47604166 -26.3269043 0.42724609 C-23.32081784 0.35698698 -20.31470886 0.28777079 -17.30859375 0.21875 C-16.38227646 0.19687622 -15.45595917 0.17500244 -14.50157166 0.15246582 C-9.66610451 0.04250284 -4.83671067 -0.02315601 0 0 Z " fill="#210C05" transform="translate(265,132)"/>
<path d="M0 0 C0 0.33 0 0.66 0 1 C-7.38369482 2.79779687 -14.33269731 3.27041179 -21.9140625 3.1953125 C-23.55754166 3.19106766 -23.55754166 3.19106766 -25.23422241 3.18673706 C-28.69793097 3.17563513 -32.16137097 3.15054939 -35.625 3.125 C-37.98827749 3.11495729 -40.35155907 3.10583371 -42.71484375 3.09765625 C-48.47665252 3.07572861 -54.23830706 3.04235197 -60 3 C-56.89539867 0.93026578 -56.16821121 0.74415526 -52.63964844 0.69702148 C-51.76153503 0.68037949 -50.88342163 0.66373749 -49.97869873 0.64659119 C-48.55838348 0.63396996 -48.55838348 0.63396996 -47.109375 0.62109375 C-45.6424118 0.59560204 -45.6424118 0.59560204 -44.14581299 0.56959534 C-41.01394137 0.51642209 -37.88208139 0.47618844 -34.75 0.4375 C-31.63227226 0.39342892 -28.51464216 0.34653115 -25.39703369 0.29469299 C-23.45712607 0.26300459 -21.5171339 0.23603385 -19.5770874 0.21446228 C-15.68164934 0.15546652 -11.88616757 0.0535448 -8.03222656 -0.54272461 C-5.0011914 -0.99982033 -2.93487966 -0.80042173 0 0 Z " fill="#040B0F" transform="translate(268,130)"/>
<path d="M0 0 C5.28 0 10.56 0 16 0 C16 0.99 16 1.98 16 3 C17.65 3 19.3 3 21 3 C21 3.66 21 4.32 21 5 C10.605 5.495 10.605 5.495 0 6 C0 4.02 0 2.04 0 0 Z " fill="#F9907D" transform="translate(224,137)"/>
<path d="M0 0 C3 1 3 1 4 2.6875 C4 5.88430272 2.3633865 7.19965724 0.28125 9.47265625 C-1.38955859 11.46438235 -2.20496137 13.54260788 -3 16 C-3.99 15.34 -4.98 14.68 -6 14 C-6.06473583 11.99318913 -6.11931251 9.98281286 -6.0390625 7.9765625 C-5.99669726 5.83288127 -6.32238511 4.03284468 -7 2 C-6.01 1.67 -5.02 1.34 -4 1 C-3.67 1.66 -3.34 2.32 -3 3 C-2.01 2.01 -1.02 1.02 0 0 Z " fill="#8CEAC2" transform="translate(198,130)"/>
<path d="M0 0 C0.33 0 0.66 0 1 0 C1.08745946 3.3956697 1.14054444 6.79104773 1.1875 10.1875 C1.21263672 11.14720703 1.23777344 12.10691406 1.26367188 13.09570312 C1.3564786 22.03608444 1.3564786 22.03608444 -2 26 C-8.2625739 32.13277962 -16.01242672 34.16738218 -24.5625 34.1875 C-26.37545431 34.13996936 -28.18831238 34.08276745 -30 34 C-30 33.67 -30 33.34 -30 33 C-28.80761719 32.80664062 -27.61523438 32.61328125 -26.38671875 32.4140625 C-24.82024888 32.15142084 -23.25384605 31.88837912 -21.6875 31.625 C-20.90181641 31.49867188 -20.11613281 31.37234375 -19.30664062 31.2421875 C-18.1706543 31.04882812 -18.1706543 31.04882812 -17.01171875 30.8515625 C-16.31522217 30.73635254 -15.61872559 30.62114258 -14.90112305 30.50244141 C-12.69171241 30.02824879 -12.69171241 30.02824879 -10 28 C-9.01 28 -8.02 28 -7 28 C-6.7525 27.4225 -6.505 26.845 -6.25 26.25 C-5 24 -5 24 -2.96875 22.5 C0.10074013 18.60223476 -0.32438699 14.57839199 -0.25 9.75 C-0.20552734 8.34621094 -0.20552734 8.34621094 -0.16015625 6.9140625 C-0.08960196 4.60928908 -0.03683748 2.30551832 0 0 Z " fill="#DFAE7F" transform="translate(274,176)"/>
<path d="M0 0 C-0.33 0.99 -0.66 1.98 -1 3 C-1.99 2.67 -2.98 2.34 -4 2 C-3.97679687 3.19238281 -3.95359375 4.38476562 -3.9296875 5.61328125 C-3.91092822 7.17968124 -3.89272819 8.746088 -3.875 10.3125 C-3.85824219 11.09818359 -3.84148437 11.88386719 -3.82421875 12.69335938 C-3.81455078 13.8293457 -3.81455078 13.8293457 -3.8046875 14.98828125 C-3.78897705 16.03302612 -3.78897705 16.03302612 -3.77294922 17.09887695 C-4 19 -4 19 -6 22 C-6 15.4 -6 8.8 -6 2 C-18.54 2 -31.08 2 -44 2 C-44 1.67 -44 1.34 -44 1 C-38.53737477 0.856758 -33.07472827 0.71436614 -27.61206055 0.57275391 C-25.75463262 0.52448378 -23.89721065 0.47598343 -22.03979492 0.42724609 C-19.36638916 0.35713805 -16.69296286 0.28786439 -14.01953125 0.21875 C-13.19226028 0.19687622 -12.36498932 0.17500244 -11.51264954 0.15246582 C-7.6738819 0.05398825 -3.84045369 -0.02711706 0 0 Z " fill="#3A210E" transform="translate(281,174)"/>
<path d="M0 0 C0.99 0 1.98 0 3 0 C3.33 1.65 3.66 3.3 4 5 C4.99 5.33 5.98 5.66 7 6 C7 6.99 7 7.98 7 9 C7.66 9 8.32 9 9 9 C8.34 18.9 7.68 28.8 7 39 C6.34 39 5.68 39 5 39 C5.03480469 37.71867187 5.06960938 36.43734375 5.10546875 35.1171875 C5.33710451 22.79631428 4.88482293 11.5324298 0 0 Z " fill="#181004" transform="translate(310,105)"/>
<path d="M0 0 C7.59570439 -0.58179863 13.14115041 0.73110147 20 4 C19.67 4.66 19.34 5.32 19 6 C16.525 5.505 16.525 5.505 14 5 C13.67 5.99 13.34 6.98 13 8 C9.37 7.34 5.74 6.68 2 6 C2 4.35 2 2.7 2 1 C1.34 0.67 0.68 0.34 0 0 Z " fill="#8ECCDA" transform="translate(246,56)"/>
<path d="M0 0 C0.33 0 0.66 0 1 0 C1 10.56 1 21.12 1 32 C3.31 32 5.62 32 8 32 C8 34.31 8 36.62 8 39 C5 40 5 40 2.34301758 39.08666992 C0 37 0 37 -0.56762695 33.26293945 C-0.56683644 31.71282793 -0.53864584 30.16257456 -0.48828125 28.61328125 C-0.48120651 27.79627243 -0.47413177 26.97926361 -0.46684265 26.13749695 C-0.43885512 23.52823263 -0.37611306 20.9211154 -0.3125 18.3125 C-0.28742256 16.54365079 -0.26460842 14.77476793 -0.24414062 13.00585938 C-0.18901471 8.66974576 -0.10271575 4.33523685 0 0 Z " fill="#F0789B" transform="translate(200,160)"/>
<path d="M0 0 C0.99 0.33 1.98 0.66 3 1 C0.47428434 6.47238394 -1.65451482 8.87777289 -7.09765625 11.46875 C-9 12 -9 12 -12 11 C-12 10.01 -12 9.02 -12 8 C-13.32 7.67 -14.64 7.34 -16 7 C-14.58774074 6.32404685 -13.16997095 5.65959941 -11.75 5 C-10.56664062 4.443125 -10.56664062 4.443125 -9.359375 3.875 C-6.51950752 2.82180411 -3.9958244 3 -1 3 C-0.67 2.01 -0.34 1.02 0 0 Z " fill="#1F1108" transform="translate(275,122)"/>
<path d="M0 0 C0.33 0 0.66 0 1 0 C1 7.26 1 14.52 1 22 C-16.4715262 22.74031891 -16.4715262 22.74031891 -25 17 C-22.29120665 15.64560332 -19.99066732 15.93498549 -17 16 C-16.67 16.66 -16.34 17.32 -16 18 C-11.05 18 -6.1 18 -1 18 C-0.67 18.99 -0.34 19.98 0 21 C0 14.07 0 7.14 0 0 Z " fill="#79BF9A" transform="translate(193,150)"/>
<path d="M0 0 C1.09641124 2.75064575 1.09988998 3.76353318 -0.07421875 6.54296875 C-0.60660156 7.41566406 -1.13898438 8.28835937 -1.6875 9.1875 C-2.20699219 10.06792969 -2.72648437 10.94835937 -3.26171875 11.85546875 C-5 14 -5 14 -7.00390625 14.796875 C-9.67849139 15.06904413 -12.31421881 15.06104048 -15 15 C-14.34 14.01 -13.68 13.02 -13 12 C-11.68 12 -10.36 12 -9 12 C-8.67 9.69 -8.34 7.38 -8 5 C-5.09399739 3.74335022 -3.20395416 3 0 3 C0 2.01 0 1.02 0 0 Z " fill="#EECF47" transform="translate(312,150)"/>
<path d="M0 0 C2.475 0.495 2.475 0.495 5 1 C5 1.66 5 2.32 5 3 C5.556875 3.061875 6.11375 3.12375 6.6875 3.1875 C10.12229832 4.39432103 11.73103284 6.17912191 14 9 C14.8125 12.8125 14.8125 12.8125 15 16 C13.02 16 11.04 16 9 16 C9.20625 15.071875 9.4125 14.14375 9.625 13.1875 C10.36692966 9.84826598 10.36692966 9.84826598 8 7 C4.91634129 6.7497843 4.91634129 6.7497843 2 7 C1.34 4.69 0.68 2.38 0 0 Z " fill="#F6D153" transform="translate(295,96)"/>
<path d="M0 0 C0.33 0 0.66 0 1 0 C1.19417259 6.2984518 1.37144062 12.59721885 1.53710938 18.89648438 C1.59541365 21.0381948 1.65754973 23.17980454 1.72363281 25.32128906 C1.81809252 28.40411037 1.8986473 31.48703407 1.9765625 34.5703125 C2.00875885 35.52366486 2.0409552 36.47701721 2.0741272 37.45925903 C2.2012466 43.13393762 2.29192019 48.3554767 -1.625 52.875 C-2.07875 53.24625 -2.5325 53.6175 -3 54 C-3.6875 52.4375 -3.6875 52.4375 -4 50 C-3.52199951 49.00282959 -3.04399902 48.00565918 -2.55151367 46.97827148 C-0.4874577 42.35067616 -0.52362882 37.91332711 -0.48828125 32.91015625 C-0.47033005 31.96563095 -0.45237885 31.02110565 -0.43388367 30.04795837 C-0.38001844 27.05285 -0.34596142 24.05789881 -0.3125 21.0625 C-0.27930593 19.0227647 -0.24481435 16.98305008 -0.20898438 14.94335938 C-0.12430565 9.96235343 -0.05738128 4.98139217 0 0 Z " fill="#041825" transform="translate(275,72)"/>
<path d="M0 0 C1.1875 1.5 1.1875 1.5 2 4 C1.2800662 5.74841065 0.55472626 7.49475958 -0.1953125 9.23046875 C-2.03335634 15.55655166 -1.78417466 22.4508174 -2 29 C-2.99 29 -3.98 29 -5 29 C-5.05404449 26.24973583 -5.09369306 23.50053797 -5.125 20.75 C-5.14175781 19.97269531 -5.15851563 19.19539063 -5.17578125 18.39453125 C-5.23662606 11.27568856 -5.23662606 11.27568856 -3 8 C-2.34 8 -1.68 8 -1 8 C-1.20625 7.236875 -1.4125 6.47375 -1.625 5.6875 C-2 3 -2 3 0 0 Z " fill="#1F060C" transform="translate(200,140)"/>
<path d="M0 0 C5.9490847 8.92362705 5.06324654 23.74975853 3.546875 34.08984375 C3.10711098 36.07820538 2.56883006 38.04464665 2 40 C1.67 40 1.34 40 1 40 C1.00523682 39.23333008 1.01047363 38.46666016 1.01586914 37.67675781 C1.03666364 34.20118022 1.04966809 30.72561573 1.0625 27.25 C1.07087891 26.0434375 1.07925781 24.836875 1.08789062 23.59375 C1.09111328 22.43359375 1.09433594 21.2734375 1.09765625 20.078125 C1.10551147 18.47565918 1.10551147 18.47565918 1.11352539 16.84082031 C1.01439871 14.36030841 0.66554912 12.37101874 0 10 C-0.06624507 8.25113019 -0.08552595 6.49997252 -0.0625 4.75 C-0.05347656 3.85796875 -0.04445313 2.9659375 -0.03515625 2.046875 C-0.02355469 1.37140625 -0.01195312 0.6959375 0 0 Z " fill="#D6C35E" transform="translate(312,110)"/>
<path d="M0 0 C-0.33 0.66 -0.66 1.32 -1 2 C-12.22 2 -23.44 2 -35 2 C-35.33 1.34 -35.66 0.68 -36 0 C-23.90836187 -0.72431573 -12.07086818 -1.33891883 0 0 Z " fill="#102525" transform="translate(255,53)"/>
<path d="M0 0 C0.99 0.66 1.98 1.32 3 2 C2.67 2.99 2.34 3.98 2 5 C1.33613281 4.84660156 0.67226563 4.69320312 -0.01171875 4.53515625 C-3.60155922 3.89226979 -7.17795419 3.64966009 -10.8125 3.4375 C-11.85180664 3.37272461 -11.85180664 3.37272461 -12.91210938 3.30664062 C-14.60788686 3.20138547 -16.30392052 3.10027137 -18 3 C-18 2.01 -18 1.02 -18 0 C-12.30054779 -1.8998174 -5.80079753 -1.38114227 0 0 Z " fill="#170B1D" transform="translate(297,83)"/>
<path d="M0 0 C1.6875587 0.04235213 3.37498064 0.09037788 5.06225586 0.14282227 C5.94868271 0.16643326 6.83510956 0.19004425 7.74839783 0.21437073 C10.59145347 0.29120415 13.43425007 0.37514322 16.27709961 0.45922852 C18.19961279 0.51242953 20.12213878 0.56517004 22.04467773 0.61743164 C26.76815039 0.74684577 31.49140249 0.8826347 36.21459961 1.02172852 C36.21459961 1.35172852 36.21459961 1.68172852 36.21459961 2.02172852 C23.67459961 2.02172852 11.13459961 2.02172852 -1.78540039 2.02172852 C-1.78540039 4.00172852 -1.78540039 5.98172852 -1.78540039 8.02172852 C0.52459961 8.02172852 2.83459961 8.02172852 5.21459961 8.02172852 C4.55459961 9.34172852 3.89459961 10.66172852 3.21459961 12.02172852 C2.55459961 12.02172852 1.89459961 12.02172852 1.21459961 12.02172852 C1.21459961 11.03172852 1.21459961 10.04172852 1.21459961 9.02172852 C-0.10540039 9.02172852 -1.42540039 9.02172852 -2.78540039 9.02172852 C-2.78540039 6.71172852 -2.78540039 4.40172852 -2.78540039 2.02172852 C-3.44540039 1.69172852 -4.10540039 1.36172852 -4.78540039 1.02172852 C-3.78540039 0.02172852 -3.78540039 0.02172852 0 0 Z " fill="#E6A483" transform="translate(238.785400390625,167.978271484375)"/>
<path d="M0 0 C0.7425 0.2475 1.485 0.495 2.25 0.75 C1.92 1.41 1.59 2.07 1.25 2.75 C-0.8125 3.375 -0.8125 3.375 -2.75 3.75 C-2.75 4.41 -2.75 5.07 -2.75 5.75 C-3.41 5.75 -4.07 5.75 -4.75 5.75 C-5.08 8.39 -5.41 11.03 -5.75 13.75 C-6.41 13.75 -7.07 13.75 -7.75 13.75 C-8.41 15.07 -9.07 16.39 -9.75 17.75 C-10.95214714 13.74284287 -10.8418452 11.32216085 -9.0625 7.625 C-4.55681347 -0.41425577 -4.55681347 -0.41425577 0 0 Z " fill="#131A16" transform="translate(204.75,134.25)"/>
<path d="M0 0 C0.66 0.66 1.32 1.32 2 2 C1.99633789 4.17871094 1.99633789 4.17871094 1.66015625 6.984375 C1.12344273 12.27404639 0.82766361 17.51685712 0.68359375 22.828125 C0.66237457 23.59443237 0.6411554 24.36073975 0.61929321 25.15026855 C0.55608798 27.51678572 0.49670175 29.88337965 0.4375 32.25 C0.39418965 33.88151866 0.35057196 35.51302919 0.30664062 37.14453125 C0.20089024 41.09626957 0.09927648 45.04809396 0 49 C-0.33 49 -0.66 49 -1 49 C-1.02532428 42.50383332 -1.04285601 36.00767934 -1.05493164 29.51147461 C-1.059965 27.30085779 -1.06679217 25.09024431 -1.07543945 22.87963867 C-1.08754859 19.704907 -1.09323825 16.53021928 -1.09765625 13.35546875 C-1.10539818 11.86940376 -1.10539818 11.86940376 -1.11329651 10.35331726 C-1.11337204 9.43258926 -1.11344757 8.51186127 -1.11352539 7.56323242 C-1.115746 6.7527092 -1.11796661 5.94218597 -1.12025452 5.10710144 C-1 3 -1 3 0 0 Z " fill="#D5819A" transform="translate(200,146)"/>
<path d="M0 0 C0.33 0 0.66 0 1 0 C1 2.97 1 5.94 1 9 C0.01 9.33 -0.98 9.66 -2 10 C-2 10.99 -2 11.98 -2 13 C-2.99 13.33 -3.98 13.66 -5 14 C-5 13.01 -5 12.02 -5 11 C-5.61875 11.185625 -6.2375 11.37125 -6.875 11.5625 C-9 12 -9 12 -11 11 C-9.50260417 9.79557292 -8.00520833 8.59114583 -6.5078125 7.38671875 C-4.74707893 5.87729455 -4.74707893 5.87729455 -3 3 C-2.01 3 -1.02 3 0 3 C0 2.01 0 1.02 0 0 Z " fill="#181412" transform="translate(278,194)"/>
<path d="M0 0 C1.98925781 0.88012695 1.98925781 0.88012695 4 3 C4.53348719 6.30773297 4.32173271 9.58040471 4.171875 12.91796875 C4.14401917 13.89034988 4.11616333 14.86273102 4.08746338 15.86457825 C3.9940236 18.97316736 3.87235482 22.07992761 3.75 25.1875 C3.68173382 27.29356033 3.61530456 29.39968106 3.55078125 31.50585938 C3.38850199 36.67151548 3.20089853 41.83570747 3 47 C2.67 47 2.34 47 2 47 C1.98018066 45.81446533 1.96036133 44.62893066 1.93994141 43.4074707 C1.86374211 38.99970633 1.77504677 34.5922659 1.68261719 30.18481445 C1.64438661 28.27895514 1.60952345 26.37302513 1.578125 24.46704102 C1.53234578 21.72386447 1.4743727 18.98117212 1.4140625 16.23828125 C1.39673569 14.96456413 1.39673569 14.96456413 1.37905884 13.66511536 C1.27005506 9.27388727 0.80964278 6.06466899 -1 2 C-0.67 1.34 -0.34 0.68 0 0 Z " fill="#071017" transform="translate(274,65)"/>
<path d="M0 0 C4.50987233 -0.36078979 8.00793342 -0.44740257 12.1875 1.4375 C16.38886134 5.265407 20.81699819 9.89332647 21.1640625 15.78515625 C21.10992187 16.51605469 21.05578125 17.24695313 21 18 C20.34 18 19.68 18 19 18 C18.82984375 17.39671875 18.6596875 16.7934375 18.484375 16.171875 C16.55059316 9.77500507 16.55059316 9.77500507 12 5 C11.01 4.67 10.02 4.34 9 4 C9 3.34 9 2.68 9 2 C6.03 1.67 3.06 1.34 0 1 C0 0.67 0 0.34 0 0 Z " fill="#E7CF6D" transform="translate(291,95)"/>
<path d="M0 0 C-1.33463542 1.46484375 -2.66927083 2.9296875 -4.00390625 4.39453125 C-4.33261719 4.92433594 -4.66132813 5.45414062 -5 6 C-4.67 6.99 -4.34 7.98 -4 9 C-4.27571139 11.00875442 -4.60235737 13.01178687 -5 15 C-5.33 15 -5.66 15 -6 15 C-6 13.35 -6 11.7 -6 10 C-6.66 10 -7.32 10 -8 10 C-8.33 11.32 -8.66 12.64 -9 14 C-10.36824115 9.48480419 -9.65027447 6.37322734 -8 2 C-4.77208445 -0.1519437 -3.71599191 -0.20086443 0 0 Z " fill="#81E4C5" transform="translate(214,61)"/>
<path d="M0 0 C5.61 0 11.22 0 17 0 C17 0.99 17 1.98 17 3 C14.54159395 3.02691685 12.08348118 3.04679802 9.625 3.0625 C8.92632812 3.07087891 8.22765625 3.07925781 7.5078125 3.08789062 C2.2265625 3.11328125 2.2265625 3.11328125 0 2 C0 1.34 0 0.68 0 0 Z " fill="#0F0E1D" transform="translate(279,90)"/>
<path d="M0 0 C0.99 0 1.98 0 3 0 C3 2.97 3 5.94 3 9 C0.69 8.67 -1.62 8.34 -4 8 C-4.33 6.68 -4.66 5.36 -5 4 C-3.68 4.33 -2.36 4.66 -1 5 C-0.67 3.35 -0.34 1.7 0 0 Z " fill="#F7BB67" transform="translate(277,127)"/>
<path d="M0 0 C2.21336414 3.32004621 2.20762974 4.07410932 1.9765625 7.88671875 C1.925 8.82451172 1.8734375 9.76230469 1.8203125 10.72851562 C1.75585938 11.70498047 1.69140625 12.68144531 1.625 13.6875 C1.56828125 14.67556641 1.5115625 15.66363281 1.453125 16.68164062 C1.31166481 19.12182885 1.16025726 21.56098591 1 24 C-1 22 -1 22 -1.24291992 19.86108398 C-1.23881104 18.99813721 -1.23470215 18.13519043 -1.23046875 17.24609375 C-1.22853516 16.30958984 -1.22660156 15.37308594 -1.22460938 14.40820312 C-1.21236328 13.42787109 -1.20011719 12.44753906 -1.1875 11.4375 C-1.18685547 10.45330078 -1.18621094 9.46910156 -1.18554688 8.45507812 C-1.14017532 1.14017532 -1.14017532 1.14017532 0 0 Z " fill="#82D7A7" transform="translate(159,122)"/>
<path d="M0 0 C1.91015625 0.1328125 1.91015625 0.1328125 3.91015625 1.1328125 C2.03515625 5.0078125 2.03515625 5.0078125 0.91015625 6.1328125 C-1.08942739 6.17362033 -3.09029629 6.17535606 -5.08984375 6.1328125 C-4.75984375 4.8128125 -4.42984375 3.4928125 -4.08984375 2.1328125 C-5.07984375 1.8028125 -6.06984375 1.4728125 -7.08984375 1.1328125 C-5.19099279 -0.76603846 -2.51736472 0.00913744 0 0 Z " fill="#FEC763" transform="translate(295.08984375,159.8671875)"/>
<path d="M0 0 C0.66 0 1.32 0 2 0 C2 0.66 2 1.32 2 2 C2.66 2 3.32 2 4 2 C4.625 5.375 4.625 5.375 5 9 C4.34 9.66 3.68 10.32 3 11 C2.01 11 1.02 11 0 11 C-0.144375 10.21625 -0.28875 9.4325 -0.4375 8.625 C-0.87798925 6.03578982 -0.87798925 6.03578982 -2 4 C-1.0625 1.875 -1.0625 1.875 0 0 Z " fill="#F49A6F" transform="translate(248,187)"/>
<path d="M0 0 C1.2065625 0.0309375 1.2065625 0.0309375 2.4375 0.0625 C2.3239371 1.70916203 2.19632619 3.35486082 2.0625 5 C1.99289062 5.91652344 1.92328125 6.83304688 1.8515625 7.77734375 C1.71492188 8.53144531 1.57828125 9.28554687 1.4375 10.0625 C0.4475 10.5575 0.4475 10.5575 -0.5625 11.0625 C-2.86944043 7.60208935 -3.18306512 5.16039669 -3.5625 1.0625 C-2.5625 0.0625 -2.5625 0.0625 0 0 Z " fill="#FED751" transform="translate(306.5625,143.9375)"/>
<path d="M0 0 C-0.99 0.33 -1.98 0.66 -3 1 C-3 1.66 -3 2.32 -3 3 C-4.32 3.33 -5.64 3.66 -7 4 C-7 5.32 -7 6.64 -7 8 C-6.34 8 -5.68 8 -5 8 C-4.67 9.32 -4.34 10.64 -4 12 C-5.32 12 -6.64 12 -8 12 C-9.54163175 8.9167365 -9.29747535 6.39121901 -9 3 C-6.29148704 -0.10977414 -4.00164289 -0.33347024 0 0 Z " fill="#28110D" transform="translate(261,185)"/>
<path d="M0 0 C0.33 0.66 0.66 1.32 1 2 C0.34 2.94875 -0.32 3.8975 -1 4.875 C-3.17968457 7.66238955 -3.17968457 7.66238955 -3 10 C-3.66 10 -4.32 10 -5 10 C-5 9.34 -5 8.68 -5 8 C-7.31 7.67 -9.62 7.34 -12 7 C-9.47764868 5.31843245 -6.96413358 3.83531994 -4.3125 2.375 C-3.50425781 1.92898437 -2.69601562 1.48296875 -1.86328125 1.0234375 C-1.24839844 0.68570313 -0.63351562 0.34796875 0 0 Z " fill="#1A1604" transform="translate(306,164)"/>
<path d="M0 0 C2.46934085 3.70401128 2.44928433 6.70587865 2 11 C1 13.5 1 13.5 0 15 C-0.33 14.34 -0.66 13.68 -1 13 C-3.01669827 11.86649466 -3.01669827 11.86649466 -5 11 C-4.360625 9.9275 -3.72125 8.855 -3.0625 7.75 C-1.59398727 5.19177818 -0.47145458 2.94659114 0 0 Z " fill="#251B0E" transform="translate(313,150)"/>
<path d="M0 0 C0.66 0 1.32 0 2 0 C2 0.66 2 1.32 2 2 C2.99 2.33 3.98 2.66 5 3 C4.20928784 4.75043149 3.41739082 6.50032778 2.625 8.25 C2.18414062 9.22453125 1.74328125 10.1990625 1.2890625 11.203125 C0.23361862 13.49311839 -0.85543935 15.75366601 -2 18 C-2.08953853 14.14984308 -1.79126089 10.75848923 -1 7 C-1 5.68 -1 4.36 -1 3 C-0.34 3 0.32 3 1 3 C0.67 2.01 0.34 1.02 0 0 Z " fill="#122217" transform="translate(161,100)"/>
<path d="M0 0 C0.62390625 0.31710938 1.2478125 0.63421875 1.890625 0.9609375 C4.48758041 2.2401785 5.91588675 2.04178136 8.75 1.625 C9.94882812 1.45871094 9.94882812 1.45871094 11.171875 1.2890625 C11.77515625 1.19367188 12.3784375 1.09828125 13 1 C13 3 13 3 11.875 4.6875 C10 6 10 6 7.25 5.8125 C3.80382618 4.95095655 0.40237624 4.02071287 -3 3 C-3 2.34 -3 1.68 -3 1 C-2.01 0.67 -1.02 0.34 0 0 Z " fill="#ECA97E" transform="translate(252,196)"/>
<path d="M0 0 C7.38461538 -0.36923077 7.38461538 -0.36923077 10.5 1.5 C10.995 1.995 11.49 2.49 12 3 C11.360625 3.309375 10.72125 3.61875 10.0625 3.9375 C8.06389179 4.8345163 8.06389179 4.8345163 7 6 C5.33382885 6.04063832 3.66611905 6.042721 2 6 C2 4.35 2 2.7 2 1 C1.34 0.67 0.68 0.34 0 0 Z " fill="#98DBEC" transform="translate(246,56)"/>
<path d="M0 0 C0 0.66 0 1.32 0 2 C1.65 2 3.3 2 5 2 C5 2.66 5 3.32 5 4 C0.38 4 -4.24 4 -9 4 C-9 3.34 -9 2.68 -9 2 C-5.86501708 0.14223235 -3.62528568 -0.20140476 0 0 Z " fill="#F39B78" transform="translate(240,138)"/>
<path d="M0 0 C5.94 0 11.88 0 18 0 C18 0.99 18 1.98 18 3 C11.73 2.67 5.46 2.34 -1 2 C-0.67 1.34 -0.34 0.68 0 0 Z " fill="#0F0D12" transform="translate(208,91)"/>
<path d="M0 0 C0.65234375 1.734375 0.65234375 1.734375 1 4 C0.00390625 6.140625 0.00390625 6.140625 -1.4375 8.25 C-1.91058594 8.95640625 -2.38367188 9.6628125 -2.87109375 10.390625 C-3.24363281 10.92171875 -3.61617188 11.4528125 -4 12 C-5.5 10.625 -5.5 10.625 -7 9 C-7 7 -7 7 -5.1875 4.875 C-3 3 -3 3 0 3 C0 2.01 0 1.02 0 0 Z " fill="#F3D666" transform="translate(312,150)"/>
<path d="M0 0 C3.21666704 -0.21931821 5.43362303 -0.26828383 8.375 1.125 C10 3 10 3 10.25 6.1875 C10.1675 7.115625 10.085 8.04375 10 9 C8.0625 8.25 8.0625 8.25 6 7 C5.25 4.875 5.25 4.875 5 3 C4.01 3.33 3.02 3.66 2 4 C2 3.01 2 2.02 2 1 C1.34 0.67 0.68 0.34 0 0 Z " fill="#0E201F" transform="translate(212,67)"/>
<path d="M0 0 C0.99 0 1.98 0 3 0 C2.76228882 1.08704224 2.76228882 1.08704224 2.51977539 2.19604492 C2.03901777 4.78951662 1.80242678 7.2319784 1.68359375 9.86328125 C1.64169922 10.74951172 1.59980469 11.63574219 1.55664062 12.54882812 C1.49766602 13.9168457 1.49766602 13.9168457 1.4375 15.3125 C1.39431641 16.24384766 1.35113281 17.17519531 1.30664062 18.13476562 C1.20102775 20.42304454 1.09892248 22.71142372 1 25 C0.67 25 0.34 25 0 25 C-0.06058594 23.79601562 -0.12117187 22.59203125 -0.18359375 21.3515625 C-0.26799732 19.77602923 -0.35264541 18.20050904 -0.4375 16.625 C-0.49647461 15.43390625 -0.49647461 15.43390625 -0.55664062 14.21875 C-0.68893404 9.97398779 -0.68893404 9.97398779 -2 6 C-1.39421747 3.98072489 -0.73080266 1.97746603 0 0 Z " fill="#020C07" transform="translate(197,64)"/>
<path d="M0 0 C0.33 0.66 0.66 1.32 1 2 C3.64 2 6.28 2 9 2 C9 2.99 9 3.98 9 5 C8.01 5 7.02 5 6 5 C6.33 6.32 6.66 7.64 7 9 C3.64564078 7.61198929 1.88709697 6.11371 0 3 C0 2.01 0 1.02 0 0 Z " fill="#83F3B9" transform="translate(167,158)"/>
<path d="M0 0 C-0.33 1.32 -0.66 2.64 -1 4 C-2.32 4.33 -3.64 4.66 -5 5 C-5 4.34 -5 3.68 -5 3 C-5.66 3 -6.32 3 -7 3 C-7.33 3.99 -7.66 4.98 -8 6 C-8.99 5.67 -9.98 5.34 -11 5 C-10.67 4.01 -10.34 3.02 -10 2 C-6.3962102 0.47839986 -3.94779314 0 0 0 Z " fill="#FB778F" transform="translate(216,139)"/>
<path d="M0 0 C0.66 0.33 1.32 0.66 2 1 C0.515 3.475 0.515 3.475 -1 6 C0.32 6 1.64 6 3 6 C3 7.32 3 8.64 3 10 C-0.24208567 9.64950425 -1.61527704 9.43778819 -3.8125 6.9375 C-4.204375 6.298125 -4.59625 5.65875 -5 5 C-3.35 3.35 -1.7 1.7 0 0 Z " fill="#98EFBE" transform="translate(170,99)"/>
<path d="M0 0 C0.99 0 1.98 0 3 0 C3 2.31 3 4.62 3 7 C2.01 7.33 1.02 7.66 0 8 C-0.99 7.01 -1.98 6.02 -3 5 C-1.125 1.125 -1.125 1.125 0 0 Z " fill="#F77392" transform="translate(205,192)"/>
<path d="M0 0 C0.99 0.33 1.98 0.66 3 1 C3 1.66 3 2.32 3 3 C3.66 3 4.32 3 5 3 C5 2.34 5 1.68 5 1 C6.65 1 8.3 1 10 1 C10 1.99 10 2.98 10 4 C5.05 5.485 5.05 5.485 0 7 C0 4.69 0 2.38 0 0 Z " fill="#8BE0C7" transform="translate(208,79)"/>
<path d="M0 0 C3.34373475 0.55728913 6.03312999 1.35173889 9 3 C8.071875 3.4021875 8.071875 3.4021875 7.125 3.8125 C4.7004767 4.95556848 4.7004767 4.95556848 3 8 C1.68 7.34 0.36 6.68 -1 6 C-0.835 5.195625 -0.67 4.39125 -0.5 3.5625 C0.03191839 1.2715557 0.03191839 1.2715557 0 0 Z " fill="#83D5C5" transform="translate(215,60)"/>
<path d="M0 0 C-0.66 0 -1.32 0 -2 0 C-2 0.66 -2 1.32 -2 2 C0.97 2 3.94 2 7 2 C7 2.33 7 2.66 7 3 C1.06 3 -4.88 3 -11 3 C-7.19374934 -0.80625066 -5.11657296 -1.64461274 0 0 Z " fill="#FBBE5F" transform="translate(283,166)"/>
<path d="M0 0 C0.33 0 0.66 0 1 0 C1.33 8.25 1.66 16.5 2 25 C1.01 25.33 0.02 25.66 -1 26 C-1.33 25.01 -1.66 24.02 -2 23 C-1.67 22.34 -1.34 21.68 -1 21 C-0.84824451 19.40737934 -0.75099675 17.80935144 -0.68359375 16.2109375 C-0.64169922 15.26992187 -0.59980469 14.32890625 -0.55664062 13.359375 C-0.51732422 12.37453125 -0.47800781 11.3896875 -0.4375 10.375 C-0.39431641 9.38242188 -0.35113281 8.38984375 -0.30664062 7.3671875 C-0.20038931 4.91160162 -0.09835036 2.45591297 0 0 Z " fill="#160B10" transform="translate(277,96)"/>
<path d="M0 0 C2.8203125 -0.29296875 2.8203125 -0.29296875 6.125 -0.1875 C7.76855469 -0.14689453 7.76855469 -0.14689453 9.4453125 -0.10546875 C10.28835937 -0.07066406 11.13140625 -0.03585938 12 0 C12 0.66 12 1.32 12 2 C7.38 2.33 2.76 2.66 -2 3 C-1.34 2.01 -0.68 1.02 0 0 Z " fill="#E38D92" transform="translate(212,136)"/>
<path d="M0 0 C-0.66 1.32 -1.32 2.64 -2 4 C-4.31 4 -6.62 4 -9 4 C-9.33 3.01 -9.66 2.02 -10 1 C-6.42181037 -1.33958553 -4.07775191 -0.9267618 0 0 Z " fill="#0D1D19" transform="translate(221,76)"/>
<path d="M0 0 C0.33 0 0.66 0 1 0 C1 5.28 1 10.56 1 16 C0.67 14.68 0.34 13.36 0 12 C-0.99 11.67 -1.98 11.34 -3 11 C-2.01 7.37 -1.02 3.74 0 0 Z " fill="#F3BA64" transform="translate(272,177)"/>
<path d="M0 0 C1.32 0.66 2.64 1.32 4 2 C4 4.31 4 6.62 4 9 C2.0625 8.625 2.0625 8.625 0 8 C-1 6 -1 6 -1 3 C-0.67 2.01 -0.34 1.02 0 0 Z " fill="#FB9188" transform="translate(232,168)"/>
<path d="M0 0 C0.33 0 0.66 0 1 0 C1.06058594 0.71027344 1.12117187 1.42054688 1.18359375 2.15234375 C1.26738281 3.07144531 1.35117188 3.99054688 1.4375 4.9375 C1.51871094 5.85402344 1.59992188 6.77054688 1.68359375 7.71484375 C1.76044976 9.96159732 1.76044976 9.96159732 3 11 C3.04080783 12.99958364 3.04254356 15.00045254 3 17 C2.01 17 1.02 17 0 17 C0 11.39 0 5.78 0 0 Z " fill="#160B09" transform="translate(195,152)"/>
<path d="M0 0 C-0.33 1.32 -0.66 2.64 -1 4 C-6.53846154 4.36923077 -6.53846154 4.36923077 -8.875 2.5 C-9.24625 2.005 -9.6175 1.51 -10 1 C-6.78548731 -0.60725635 -3.56387464 -0.05748185 0 0 Z " fill="#F3A76C" transform="translate(257,138)"/>
<path d="M0 0 C0.99 0.66 1.98 1.32 3 2 C1.90931332 5.77545388 1.0916909 8.47043472 -2 11 C-2.95465783 8.83032311 -3.14401212 7.43671207 -2.3984375 5.17578125 C-1.64129615 3.4315257 -0.82390802 1.71372869 0 0 Z " fill="#101C29" transform="translate(274,115)"/>
<path d="M0 0 C0.99 0 1.98 0 3 0 C3.33 1.98 3.66 3.96 4 6 C2.02 6 0.04 6 -2 6 C-1.125 1.125 -1.125 1.125 0 0 Z " fill="#F8D748" transform="translate(306,106)"/>
<path d="M0 0 C1.32 0.33 2.64 0.66 4 1 C4.33 2.32 4.66 3.64 5 5 C4.42024414 4.84152588 3.84048828 4.68305176 3.24316406 4.51977539 C-0.21220398 3.71911382 -3.71910303 3.62776918 -7.25 3.4375 C-7.99507813 3.39431641 -8.74015625 3.35113281 -9.5078125 3.30664062 C-11.338349 3.20103275 -13.16915176 3.10005799 -15 3 C-15 2.67 -15 2.34 -15 2 C-10.05 2 -5.1 2 0 2 C0 1.34 0 0.68 0 0 Z " fill="#231105" transform="translate(296,91)"/>
<path d="M0 0 C1.55296823 2.32945234 2.75775988 4.51551976 4 7 C-0.75 8.125 -0.75 8.125 -3 7 C-3.1875 4.625 -3.1875 4.625 -3 2 C-2.01 1.34 -1.02 0.68 0 0 Z " fill="#04100A" transform="translate(217,69)"/>
<path d="M0 0 C0.66 0 1.32 0 2 0 C2.33 1.65 2.66 3.3 3 5 C-2.28 5 -7.56 5 -13 5 C-13 4.67 -13 4.34 -13 4 C-9.04 4 -5.08 4 -1 4 C-0.67 2.68 -0.34 1.36 0 0 Z " fill="#F59B82" transform="translate(241,205)"/>
<path d="M0 0 C0.66 0.66 1.32 1.32 2 2 C1.9765625 4.8203125 1.9765625 4.8203125 1.625 8.125 C1.51414063 9.22070312 1.40328125 10.31640625 1.2890625 11.4453125 C1.19367188 12.28835937 1.09828125 13.13140625 1 14 C0.34 14 -0.32 14 -1 14 C-1.02705729 12.22925083 -1.04642195 10.45838289 -1.0625 8.6875 C-1.07410156 7.70136719 -1.08570313 6.71523437 -1.09765625 5.69921875 C-1 3 -1 3 0 0 Z " fill="#CB7A91" transform="translate(200,146)"/>
<path d="M0 0 C0.99 0 1.98 0 3 0 C3.34833144 4.87664009 2.41685712 7.77050005 0 12 C-1.53166168 7.91556885 -0.63081652 4.20544343 0 0 Z " fill="#98CDE0" transform="translate(271,112)"/>
<path d="M0 0 C5.75 -0.125 5.75 -0.125 8 1 C8 1.66 8 2.32 8 3 C8.99 3.33 9.98 3.66 11 4 C7.01803543 5.05404945 4.01804691 4.84098656 0 4 C1.32 3.34 2.64 2.68 4 2 C2.68 1.34 1.36 0.68 0 0 Z " fill="#211717" transform="translate(248,210)"/>
<path d="M0 0 C4 2 4 2 4.75 4.125 C4.8325 4.74375 4.915 5.3625 5 6 C4.01 6.33 3.02 6.66 2 7 C1.34 8.32 0.68 9.64 0 11 C0 7.37 0 3.74 0 0 Z " fill="#F7779B" transform="translate(201,146)"/>
<path d="M0 0 C0.66 0.33 1.32 0.66 2 1 C2.625 3.0625 2.625 3.0625 3 5 C1.68 5.99 0.36 6.98 -1 8 C-1.33 7.67 -1.66 7.34 -2 7 C-2.66 7.66 -3.32 8.32 -4 9 C-4 7.68 -4 6.36 -4 5 C-2.68 5 -1.36 5 0 5 C-0.2784375 4.0409375 -0.2784375 4.0409375 -0.5625 3.0625 C-0.706875 2.381875 -0.85125 1.70125 -1 1 C-0.67 0.67 -0.34 0.34 0 0 Z " fill="#82DDBE" transform="translate(199,130)"/>
<path d="M0 0 C0 2 0 4 0 6 C-3.3 6 -6.6 6 -10 6 C-7.08616689 4.05744459 -4.12736438 2.56368219 -1 1 C-0.67 0.67 -0.34 0.34 0 0 Z " fill="#1B2C3A" transform="translate(269,124)"/>
<path d="M0 0 C1.98 0.495 1.98 0.495 4 1 C4 3.31 4 5.62 4 8 C3.01 7.67 2.02 7.34 1 7 C1 5.68 1 4.36 1 3 C0.34 2.67 -0.32 2.34 -1 2 C-0.67 1.34 -0.34 0.68 0 0 Z " fill="#7DF1B2" transform="translate(164,105)"/>
<path d="M0 0 C0.66 0 1.32 0 2 0 C4.42857143 6.28571429 4.42857143 6.28571429 3 10 C2.67 9.01 2.34 8.02 2 7 C1.46375 6.525625 0.9275 6.05125 0.375 5.5625 C-0.07875 5.046875 -0.5325 4.53125 -1 4 C-0.6875 1.8125 -0.6875 1.8125 0 0 Z " fill="#0F1222" transform="translate(314,104)"/>
<path d="M0 0 C1.32 0 2.64 0 4 0 C3.25 4.75 3.25 4.75 1 7 C-0.0625 5.1875 -0.0625 5.1875 -1 3 C-0.67 2.01 -0.34 1.02 0 0 Z " fill="#99E0DC" transform="translate(220,63)"/>
<path d="M0 0 C0.33 0.66 0.66 1.32 1 2 C-1.76250036 3.38125018 -3.94731099 3.19079306 -7 3 C-7.66 2.34 -8.32 1.68 -9 1 C-6.04335481 -0.4783226 -3.25770263 -0.06032783 0 0 Z " fill="#1D0B03" transform="translate(263,209)"/>
<path d="M0 0 C0 0.99 0 1.98 0 3 C-2.31 3.66 -4.62 4.32 -7 5 C-7.66 4.34 -8.32 3.68 -9 3 C-3.375 0 -3.375 0 0 0 Z " fill="#97CEBE" transform="translate(215,57)"/>
<path d="M0 0 C2.51083114 1.25541557 2.87125446 2.50063488 4 5 C3.34 5 2.68 5 2 5 C1.67 5.99 1.34 6.98 1 8 C-1 5 -1 5 -0.625 2.3125 C-0.41875 1.549375 -0.2125 0.78625 0 0 Z " fill="#091926" transform="translate(260,189)"/>
<path d="M0 0 C2.9375 0.8125 2.9375 0.8125 6 2 C6.33 2.99 6.66 3.98 7 5 C4.69 4.67 2.38 4.34 0 4 C0 2.68 0 1.36 0 0 Z " fill="#EAB27C" transform="translate(256,181)"/>
<path d="M0 0 C2 1.125 2 1.125 4 3 C4.25 6.1875 4.25 6.1875 4 9 C3.34 9 2.68 9 2 9 C0.93347808 6.69631264 -0.06421005 4.35981813 -1 2 C-0.67 1.34 -0.34 0.68 0 0 Z " fill="#0C1620" transform="translate(274,65)"/>
<path d="M0 0 C2.64 0 5.28 0 8 0 C7.0409375 0.1546875 7.0409375 0.1546875 6.0625 0.3125 C5.381875 0.539375 4.70125 0.76625 4 1 C3.67 1.99 3.34 2.98 3 4 C1.68 4 0.36 4 -1 4 C-0.67 2.68 -0.34 1.36 0 0 Z " fill="#9ADED0" transform="translate(216,56)"/>
<path d="M0 0 C2.97 0 5.94 0 9 0 C9 0.66 9 1.32 9 2 C5.42355152 3.2380014 2.66305234 2.74926071 -1 2 C-0.67 1.34 -0.34 0.68 0 0 Z " fill="#160E1E" transform="translate(291,172)"/>
<path d="M0 0 C1.32 0.33 2.64 0.66 4 1 C3.67 1.99 3.34 2.98 3 4 C-1.29 4 -5.58 4 -10 4 C-10 3.67 -10 3.34 -10 3 C-6.37 3 -2.74 3 1 3 C0.67 2.01 0.34 1.02 0 0 Z " fill="#11150D" transform="translate(194,170)"/>
<path d="M0 0 C0.99 0 1.98 0 3 0 C4.4783226 2.95664519 4.06032783 5.74229737 4 9 C3.34 9 2.68 9 2 9 C1.34 6.03 0.68 3.06 0 0 Z " fill="#19141C" transform="translate(314,147)"/>
<path d="M0 0 C1.65 0 3.3 0 5 0 C4.67 1.32 4.34 2.64 4 4 C2.68 4.33 1.36 4.66 0 5 C0 3.35 0 1.7 0 0 Z " fill="#8FD3E9" transform="translate(264,120)"/>
<path d="M0 0 C0.66 1.32 1.32 2.64 2 4 C1.34 4 0.68 4 0 4 C0.66 5.65 1.32 7.3 2 9 C0.68 9 -0.64 9 -2 9 C-2.25 3.375 -2.25 3.375 0 0 Z " fill="#8AF6B7" transform="translate(166,111)"/>
<path d="M0 0 C2.31 0 4.62 0 7 0 C7 0.66 7 1.32 7 2 C4.33333333 2.66666667 1.66666667 3.33333333 -1 4 C-0.67 2.68 -0.34 1.36 0 0 Z " fill="#091C14" transform="translate(177,92)"/>
<path d="M0 0 C0.33 0.66 0.66 1.32 1 2 C2.65 2 4.3 2 6 2 C6 2.99 6 3.98 6 5 C5.34 5 4.68 5 4 5 C3.67 5.66 3.34 6.32 3 7 C1.68 5.02 0.36 3.04 -1 1 C-0.67 0.67 -0.34 0.34 0 0 Z " fill="#DB7793" transform="translate(202,197)"/>
<path d="M0 0 C0.33 0.66 0.66 1.32 1 2 C-0.25 4 -0.25 4 -2 6 C-3.32 6 -4.64 6 -6 6 C-4.75453595 2.26360784 -3.36595047 1.81243487 0 0 Z " fill="#271B0B" transform="translate(306,164)"/>
<path d="M0 0 C6.0546875 -0.1953125 6.0546875 -0.1953125 8 0 C8.66 0.66 9.32 1.32 10 2 C7.00468461 2.99843846 5.82744268 3.00732761 2.8125 2.5625 C1.554375 2.376875 0.29625 2.19125 -1 2 C-0.67 1.34 -0.34 0.68 0 0 Z " fill="#F9CB49" transform="translate(289,160)"/>
<path d="M0 0 C0.66 0 1.32 0 2 0 C2.33 2.97 2.66 5.94 3 9 C2.01 8.67 1.02 8.34 0 8 C-0.38063221 5.6739143 -0.71269945 3.33944736 -1 1 C-0.67 0.67 -0.34 0.34 0 0 Z " fill="#F9D942" transform="translate(304,144)"/>
<path d="M0 0 C2.31 0 4.62 0 7 0 C7.33 0.66 7.66 1.32 8 2 C7.21625 2.12375 6.4325 2.2475 5.625 2.375 C2.85942178 2.79117993 2.85942178 2.79117993 1 5 C0.67 3.35 0.34 1.7 0 0 Z " fill="#80E7CA" transform="translate(200,128)"/>
<path d="M0 0 C2.875 -0.1875 2.875 -0.1875 6 0 C6.66 0.99 7.32 1.98 8 3 C7.34 3.66 6.68 4.32 6 5 C5.01 4.34 4.02 3.68 3 3 C2.34 2.67 1.68 2.34 1 2 C0.67 1.34 0.34 0.68 0 0 Z " fill="#91DBF2" transform="translate(258,60)"/>
<path d="M0 0 C1.98 0.66 3.96 1.32 6 2 C6 2.66 6 3.32 6 4 C6.66 4 7.32 4 8 4 C7.67 4.99 7.34 5.98 7 7 C6.236875 6.38125 5.47375 5.7625 4.6875 5.125 C2.00374191 2.94402948 2.00374191 2.94402948 -1 1 C-0.67 0.67 -0.34 0.34 0 0 Z " fill="#102025" transform="translate(263,57)"/>
<path d="M0 0 C2.0625 0.4375 2.0625 0.4375 4 1 C4 1.99 4 2.98 4 4 C2.68 4 1.36 4 0 4 C-0.33 4.99 -0.66 5.98 -1 7 C-1.04254356 5.00045254 -1.04080783 2.99958364 -1 1 C-0.67 0.67 -0.34 0.34 0 0 Z " fill="#E8A766" transform="translate(266,187)"/>
<path d="M0 0 C-0.99 0.33 -1.98 0.66 -3 1 C-3 1.66 -3 2.32 -3 3 C-4.98 3.66 -6.96 4.32 -9 5 C-6.81610567 0.16423399 -5.20641855 -0.13701101 0 0 Z " fill="#4A2719" transform="translate(261,185)"/>
<path d="M0 0 C0.66 0 1.32 0 2 0 C2 2.64 2 5.28 2 8 C1.01 7.67 0.02 7.34 -1 7 C-0.67 4.69 -0.34 2.38 0 0 Z " fill="#1B0B09" transform="translate(154,120)"/>
<path d="M0 0 C0.33 0.99 0.66 1.98 1 3 C1.66 3 2.32 3 3 3 C3 4.98 3 6.96 3 9 C2.67 9 2.34 9 2 9 C2 7.35 2 5.7 2 4 C1.34 4 0.68 4 0 4 C-0.33 5.32 -0.66 6.64 -1 8 C-1.625 5.6875 -1.625 5.6875 -2 3 C-1.34 2.01 -0.68 1.02 0 0 Z " fill="#79CDB0" transform="translate(206,67)"/>
<path d="M0 0 C2.475 0.99 2.475 0.99 5 2 C0.125 6 0.125 6 -1 6 C-1.042721 4.33388095 -1.04063832 2.66617115 -1 1 C-0.67 0.67 -0.34 0.34 0 0 Z " fill="#151B18" transform="translate(205,56)"/>
<path d="M0 0 C0.33 1.32 0.66 2.64 1 4 C-2 6 -2 6 -4.1875 5.625 C-4.785625 5.41875 -5.38375 5.2125 -6 5 C-4.02 3.35 -2.04 1.7 0 0 Z " fill="#2A1908" transform="translate(273,200)"/>
<path d="M0 0 C0.66 0 1.32 0 2 0 C2 0.66 2 1.32 2 2 C2.66 2 3.32 2 4 2 C4 3.65 4 5.3 4 7 C3.01 7.495 3.01 7.495 2 8 C1.34 5.36 0.68 2.72 0 0 Z " fill="#7AF8B0" transform="translate(164,150)"/>
<path d="M0 0 C1.65 0 3.3 0 5 0 C5 1.65 5 3.3 5 5 C4.34 5 3.68 5 3 5 C3 4.34 3 3.68 3 3 C2.01 2.67 1.02 2.34 0 2 C0 1.34 0 0.68 0 0 Z " fill="#051019" transform="translate(232,90)"/>
<path d="M0 0 C4.75 0.75 4.75 0.75 7 3 C5.1875 3.625 5.1875 3.625 3 4 C2.01 3.34 1.02 2.68 0 2 C0 1.34 0 0.68 0 0 Z " fill="#0E1F12" transform="translate(168,168)"/>
<path d="M0 0 C3.875 4.75 3.875 4.75 5 7 C3.68 6.67 2.36 6.34 1 6 C1 5.34 1 4.68 1 4 C0.34 4 -0.32 4 -1 4 C-0.67 2.68 -0.34 1.36 0 0 Z " fill="#122E19" transform="translate(162,158)"/>
<path d="M0 0 C2 1 2 1 3 3 C0.36 3.66 -2.28 4.32 -5 5 C-3.35 3.35 -1.7 1.7 0 0 Z " fill="#D57C8A" transform="translate(209,137)"/>
<path d="M0 0 C1.65 0.33 3.3 0.66 5 1 C4.67 1.66 4.34 2.32 4 3 C2.66666667 3.33333333 1.33333333 3.66666667 0 4 C-0.33 4.66 -0.66 5.32 -1 6 C-0.67 4.02 -0.34 2.04 0 0 Z " fill="#0B0E0D" transform="translate(202,134)"/>
</svg>
